AbhayaLibre.glyphspackage
{
glyphname = AE;
layers = (
{
anchors = (
{
name = top;
position = "{573, 630}";
}
);
background = {
paths = (
{
closed = 1;
nodes = (
"820 420 LINE",
"815 600 LINE",
"412 600 LINE",
"412 574 LINE",
"680 574 LINE SMOOTH",
"747 574 OFFCURVE",
"772 515 OFFCURVE",
"786 467 CURVE SMOOTH",
"800 420 LINE"
);
},
{
closed = 1;
nodes = (
"815 0 LINE",
"820 180 LINE",
"800 180 LINE",
"786 133 LINE SMOOTH",
"771 82 OFFCURVE",
"747 26 OFFCURVE",
"680 26 CURVE SMOOTH",
"354 26 LINE",
"354 0 LINE"
);
},
{
closed = 1;
nodes = (
"726 295 LINE",
"726 324 LINE",
"479 324 LINE",
"479 295 LINE"
);
},
{
closed = 1;
nodes = (
"186 0 LINE",
"186 22 OFFCURVE",
"181 26 OFFCURVE",
"162 26 CURVE SMOOTH",
"105 26 LINE",
"454 600 LINE",
"412 600 LINE",
"60 26 LINE",
"0 26 LINE",
"0 0 LINE"
);
},
{
closed = 1;
nodes = (
"573 0 LINE",
"573 22 OFFCURVE",
"568 26 OFFCURVE",
"548 26 CURVE SMOOTH",
"354 26 LINE",
"354 0 LINE"
);
},
{
closed = 1;
nodes = (
"473 240 LINE",
"458 269 LINE",
"218 269 LINE",
"208 240 LINE"
);
}
);
};
components = (
{
alignment = -1;
name = vertical_stem_upper;
transform = "{1, 0, 0, 1, 397, 0}";
}
);
layerId = "C18F3EFD-FA9C-4751-AD2F-5B966120D1A5";
paths = (
{
closed = 1;
nodes = (
"186 0 LINE",
"186 22 OFFCURVE",
"181 26 OFFCURVE",
"162 26 CURVE SMOOTH",
"105 26 LINE",
"235 240 LINE",
"473 240 LINE",
"458 269 LINE",
"253 269 LINE",
"438 574 LINE",
"680 574 LINE SMOOTH",
"747 574 OFFCURVE",
"772 515 OFFCURVE",
"786 467 CURVE SMOOTH",
"800 420 LINE",
"820 420 LINE",
"815 600 LINE",
"412 600 LINE",
"60 26 LINE",
"0 26 LINE",
"0 0 LINE"
);
},
{
closed = 1;
nodes = (
"815 0 LINE",
"820 180 LINE",
"800 180 LINE",
"786 133 LINE SMOOTH",
"771 82 OFFCURVE",
"747 26 OFFCURVE",
"680 26 CURVE SMOOTH",
"354 26 LINE",
"354 0 LINE"
);
},
{
closed = 1;
nodes = (
"726 295 LINE",
"726 324 LINE",
"479 324 LINE",
"479 295 LINE"
);
}
);
width = 870;
},
{
anchors = (
{
name = top;
position = "{635, 630}";
}
);
components = (
{
name = vertical_stem_upper;
transform = "{1, 0, 0, 1, 395, 0}";
}
);
layerId = "AA78C373-A874-4B43-A7A1-B39102DDD1E4";
paths = (
{
closed = 1;
nodes = (
"186 0 LINE",
"186 22 OFFCURVE",
"181 26 OFFCURVE",
"162 26 CURVE SMOOTH",
"105 26 LINE",
"231 233 LINE",
"498 233 LINE",
"488 263 LINE",
"249 263 LINE",
"438 573 LINE",
"687 573 LINE SMOOTH",
"763 573 OFFCURVE",
"792 526 OFFCURVE",
"807 477 CURVE SMOOTH",
"829 403 LINE",
"858 403 LINE",
"854 600 LINE",
"412 600 LINE",
"60 26 LINE",
"0 26 LINE",
"0 0 LINE"
);
},
{
closed = 1;
nodes = (
"854 0 LINE",
"858 197 LINE",
"829 197 LINE",
"806 123 LINE SMOOTH",
"791 76 OFFCURVE",
"763 27 OFFCURVE",
"687 27 CURVE SMOOTH",
"356 27 LINE",
"356 0 LINE"
);
},
{
closed = 1;
nodes = (
"766 294 LINE",
"766 324 LINE",
"499 324 LINE",
"499 294 LINE"
);
}
);
width = 903;
}
);
leftMetricsKey = A;
rightMetricsKey = E;
unicode = 00C6;
}
{
glyphname = Thorn;
layers = (
{
components = (
{
name = vertical_stem_upper;
transform = "{1, 0, 0, 1, 83, 0}";
}
);
layerId = "C18F3EFD-FA9C-4751-AD2F-5B966120D1A5";
paths = (
{
closed = 1;
nodes = (
"297 145 LINE SMOOTH",
"452 145 OFFCURVE",
"535 214 OFFCURVE",
"535 319 CURVE SMOOTH",
"535 409 OFFCURVE",
"474 480 OFFCURVE",
"339 480 CURVE SMOOTH",
"165 480 LINE",
"165 454 LINE",
"318 454 LINE SMOOTH",
"403 454 OFFCURVE",
"441 393 OFFCURVE",
"441 318 CURVE SMOOTH",
"441 233 OFFCURVE",
"401 174 OFFCURVE",
"301 174 CURVE SMOOTH",
"165 174 LINE",
"165 145 LINE"
);
},
{
closed = 1;
nodes = (
"296 0 LINE",
"296 22 OFFCURVE",
"291 26 OFFCURVE",
"271 26 CURVE SMOOTH",
"40 26 LINE",
"40 0 LINE"
);
},
{
closed = 1;
nodes = (
"296 574 LINE",
"296 600 LINE",
"40 600 LINE",
"40 574 LINE"
);
}
);
width = 565;
},
{
components = (
{
name = vertical_stem_upper;
transform = "{1, 0, 0, 1, 47, 0}";
}
);
layerId = "AA78C373-A874-4B43-A7A1-B39102DDD1E4";
paths = (
{
closed = 1;
nodes = (
"311 144 LINE SMOOTH",
"474 144 OFFCURVE",
"541 222 OFFCURVE",
"541 322 CURVE SMOOTH",
"541 412 OFFCURVE",
"475 480 OFFCURVE",
"343 480 CURVE SMOOTH",
"153 480 LINE",
"153 453 LINE",
"286 453 LINE SMOOTH",
"368 453 OFFCURVE",
"391 388 OFFCURVE",
"391 313 CURVE SMOOTH",
"391 233 OFFCURVE",
"362 174 OFFCURVE",
"282 174 CURVE SMOOTH",
"153 174 LINE",
"153 144 LINE"
);
},
{
closed = 1;
nodes = (
"298 0 LINE",
"298 23 OFFCURVE",
"293 27 OFFCURVE",
"274 27 CURVE SMOOTH",
"20 27 LINE",
"20 0 LINE"
);
},
{
closed = 1;
nodes = (
"298 573 LINE",
"298 600 LINE",
"20 600 LINE",
"20 573 LINE"
);
}
);
width = 551;
}
);
leftMetricsKey = P;
rightMetricsKey = P;
unicode = 00DE;
}
{
glyphname = acute;
layers = (
{
anchors = (
{
name = _top;
position = "{278, 500}";
}
);
layerId = "C18F3EFD-FA9C-4751-AD2F-5B966120D1A5";
paths = (
{
closed = 1;
nodes = (
"277 529 OFFCURVE",
"343 558 OFFCURVE",
"368 583 CURVE SMOOTH",
"376 591 OFFCURVE",
"381 601 OFFCURVE",
"381 611 CURVE SMOOTH",
"381 634 OFFCURVE",
"358 656 OFFCURVE",
"335 656 CURVE SMOOTH",
"325 656 OFFCURVE",
"315 652 OFFCURVE",
"306 643 CURVE SMOOTH",
"282 619 OFFCURVE",
"253 553 OFFCURVE",
"204 500 CURVE",
"220 483 LINE"
);
}
);
width = 500;
},
{
anchors = (
{
name = _top;
position = "{269, 500}";
}
);
background = {
paths = (
{
closed = 1;
nodes = (
"368 598 OFFCURVE",
"372 619 OFFCURVE",
"353 641 CURVE SMOOTH",
"335 659 OFFCURVE",
"311 659 OFFCURVE",
"291 643 CURVE SMOOTH",
"268 619 OFFCURVE",
"238 553 OFFCURVE",
"189 500 CURVE",
"205 483 LINE",
"262 528 OFFCURVE",
"328 559 OFFCURVE",
"353 583 CURVE SMOOTH"
);
}
);
};
layerId = "AA78C373-A874-4B43-A7A1-B39102DDD1E4";
paths = (
{
closed = 1;
nodes = (
"259 517 OFFCURVE",
"336 529 OFFCURVE",
"368 552 CURVE SMOOTH",
"384 563 OFFCURVE",
"390 579 OFFCURVE",
"390 594 CURVE SMOOTH",
"390 624 OFFCURVE",
"365 654 OFFCURVE",
"334 654 CURVE SMOOTH",
"324 654 OFFCURVE",
"314 651 OFFCURVE",
"303 643 CURVE SMOOTH",
"269 618 OFFCURVE",
"248 572 OFFCURVE",
"168 503 CURVE",
"183 481 LINE"
);
}
);
width = 500;
}
);
unicode = 00B4;
}
{
glyphname = ae;
layers = (
{
anchors = (
{
name = top;
position = "{375, 500}";
}
);
layerId = "C18F3EFD-FA9C-4751-AD2F-5B966120D1A5";
paths = (
{
closed = 1;
nodes = (
"392 355 OFFCURVE",
"448 410 OFFCURVE",
"516 410 CURVE SMOOTH",
"584 410 OFFCURVE",
"617 362 OFFCURVE",
"617 310 CURVE SMOOTH",
"617 254 OFFCURVE",
"579 243 OFFCURVE",
"498 245 CURVE SMOOTH",
"352 249 LINE",
"352 221 LINE",
"512 218 LINE SMOOTH",
"623 216 OFFCURVE",
"696 223 OFFCURVE",
"696 298 CURVE SMOOTH",
"696 376 OFFCURVE",
"616 435 OFFCURVE",
"514 435 CURVE SMOOTH",
"381 435 OFFCURVE",
"318 324 OFFCURVE",
"318 209 CURVE SMOOTH",
"318 68 OFFCURVE",
"390 -10 OFFCURVE",
"517 -10 CURVE SMOOTH",
"600 -10 OFFCURVE",
"664 29 OFFCURVE",
"691 100 CURVE",
"665 105 LINE",
"639 49 OFFCURVE",
"590 18 OFFCURVE",
"533 18 CURVE SMOOTH",
"449 18 OFFCURVE",
"392 84 OFFCURVE",
"392 233 CURVE SMOOTH"
);
},
{
closed = 1;
nodes = (
"252 -10 OFFCURVE",
"320 58 OFFCURVE",
"335 118 CURVE",
"385 136 LINE",
"385 284 LINE SMOOTH",
"385 386 OFFCURVE",
"336 435 OFFCURVE",
"227 435 CURVE SMOOTH",
"113 435 OFFCURVE",
"62 390 OFFCURVE",
"62 349 CURVE SMOOTH",
"62 330 OFFCURVE",
"74 312 OFFCURVE",
"101 312 CURVE SMOOTH",
"158 312 OFFCURVE",
"116 410 OFFCURVE",
"216 410 CURVE SMOOTH",
"277 410 OFFCURVE",
"316 377 OFFCURVE",
"316 307 CURVE SMOOTH",
"316 137 LINE",
"301 68 OFFCURVE",
"243 30 OFFCURVE",
"195 30 CURVE SMOOTH",
"147 30 OFFCURVE",
"114 59 OFFCURVE",
"114 122 CURVE SMOOTH",
"114 205 OFFCURVE",
"198 217 OFFCURVE",
"324 217 CURVE",
"324 244 LINE",
"131 244 OFFCURVE",
"35 205 OFFCURVE",
"35 105 CURVE SMOOTH",
"35 28 OFFCURVE",
"94 -10 OFFCURVE",
"162 -10 CURVE SMOOTH"
);
}
);
width = 731;
},
{
anchors = (
{
name = top;
position = "{366, 500}";
}
);
background = {
paths = (
{
closed = 1;
nodes = (
"219 -10 OFFCURVE",
"276 27 OFFCURVE",
"295 89 CURVE",
"408 111 LINE",
"408 284 LINE SMOOTH",
"408 401 OFFCURVE",
"319 445 OFFCURVE",
"230 445 CURVE SMOOTH",
"111 445 OFFCURVE",
"50 406 OFFCURVE",
"50 354 CURVE SMOOTH",
"50 322 OFFCURVE",
"74 302 OFFCURVE",
"106 302 CURVE SMOOTH",
"197 302 OFFCURVE",
"144 420 OFFCURVE",
"223 420 CURVE SMOOTH",
"269 420 OFFCURVE",
"284 384 OFFCURVE",
"284 312 CURVE SMOOTH",
"284 122 LINE",
"268 64 OFFCURVE",
"236 33 OFFCURVE",
"207 33 CURVE SMOOTH",
"175 33 OFFCURVE",
"156 61 OFFCURVE",
"156 122 CURVE SMOOTH",
"156 189 OFFCURVE",
"190 220 OFFCURVE",
"299 220 CURVE",
"299 247 LINE",
"115 247 OFFCURVE",
"26 201 OFFCURVE",
"26 111 CURVE SMOOTH",
"26 30 OFFCURVE",
"80 -10 OFFCURVE",
"155 -10 CURVE SMOOTH"
);
}
);
};
layerId = "AA78C373-A874-4B43-A7A1-B39102DDD1E4";
paths = (
{
closed = 1;
nodes = (
"407 368 OFFCURVE",
"433 420 OFFCURVE",
"490 420 CURVE SMOOTH",
"549 420 OFFCURVE",
"557 374 OFFCURVE",
"557 310 CURVE SMOOTH",
"557 258 OFFCURVE",
"539 244 OFFCURVE",
"471 247 CURVE SMOOTH",
"395 250 LINE",
"393 223 LINE",
"499 220 LINE SMOOTH",
"637 216 OFFCURVE",
"690 240 OFFCURVE",
"690 300 CURVE SMOOTH",
"690 393 OFFCURVE",
"602 445 OFFCURVE",
"496 445 CURVE SMOOTH",
"385 445 OFFCURVE",
"285 370 OFFCURVE",
"285 219 CURVE SMOOTH",
"285 59 OFFCURVE",
"358 -10 OFFCURVE",
"497 -10 CURVE SMOOTH",
"583 -10 OFFCURVE",
"653 27 OFFCURVE",
"680 106 CURVE",
"655 111 LINE",
"633 63 OFFCURVE",
"583 19 OFFCURVE",
"520 19 CURVE SMOOTH",
"448 19 OFFCURVE",
"407 76 OFFCURVE",
"407 236 CURVE SMOOTH"
);
},
{
closed = 1;
nodes = (
"219 -10 OFFCURVE",
"291 29 OFFCURVE",
"309 122 CURVE",
"408 111 LINE",
"408 284 LINE SMOOTH",
"408 401 OFFCURVE",
"316 445 OFFCURVE",
"227 445 CURVE SMOOTH",
"105 445 OFFCURVE",
"44 406 OFFCURVE",
"44 354 CURVE SMOOTH",
"44 322 OFFCURVE",
"68 302 OFFCURVE",
"100 302 CURVE SMOOTH",
"188 302 OFFCURVE",
"138 420 OFFCURVE",
"220 420 CURVE SMOOTH",
"266 420 OFFCURVE",
"284 384 OFFCURVE",
"284 312 CURVE SMOOTH",
"284 122 LINE",
"268 64 OFFCURVE",
"233 33 OFFCURVE",
"204 33 CURVE SMOOTH",
"169 33 OFFCURVE",
"150 61 OFFCURVE",
"150 122 CURVE SMOOTH",
"150 189 OFFCURVE",
"187 220 OFFCURVE",
"299 220 CURVE",
"299 247 LINE",
"109 247 OFFCURVE",
"20 201 OFFCURVE",
"20 111 CURVE SMOOTH",
"20 30 OFFCURVE",
"74 -10 OFFCURVE",
"149 -10 CURVE SMOOTH"
);
}
);
width = 714;
}
);
leftMetricsKey = a;
rightMetricsKey = e;
unicode = 00E6;
}
{
glyphname = brokenbar;
layers = (
{
background = {
paths = (
{
closed = 1;
nodes = (
"110 315 LINE",
"110 199 LINE",
"167 199 LINE",
"167 315 LINE"
);
},
{
closed = 1;
nodes = (
"110 -136 LINE",
"110 650 LINE",
"167 650 LINE",
"167 -136 LINE"
);
}
);
};
layerId = "C18F3EFD-FA9C-4751-AD2F-5B966120D1A5";
paths = (
{
closed = 1;
nodes = (
"167 315 LINE",
"167 650 LINE",
"110 650 LINE",
"110 315 LINE"
);
},
{
closed = 1;
nodes = (
"167 -136 LINE",
"167 199 LINE",
"110 199 LINE",
"110 -136 LINE"
);
}
);
width = 277;
},
{
background = {
paths = (
{
closed = 1;
nodes = (
"90 315 LINE",
"90 199 LINE",
"167 199 LINE",
"167 315 LINE"
);
},
{
closed = 1;
nodes = (
"90 -136 LINE",
"90 650 LINE",
"167 650 LINE",
"167 -136 LINE"
);
}
);
};
layerId = "AA78C373-A874-4B43-A7A1-B39102DDD1E4";
paths = (
{
closed = 1;
nodes = (
"170 315 LINE",
"170 650 LINE",
"90 650 LINE",
"90 315 LINE"
);
},
{
closed = 1;
nodes = (
"170 -136 LINE",
"170 199 LINE",
"90 199 LINE",
"90 -136 LINE"
);
}
);
width = 260;
}
);
unicode = 00A6;
}
{
glyphname = cedilla;
layers = (
{
anchors = (
{
name = _bottom;
position = "{231, 0}";
}
);
background = {
paths = (
{
closed = 1;
nodes = (
"158 -83 LINE",
"172 -92 LINE",
"212 -60 OFFCURVE",
"274 -66 OFFCURVE",
"274 -128 CURVE SMOOTH",
"274 -222 OFFCURVE",
"180 -221 OFFCURVE",
"140 -147 CURVE",
"125 -152 LINE",
"173 -262 OFFCURVE",
"353 -235 OFFCURVE",
"353 -134 CURVE SMOOTH",
"353 -60 OFFCURVE",
"246 -27 OFFCURVE",
"182 -71 CURVE",
"218 -3 LINE",
"203 -2 LINE"
);
}
);
};
layerId = "C18F3EFD-FA9C-4751-AD2F-5B966120D1A5";
paths = (
{
closed = 1;
nodes = (
"165 -85 LINE",
"179 -94 LINE",
"194 -83 OFFCURVE",
"213 -77 OFFCURVE",
"230 -77 CURVE SMOOTH",
"260 -77 OFFCURVE",
"285 -94 OFFCURVE",
"285 -134 CURVE SMOOTH",
"285 -178 OFFCURVE",
"258 -202 OFFCURVE",
"226 -202 CURVE SMOOTH",
"203 -202 OFFCURVE",
"176 -189 OFFCURVE",
"156 -162 CURVE",
"140 -174 LINE",
"163 -211 OFFCURVE",
"204 -227 OFFCURVE",
"244 -227 CURVE SMOOTH",
"303 -227 OFFCURVE",
"360 -193 OFFCURVE",
"360 -136 CURVE SMOOTH",
"360 -81 OFFCURVE",
"309 -52 OFFCURVE",
"257 -52 CURVE SMOOTH",
"239 -52 OFFCURVE",
"221 -55 OFFCURVE",
"205 -62 CURVE",
"234 3 LINE",
"209 3 LINE"
);
}
);
width = 500;
},
{
anchors = (
{
name = _bottom;
position = "{239, 0}";
}
);
background = {
paths = (
{
closed = 1;
nodes = (
"155 -85 LINE",
"169 -94 LINE",
"184 -83 OFFCURVE",
"203 -77 OFFCURVE",
"220 -77 CURVE SMOOTH",
"250 -77 OFFCURVE",
"275 -94 OFFCURVE",
"275 -134 CURVE SMOOTH",
"275 -178 OFFCURVE",
"248 -202 OFFCURVE",
"216 -202 CURVE SMOOTH",
"193 -202 OFFCURVE",
"166 -189 OFFCURVE",
"146 -162 CURVE",
"130 -174 LINE",
"153 -211 OFFCURVE",
"194 -227 OFFCURVE",
"234 -227 CURVE SMOOTH",
"293 -227 OFFCURVE",
"350 -193 OFFCURVE",
"350 -136 CURVE SMOOTH",
"350 -81 OFFCURVE",
"299 -52 OFFCURVE",
"247 -52 CURVE SMOOTH",
"229 -52 OFFCURVE",
"211 -55 OFFCURVE",
"195 -62 CURVE",
"220 -5 LINE",
"195 -4 LINE"
);
}
);
};
layerId = "AA78C373-A874-4B43-A7A1-B39102DDD1E4";
paths = (
{
closed = 1;
nodes = (
"155 -85 LINE",
"169 -95 LINE",
"186 -83 OFFCURVE",
"202 -77 OFFCURVE",
"217 -77 CURVE SMOOTH",
"240 -77 OFFCURVE",
"257 -95 OFFCURVE",
"257 -134 CURVE SMOOTH",
"257 -178 OFFCURVE",
"237 -199 OFFCURVE",
"211 -199 CURVE SMOOTH",
"191 -199 OFFCURVE",
"166 -186 OFFCURVE",
"146 -161 CURVE",
"130 -175 LINE",
"153 -207 OFFCURVE",
"194 -228 OFFCURVE",
"242 -228 CURVE SMOOTH",
"327 -228 OFFCURVE",
"369 -181 OFFCURVE",
"369 -135 CURVE SMOOTH",
"369 -91 OFFCURVE",
"331 -49 OFFCURVE",
"253 -49 CURVE SMOOTH",
"234 -49 OFFCURVE",
"214 -53 OFFCURVE",
"197 -60 CURVE",
"227 8 LINE",
"201 8 LINE"
);
}
);
width = 500;
}
);
unicode = 00B8;
}
{
glyphname = cent;
layers = (
{
background = {
paths = (
{
closed = 1;
nodes = (
"147 500 OFFCURVE",
"28 430 OFFCURVE",
"28 271 CURVE SMOOTH",
"28 115 OFFCURVE",
"132 45 OFFCURVE",
"258 45 CURVE SMOOTH",
"341 45 OFFCURVE",
"420 80 OFFCURVE",
"447 156 CURVE",
"422 163 LINE",
"399 116 OFFCURVE",
"343 73 OFFCURVE",
"274 73 CURVE SMOOTH",
"201 73 OFFCURVE",
"160 111 OFFCURVE",
"160 266 CURVE SMOOTH",
"160 422 OFFCURVE",
"189 475 OFFCURVE",
"256 475 CURVE SMOOTH",
"362 475 OFFCURVE",
"277 338 OFFCURVE",
"377 338 CURVE SMOOTH",
"420 338 OFFCURVE",
"442 363 OFFCURVE",
"442 392 CURVE SMOOTH",
"442 439 OFFCURVE",
"382 500 OFFCURVE",
"259 500 CURVE SMOOTH"
);
},
{
closed = 1;
nodes = (
"237 -20 LINE",
"266 -20 LINE",
"266 565 LINE",
"237 565 LINE"
);
}
);
};
layerId = "C18F3EFD-FA9C-4751-AD2F-5B966120D1A5";
paths = (
{
closed = 1;
nodes = (
"104 500 OFFCURVE",
"40 391 OFFCURVE",
"40 273 CURVE SMOOTH",
"40 134 OFFCURVE",
"138 55 OFFCURVE",
"254 55 CURVE SMOOTH",
"335 55 OFFCURVE",
"403 94 OFFCURVE",
"431 165 CURVE",
"405 171 LINE",
"379 115 OFFCURVE",
"328 82 OFFCURVE",
"266 82 CURVE SMOOTH",
"189 82 OFFCURVE",
"125 158 OFFCURVE",
"125 282 CURVE SMOOTH",
"125 392 OFFCURVE",
"168 475 OFFCURVE",
"258 475 CURVE SMOOTH",
"369 475 OFFCURVE",
"292 358 OFFCURVE",
"372 352 CURVE SMOOTH",
"401 350 OFFCURVE",
"417 370 OFFCURVE",
"417 393 CURVE SMOOTH",
"417 453 OFFCURVE",
"334 500 OFFCURVE",
"252 500 CURVE SMOOTH"
);
},
{
closed = 1;
nodes = (
"233 -20 LINE",
"262 -20 LINE",
"262 570 LINE",
"233 570 LINE"
);
}
);
width = 461;
},
{
layerId = "AA78C373-A874-4B43-A7A1-B39102DDD1E4";
paths = (
{
closed = 1;
nodes = (
"147 500 OFFCURVE",
"28 430 OFFCURVE",
"28 271 CURVE SMOOTH",
"28 115 OFFCURVE",
"132 45 OFFCURVE",
"258 45 CURVE SMOOTH",
"341 45 OFFCURVE",
"420 80 OFFCURVE",
"447 156 CURVE",
"422 163 LINE",
"399 116 OFFCURVE",
"343 73 OFFCURVE",
"274 73 CURVE SMOOTH",
"201 73 OFFCURVE",
"160 111 OFFCURVE",
"160 266 CURVE SMOOTH",
"160 422 OFFCURVE",
"189 475 OFFCURVE",
"256 475 CURVE SMOOTH",
"362 475 OFFCURVE",
"277 338 OFFCURVE",
"377 338 CURVE SMOOTH",
"420 338 OFFCURVE",
"442 363 OFFCURVE",
"442 392 CURVE SMOOTH",
"442 439 OFFCURVE",
"382 500 OFFCURVE",
"259 500 CURVE SMOOTH"
);
},
{
closed = 1;
nodes = (
"237 -20 LINE",
"266 -20 LINE",
"266 570 LINE",
"237 570 LINE"
);
}
);
width = 467;
}
);
unicode = 00A2;
}
{
glyphname = copyright;
layers = (
{
background = {
paths = (
{
closed = 1;
nodes = (
"499 -10 OFFCURVE",
"616 117 OFFCURVE",
"616 275 CURVE SMOOTH",
"616 432 OFFCURVE",
"499 559 OFFCURVE",
"331 559 CURVE SMOOTH",
"162 559 OFFCURVE",
"45 433 OFFCURVE",
"45 275 CURVE SMOOTH",
"45 117 OFFCURVE",
"163 -10 OFFCURVE",
"331 -10 CURVE SMOOTH"
);
},
{
closed = 1;
nodes = (
"178 16 OFFCURVE",
"73 132 OFFCURVE",
"73 275 CURVE SMOOTH",
"73 418 OFFCURVE",
"175 533 OFFCURVE",
"331 533 CURVE SMOOTH",
"483 533 OFFCURVE",
"588 418 OFFCURVE",
"588 275 CURVE SMOOTH",
"588 132 OFFCURVE",
"483 16 OFFCURVE",
"331 16 CURVE SMOOTH"
);
},
{
closed = 1;
nodes = (
"217 455 OFFCURVE",
"166 367 OFFCURVE",
"166 273 CURVE SMOOTH",
"166 162 OFFCURVE",
"244 99 OFFCURVE",
"337 99 CURVE SMOOTH",
"401 99 OFFCURVE",
"455 129 OFFCURVE",
"478 184 CURVE",
"456 195 LINE",
"435 151 OFFCURVE",
"396 125 OFFCURVE",
"347 125 CURVE SMOOTH",
"291 125 OFFCURVE",
"252 181 OFFCURVE",
"252 280 CURVE SMOOTH",
"252 368 OFFCURVE",
"274 430 OFFCURVE",
"340 430 CURVE SMOOTH",
"416 430 OFFCURVE",
"355 331 OFFCURVE",
"432 331 CURVE SMOOTH",
"457 331 OFFCURVE",
"470 346 OFFCURVE",
"470 364 CURVE SMOOTH",
"470 412 OFFCURVE",
"401 455 OFFCURVE",
"336 455 CURVE SMOOTH"
);
}
);
};
layerId = "C18F3EFD-FA9C-4751-AD2F-5B966120D1A5";
paths = (
{
closed = 1;
nodes = (
"499 -10 OFFCURVE",
"616 117 OFFCURVE",
"616 275 CURVE SMOOTH",
"616 432 OFFCURVE",
"499 559 OFFCURVE",
"331 559 CURVE SMOOTH",
"162 559 OFFCURVE",
"45 433 OFFCURVE",
"45 275 CURVE SMOOTH",
"45 117 OFFCURVE",
"163 -10 OFFCURVE",
"331 -10 CURVE SMOOTH"
);
},
{
closed = 1;
nodes = (
"178 17 OFFCURVE",
"76 132 OFFCURVE",
"76 275 CURVE SMOOTH",
"76 418 OFFCURVE",
"175 532 OFFCURVE",
"331 532 CURVE SMOOTH",
"483 532 OFFCURVE",
"586 418 OFFCURVE",
"586 275 CURVE SMOOTH",
"586 132 OFFCURVE",
"483 17 OFFCURVE",
"331 17 CURVE SMOOTH"
);
},
{
closed = 1;
nodes = (
"406 455 OFFCURVE",
"336 455 CURVE SMOOTH",
"223 455 OFFCURVE",
"165 364 OFFCURVE",
"165 274 CURVE SMOOTH",
"165 186 OFFCURVE",
"222 99 OFFCURVE",
"337 99 CURVE SMOOTH",
"400 99 OFFCURVE",
"452 128 OFFCURVE",
"476 181 CURVE",
"455 190 LINE",
"432 142 OFFCURVE",
"390 125 OFFCURVE",
"352 125 CURVE SMOOTH",
"283 125 OFFCURVE",
"250 200 OFFCURVE",
"250 283 CURVE SMOOTH",
"250 362 OFFCURVE",
"281 430 OFFCURVE",
"336 430 CURVE SMOOTH",
"420 430 OFFCURVE",
"355 330 OFFCURVE",
"433 329 CURVE SMOOTH",
"459 329 OFFCURVE",
"471 344 OFFCURVE",
"471 362 CURVE SMOOTH",
"471 418 OFFCURVE"
);
}
);
width = 661;
},
{
background = {
paths = (
{
closed = 1;
nodes = (
"484 -10 OFFCURVE",
"601 117 OFFCURVE",
"601 275 CURVE SMOOTH",
"601 432 OFFCURVE",
"484 559 OFFCURVE",
"316 559 CURVE SMOOTH",
"147 559 OFFCURVE",
"30 433 OFFCURVE",
"30 275 CURVE SMOOTH",
"30 117 OFFCURVE",
"148 -10 OFFCURVE",
"316 -10 CURVE SMOOTH"
);
},
{
closed = 1;
nodes = (
"163 16 OFFCURVE",
"58 132 OFFCURVE",
"58 275 CURVE SMOOTH",
"58 418 OFFCURVE",
"160 533 OFFCURVE",
"316 533 CURVE SMOOTH",
"468 533 OFFCURVE",
"573 418 OFFCURVE",
"573 275 CURVE SMOOTH",
"573 132 OFFCURVE",
"468 16 OFFCURVE",
"316 16 CURVE SMOOTH"
);
},
{
closed = 1;
nodes = (
"391 455 OFFCURVE",
"321 455 CURVE SMOOTH",
"208 455 OFFCURVE",
"150 364 OFFCURVE",
"150 274 CURVE SMOOTH",
"150 186 OFFCURVE",
"207 99 OFFCURVE",
"322 99 CURVE SMOOTH",
"385 99 OFFCURVE",
"437 128 OFFCURVE",
"461 181 CURVE",
"440 190 LINE",
"417 142 OFFCURVE",
"375 125 OFFCURVE",
"337 125 CURVE SMOOTH",
"268 125 OFFCURVE",
"236 200 OFFCURVE",
"236 283 CURVE SMOOTH",
"236 362 OFFCURVE",
"266 430 OFFCURVE",
"321 430 CURVE SMOOTH",
"405 430 OFFCURVE",
"340 330 OFFCURVE",
"418 329 CURVE SMOOTH",
"444 329 OFFCURVE",
"456 344 OFFCURVE",
"456 362 CURVE SMOOTH",
"456 418 OFFCURVE"
);
},
{
closed = 1;
nodes = (
"391 455 OFFCURVE",
"321 455 CURVE SMOOTH",
"198 455 OFFCURVE",
"137 374 OFFCURVE",
"137 274 CURVE SMOOTH",
"137 176 OFFCURVE",
"197 99 OFFCURVE",
"322 99 CURVE SMOOTH",
"385 99 OFFCURVE",
"437 128 OFFCURVE",
"461 181 CURVE",
"438 191 LINE",
"415 145 OFFCURVE",
"375 127 OFFCURVE",
"337 127 CURVE SMOOTH",
"278 127 OFFCURVE",
"257 200 OFFCURVE",
"257 283 CURVE SMOOTH",
"257 362 OFFCURVE",
"276 430 OFFCURVE",
"321 430 CURVE SMOOTH",
"385 430 OFFCURVE",
"320 319 OFFCURVE",
"418 319 CURVE SMOOTH",
"454 319 OFFCURVE",
"466 336 OFFCURVE",
"466 362 CURVE SMOOTH",
"466 418 OFFCURVE"
);
}
);
};
layerId = "AA78C373-A874-4B43-A7A1-B39102DDD1E4";
paths = (
{
closed = 1;
nodes = (
"484 -10 OFFCURVE",
"601 117 OFFCURVE",
"601 275 CURVE SMOOTH",
"601 432 OFFCURVE",
"484 559 OFFCURVE",
"316 559 CURVE SMOOTH",
"147 559 OFFCURVE",
"30 433 OFFCURVE",
"30 275 CURVE SMOOTH",
"30 117 OFFCURVE",
"148 -10 OFFCURVE",
"316 -10 CURVE SMOOTH"
);
},
{
closed = 1;
nodes = (
"164 18 OFFCURVE",
"62 133 OFFCURVE",
"62 275 CURVE SMOOTH",
"62 417 OFFCURVE",
"161 531 OFFCURVE",
"316 531 CURVE SMOOTH",
"467 531 OFFCURVE",
"569 417 OFFCURVE",
"569 275 CURVE SMOOTH",
"569 133 OFFCURVE",
"467 18 OFFCURVE",
"316 18 CURVE SMOOTH"
);
},
{
closed = 1;
nodes = (
"397 455 OFFCURVE",
"322 455 CURVE SMOOTH",
"233 455 OFFCURVE",
"137 404 OFFCURVE",
"137 274 CURVE SMOOTH",
"137 154 OFFCURVE",
"228 97 OFFCURVE",
"317 97 CURVE SMOOTH",
"375 97 OFFCURVE",
"432 124 OFFCURVE",
"461 181 CURVE",
"438 191 LINE",
"415 145 OFFCURVE",
"375 127 OFFCURVE",
"337 127 CURVE SMOOTH",
"278 127 OFFCURVE",
"257 200 OFFCURVE",
"257 283 CURVE SMOOTH",
"257 362 OFFCURVE",
"275 430 OFFCURVE",
"320 430 CURVE SMOOTH",
"385 430 OFFCURVE",
"317 317 OFFCURVE",
"415 317 CURVE SMOOTH",
"445 317 OFFCURVE",
"466 332 OFFCURVE",
"466 362 CURVE SMOOTH",
"466 418 OFFCURVE"
);
}
);
width = 631;
}
);
unicode = 00A9;
}
{
glyphname = currency;
layers = (
{
background = {
paths = (
{
closed = 1;
nodes = (
"377 113 OFFCURVE",
"299 113 CURVE SMOOTH",
"220 113 OFFCURVE",
"141 170 OFFCURVE",
"141 283 CURVE SMOOTH",
"141 396 OFFCURVE",
"219 452 OFFCURVE",
"298 452 CURVE SMOOTH",
"376 452 OFFCURVE",
"455 396 OFFCURVE",
"455 283 CURVE SMOOTH",
"455 169 OFFCURVE"
);
},
{
closed = 1;
nodes = (
"199 80 OFFCURVE",
"297 80 CURVE SMOOTH",
"396 80 OFFCURVE",
"495 148 OFFCURVE",
"495 285 CURVE SMOOTH",
"495 418 OFFCURVE",
"398 485 OFFCURVE",
"300 485 CURVE SMOOTH",
"201 485 OFFCURVE",
"101 416 OFFCURVE",
"101 282 CURVE SMOOTH",
"101 147 OFFCURVE"
);
},
{
closed = 1;
nodes = (
"424 427 LINE",
"448 404 LINE",
"547 502 LINE",
"523 526 LINE"
);
},
{
closed = 1;
nodes = (
"55 58 LINE",
"79 35 LINE",
"178 133 LINE",
"154 157 LINE"
);
},
{
closed = 1;
nodes = (
"156 401 LINE",
"179 424 LINE",
"81 523 LINE",
"57 498 LINE"
);
},
{
closed = 1;
nodes = (
"525 31 LINE",
"548 55 LINE",
"451 154 LINE",
"426 129 LINE"
);
}
);
};
layerId = "C18F3EFD-FA9C-4751-AD2F-5B966120D1A5";
paths = (
{
closed = 1;
nodes = (
"375 110 OFFCURVE",
"297 110 CURVE SMOOTH",
"218 110 OFFCURVE",
"139 167 OFFCURVE",
"139 281 CURVE SMOOTH",
"139 393 OFFCURVE",
"217 450 OFFCURVE",
"296 450 CURVE SMOOTH",
"374 450 OFFCURVE",
"453 393 OFFCURVE",
"453 280 CURVE SMOOTH",
"453 166 OFFCURVE"
);
},
{
closed = 1;
nodes = (
"197 77 OFFCURVE",
"295 77 CURVE SMOOTH",
"394 77 OFFCURVE",
"493 146 OFFCURVE",
"493 282 CURVE SMOOTH",
"493 416 OFFCURVE",
"396 482 OFFCURVE",
"298 482 CURVE SMOOTH",
"199 482 OFFCURVE",
"99 414 OFFCURVE",
"99 279 CURVE SMOOTH",
"99 145 OFFCURVE"
);
},
{
closed = 1;
nodes = (
"418 420 LINE",
"442 396 LINE",
"540 494 LINE",
"516 519 LINE"
);
},
{
closed = 1;
nodes = (
"58 61 LINE",
"83 37 LINE",
"181 135 LINE",
"157 159 LINE"
);
},
{
closed = 1;
nodes = (
"155 398 LINE",
"179 422 LINE",
"80 520 LINE",
"56 496 LINE"
);
},
{
closed = 1;
nodes = (
"514 38 LINE",
"538 62 LINE",
"440 161 LINE",
"416 137 LINE"
);
}
);
width = 603;
},
{
background = {
paths = (
{
closed = 1;
nodes = (
"375 110 OFFCURVE",
"297 110 CURVE SMOOTH",
"218 110 OFFCURVE",
"139 167 OFFCURVE",
"139 281 CURVE SMOOTH",
"139 393 OFFCURVE",
"217 450 OFFCURVE",
"296 450 CURVE SMOOTH",
"374 450 OFFCURVE",
"453 393 OFFCURVE",
"453 280 CURVE SMOOTH",
"453 166 OFFCURVE"
);
},
{
closed = 1;
nodes = (
"197 77 OFFCURVE",
"295 77 CURVE SMOOTH",
"394 77 OFFCURVE",
"493 146 OFFCURVE",
"493 282 CURVE SMOOTH",
"493 416 OFFCURVE",
"396 482 OFFCURVE",
"298 482 CURVE SMOOTH",
"199 482 OFFCURVE",
"99 414 OFFCURVE",
"99 279 CURVE SMOOTH",
"99 145 OFFCURVE"
);
},
{
closed = 1;
nodes = (
"418 420 LINE",
"442 396 LINE",
"540 494 LINE",
"516 519 LINE"
);
},
{
closed = 1;
nodes = (
"58 61 LINE",
"83 37 LINE",
"181 135 LINE",
"157 159 LINE"
);
},
{
closed = 1;
nodes = (
"155 398 LINE",
"179 422 LINE",
"80 520 LINE",
"56 496 LINE"
);
},
{
closed = 1;
nodes = (
"514 38 LINE",
"538 62 LINE",
"440 161 LINE",
"416 137 LINE"
);
}
);
};
layerId = "AA78C373-A874-4B43-A7A1-B39102DDD1E4";
paths = (
{
closed = 1;
nodes = (
"375 111 OFFCURVE",
"297 111 CURVE SMOOTH",
"218 111 OFFCURVE",
"140 167 OFFCURVE",
"140 281 CURVE SMOOTH",
"140 393 OFFCURVE",
"217 449 OFFCURVE",
"296 449 CURVE SMOOTH",
"374 449 OFFCURVE",
"452 393 OFFCURVE",
"452 280 CURVE SMOOTH",
"452 166 OFFCURVE"
);
},
{
closed = 1;
nodes = (
"197 75 OFFCURVE",
"295 75 CURVE SMOOTH",
"394 75 OFFCURVE",
"495 146 OFFCURVE",
"495 282 CURVE SMOOTH",
"495 416 OFFCURVE",
"396 485 OFFCURVE",
"298 485 CURVE SMOOTH",
"199 485 OFFCURVE",
"97 414 OFFCURVE",
"97 279 CURVE SMOOTH",
"97 145 OFFCURVE"
);
},
{
closed = 1;
nodes = (
"417 420 LINE",
"442 394 LINE",
"541 493 LINE",
"515 519 LINE"
);
},
{
closed = 1;
nodes = (
"57 61 LINE",
"83 35 LINE",
"181 133 LINE",
"156 159 LINE"
);
},
{
closed = 1;
nodes = (
"153 397 LINE",
"179 423 LINE",
"80 520 LINE",
"55 495 LINE"
);
},
{
closed = 1;
nodes = (
"513 37 LINE",
"538 62 LINE",
"440 162 LINE",
"414 136 LINE"
);
}
);
width = 606;
}
);
unicode = 00A4;
}
{
glyphname = degree;
layers = (
{
layerId = "C18F3EFD-FA9C-4751-AD2F-5B966120D1A5";
paths = (
{
closed = 1;
nodes = (
"110 472 OFFCURVE",
"79 502 OFFCURVE",
"79 542 CURVE SMOOTH",
"79 583 OFFCURVE",
"110 617 OFFCURVE",
"149 617 CURVE SMOOTH",
"187 617 OFFCURVE",
"219 583 OFFCURVE",
"219 542 CURVE SMOOTH",
"219 503 OFFCURVE",
"188 472 OFFCURVE",
"149 472 CURVE SMOOTH"
);
},
{
closed = 1;
nodes = (
"204 446 OFFCURVE",
"248 489 OFFCURVE",
"248 542 CURVE SMOOTH",
"248 597 OFFCURVE",
"203 643 OFFCURVE",
"149 643 CURVE SMOOTH",
"94 643 OFFCURVE",
"50 597 OFFCURVE",
"50 542 CURVE SMOOTH",
"50 488 OFFCURVE",
"94 446 OFFCURVE",
"149 446 CURVE SMOOTH"
);
}
);
width = 298;
},
{
layerId = "AA78C373-A874-4B43-A7A1-B39102DDD1E4";
paths = (
{
closed = 1;
nodes = (
"101 475 OFFCURVE",
"72 505 OFFCURVE",
"72 542 CURVE SMOOTH",
"72 581 OFFCURVE",
"102 613 OFFCURVE",
"139 613 CURVE SMOOTH",
"175 613 OFFCURVE",
"206 581 OFFCURVE",
"206 542 CURVE SMOOTH",
"206 505 OFFCURVE",
"176 475 OFFCURVE",
"139 475 CURVE SMOOTH"
);
},
{
closed = 1;
nodes = (
"194 446 OFFCURVE",
"238 489 OFFCURVE",
"238 542 CURVE SMOOTH",
"238 597 OFFCURVE",
"193 643 OFFCURVE",
"139 643 CURVE SMOOTH",
"84 643 OFFCURVE",
"40 597 OFFCURVE",
"40 542 CURVE SMOOTH",
"40 488 OFFCURVE",
"84 446 OFFCURVE",
"139 446 CURVE SMOOTH"
);
}
);
width = 278;
}
);
unicode = 00B0;
}
{
glyphname = dieresis;
layers = (
{
anchors = (
{
name = _top;
position = "{250, 500}";
}
);
layerId = "C18F3EFD-FA9C-4751-AD2F-5B966120D1A5";
paths = (
{
closed = 1;
nodes = (
"187 521 OFFCURVE",
"209 542 OFFCURVE",
"209 571 CURVE SMOOTH",
"209 599 OFFCURVE",
"187 621 OFFCURVE",
"160 621 CURVE SMOOTH",
"131 621 OFFCURVE",
"109 599 OFFCURVE",
"109 571 CURVE SMOOTH",
"109 542 OFFCURVE",
"131 521 OFFCURVE",
"160 521 CURVE SMOOTH"
);
},
{
closed = 1;
nodes = (
"370 521 OFFCURVE",
"392 542 OFFCURVE",
"392 571 CURVE SMOOTH",
"392 599 OFFCURVE",
"370 621 OFFCURVE",
"342 621 CURVE SMOOTH",
"314 621 OFFCURVE",
"292 599 OFFCURVE",
"292 571 CURVE SMOOTH",
"292 542 OFFCURVE",
"314 521 OFFCURVE",
"342 521 CURVE SMOOTH"
);
}
);
width = 500;
},
{
anchors = (
{
name = _top;
position = "{251, 502}";
}
);
background = {
paths = (
{
closed = 1;
nodes = (
"184 519 OFFCURVE",
"207 541 OFFCURVE",
"207 571 CURVE SMOOTH",
"207 600 OFFCURVE",
"184 623 OFFCURVE",
"156 623 CURVE SMOOTH",
"126 623 OFFCURVE",
"103 600 OFFCURVE",
"103 571 CURVE SMOOTH",
"103 541 OFFCURVE",
"126 519 OFFCURVE",
"156 519 CURVE SMOOTH"
);
},
{
closed = 1;
nodes = (
"375 519 OFFCURVE",
"398 541 OFFCURVE",
"398 571 CURVE SMOOTH",
"398 600 OFFCURVE",
"375 623 OFFCURVE",
"346 623 CURVE SMOOTH",
"317 623 OFFCURVE",
"294 600 OFFCURVE",
"294 571 CURVE SMOOTH",
"294 541 OFFCURVE",
"317 519 OFFCURVE",
"346 519 CURVE SMOOTH"
);
}
);
};
layerId = "AA78C373-A874-4B43-A7A1-B39102DDD1E4";
paths = (
{
closed = 1;
nodes = (
"193 503 OFFCURVE",
"224 532 OFFCURVE",
"224 569 CURVE SMOOTH",
"224 607 OFFCURVE",
"193 637 OFFCURVE",
"157 637 CURVE SMOOTH",
"119 637 OFFCURVE",
"89 607 OFFCURVE",
"89 569 CURVE SMOOTH",
"89 532 OFFCURVE",
"119 503 OFFCURVE",
"157 503 CURVE SMOOTH"
);
},
{
closed = 1;
nodes = (
"380 503 OFFCURVE",
"411 532 OFFCURVE",
"411 569 CURVE SMOOTH",
"411 607 OFFCURVE",
"380 637 OFFCURVE",
"342 637 CURVE SMOOTH",
"306 637 OFFCURVE",
"276 607 OFFCURVE",
"276 569 CURVE SMOOTH",
"276 532 OFFCURVE",
"306 503 OFFCURVE",
"342 503 CURVE SMOOTH"
);
}
);
width = 500;
}
);
unicode = 00A8;
}
{
glyphname = eth;
layers = (
{
background = {
paths = (
{
closed = 1;
nodes = (
"166 17 OFFCURVE",
"125 94 OFFCURVE",
"125 198 CURVE SMOOTH",
"125 303 OFFCURVE",
"166 378 OFFCURVE",
"256 378 CURVE SMOOTH",
"350 378 OFFCURVE",
"388 303 OFFCURVE",
"388 202 CURVE SMOOTH",
"388 96 OFFCURVE",
"350 17 OFFCURVE",
"259 17 CURVE SMOOTH"
);
},
{
closed = 1;
nodes = (
"473 334 OFFCURVE",
"366 403 OFFCURVE",
"259 403 CURVE SMOOTH",
"151 403 OFFCURVE",
"40 332 OFFCURVE",
"40 202 CURVE SMOOTH",
"40 65 OFFCURVE",
"148 -8 OFFCURVE",
"256 -8 CURVE SMOOTH",
"364 -8 OFFCURVE",
"473 66 OFFCURVE",
"473 198 CURVE SMOOTH"
);
}
);
};
layerId = "C18F3EFD-FA9C-4751-AD2F-5B966120D1A5";
paths = (
{
closed = 1;
nodes = (
"405 -10 OFFCURVE",
"474 109 OFFCURVE",
"474 246 CURVE SMOOTH",
"474 432 OFFCURVE",
"347 640 OFFCURVE",
"116 650 CURVE",
"113 623 LINE",
"286 611 OFFCURVE",
"351 468 OFFCURVE",
"371 340 CURVE",
"405 341 LINE",
"365 384 OFFCURVE",
"311 403 OFFCURVE",
"257 403 CURVE SMOOTH",
"149 403 OFFCURVE",
"40 327 OFFCURVE",
"40 200 CURVE SMOOTH",
"40 63 OFFCURVE",
"148 -10 OFFCURVE",
"256 -10 CURVE SMOOTH"
);
},
{
closed = 1;
nodes = (
"166 15 OFFCURVE",
"125 92 OFFCURVE",
"125 196 CURVE SMOOTH",
"125 320 OFFCURVE",
"182 378 OFFCURVE",
"259 378 CURVE SMOOTH",
"333 378 OFFCURVE",
"391 321 OFFCURVE",
"391 201 CURVE SMOOTH",
"391 114 OFFCURVE",
"352 15 OFFCURVE",
"259 15 CURVE SMOOTH"
);
},
{
closed = 1;
nodes = (
"411 627 LINE",
"396 653 LINE",
"130 504 LINE",
"146 476 LINE"
);
}
);
width = 519;
},
{
background = {
paths = (
{
closed = 1;
nodes = (
"146 476 LINE",
"411 627 LINE",
"396 653 LINE",
"130 504 LINE"
);
},
{
closed = 1;
nodes = (
"179 14 OFFCURVE",
"167 77 OFFCURVE",
"167 197 CURVE SMOOTH",
"167 320 OFFCURVE",
"183 380 OFFCURVE",
"260 380 CURVE SMOOTH",
"340 380 OFFCURVE",
"354 320 OFFCURVE",
"354 201 CURVE SMOOTH",
"354 78 OFFCURVE",
"336 14 OFFCURVE",
"259 14 CURVE SMOOTH"
);
},
{
closed = 1;
nodes = (
"382 370 OFFCURVE",
"319 405 OFFCURVE",
"265 405 CURVE SMOOTH",
"125 405 OFFCURVE",
"30 319 OFFCURVE",
"30 201 CURVE SMOOTH",
"30 83 OFFCURVE",
"121 -11 OFFCURVE",
"256 -11 CURVE SMOOTH",
"416 -11 OFFCURVE",
"491 108 OFFCURVE",
"491 244 CURVE SMOOTH",
"491 426 OFFCURVE",
"358 640 OFFCURVE",
"116 650 CURVE",
"113 623 LINE",
"297 607 OFFCURVE",
"331 468 OFFCURVE",
"351 340 CURVE",
"405 341 LINE"
);
}
);
};
layerId = "AA78C373-A874-4B43-A7A1-B39102DDD1E4";
paths = (
{
closed = 1;
nodes = (
"415 -11 OFFCURVE",
"490 107 OFFCURVE",
"490 244 CURVE SMOOTH",
"490 426 OFFCURVE",
"367 640 OFFCURVE",
"116 650 CURVE",
"113 623 LINE",
"307 605 OFFCURVE",
"331 468 OFFCURVE",
"351 340 CURVE",
"405 341 LINE",
"368 385 OFFCURVE",
"313 405 OFFCURVE",
"256 405 CURVE SMOOTH",
"140 405 OFFCURVE",
"30 329 OFFCURVE",
"30 201 CURVE SMOOTH",
"30 83 OFFCURVE",
"121 -11 OFFCURVE",
"256 -11 CURVE SMOOTH"
);
},
{
closed = 1;
nodes = (
"179 14 OFFCURVE",
"167 77 OFFCURVE",
"167 197 CURVE SMOOTH",
"167 320 OFFCURVE",
"183 380 OFFCURVE",
"260 380 CURVE SMOOTH",
"340 380 OFFCURVE",
"354 320 OFFCURVE",
"354 201 CURVE SMOOTH",
"354 78 OFFCURVE",
"336 14 OFFCURVE",
"259 14 CURVE SMOOTH"
);
},
{
closed = 1;
nodes = (
"411 627 LINE",
"396 653 LINE",
"130 504 LINE",
"146 476 LINE"
);
}
);
width = 600;
}
);
unicode = 00F0;
}
{
glyphname = germandbls;
layers = (
{
background = {
paths = (
{
closed = 1;
nodes = (
"182 431 LINE",
"107 441 LINE",
"107 78 LINE SMOOTH",
"107 36 OFFCURVE",
"73 26 OFFCURVE",
"31 26 CURVE",
"31 0 LINE",
"182 0 LINE"
);
},
{
closed = 1;
nodes = (
"36 399 LINE",
"158 399 LINE",
"158 425 LINE",
"36 425 LINE"
);
},
{
closed = 1;
nodes = (
"308 -9 OFFCURVE",
"376 -9 CURVE SMOOTH",
"448 -9 OFFCURVE",
"523 35 OFFCURVE",
"523 119 CURVE SMOOTH",
"523 257 OFFCURVE",
"342 276 OFFCURVE",
"342 363 CURVE SMOOTH",
"342 438 OFFCURVE",
"468 423 OFFCURVE",
"468 530 CURVE SMOOTH",
"468 607 OFFCURVE",
"391 648 OFFCURVE",
"299 648 CURVE SMOOTH",
"185 648 OFFCURVE",
"107 597 OFFCURVE",
"107 441 CURVE",
"182 431 LINE",
"182 583 OFFCURVE",
"221 627 OFFCURVE",
"297 627 CURVE SMOOTH",
"352 627 OFFCURVE",
"390 602 OFFCURVE",
"390 520 CURVE SMOOTH",
"390 412 OFFCURVE",
"272 435 OFFCURVE",
"272 342 CURVE SMOOTH",
"272 222 OFFCURVE",
"453 202 OFFCURVE",
"453 102 CURVE SMOOTH",
"453 47 OFFCURVE",
"423 13 OFFCURVE",
"382 13 CURVE SMOOTH",
"308 13 OFFCURVE",
"337 103 OFFCURVE",
"282 103 CURVE SMOOTH",
"256 103 OFFCURVE",
"243 86 OFFCURVE",
"243 66 CURVE SMOOTH",
"243 20 OFFCURVE"
);
}
);
};
layerId = "C18F3EFD-FA9C-4751-AD2F-5B966120D1A5";
paths = (
{
closed = 1;
nodes = (
"448 -9 OFFCURVE",
"523 35 OFFCURVE",
"523 119 CURVE SMOOTH",
"523 257 OFFCURVE",
"342 276 OFFCURVE",
"342 363 CURVE SMOOTH",
"342 438 OFFCURVE",
"468 423 OFFCURVE",
"468 530 CURVE SMOOTH",
"468 598 OFFCURVE",
"393 648 OFFCURVE",
"296 648 CURVE SMOOTH",
"193 648 OFFCURVE",
"107 592 OFFCURVE",
"107 441 CURVE SMOOTH",
"107 78 LINE SMOOTH",
"107 36 OFFCURVE",
"73 26 OFFCURVE",
"31 26 CURVE",
"31 0 LINE",
"182 0 LINE",
"182 431 LINE SMOOTH",
"182 577 OFFCURVE",
"220 627 OFFCURVE",
"292 627 CURVE SMOOTH",
"352 627 OFFCURVE",
"390 582 OFFCURVE",
"390 520 CURVE SMOOTH",
"390 412 OFFCURVE",
"272 435 OFFCURVE",
"272 342 CURVE SMOOTH",
"272 222 OFFCURVE",
"453 202 OFFCURVE",
"453 102 CURVE SMOOTH",
"453 47 OFFCURVE",
"423 13 OFFCURVE",
"382 13 CURVE SMOOTH",
"308 13 OFFCURVE",
"337 103 OFFCURVE",
"282 103 CURVE SMOOTH",
"256 103 OFFCURVE",
"243 86 OFFCURVE",
"243 66 CURVE SMOOTH",
"243 20 OFFCURVE",
"308 -9 OFFCURVE",
"376 -9 CURVE SMOOTH"
);
},
{
closed = 1;
nodes = (
"158 399 LINE",
"158 425 LINE",
"36 425 LINE",
"36 399 LINE"
);
}
);
width = 543;
},
{
background = {
paths = (
{
closed = 1;
nodes = (
"181 431 LINE",
"106 441 LINE",
"106 78 LINE SMOOTH",
"106 36 OFFCURVE",
"72 26 OFFCURVE",
"30 26 CURVE",
"30 0 LINE",
"181 0 LINE"
);
},
{
closed = 1;
nodes = (
"35 399 LINE",
"157 399 LINE",
"157 425 LINE",
"35 425 LINE"
);
},
{
closed = 1;
nodes = (
"242 20 OFFCURVE",
"307 -9 OFFCURVE",
"375 -9 CURVE SMOOTH",
"447 -9 OFFCURVE",
"522 35 OFFCURVE",
"522 119 CURVE SMOOTH",
"522 257 OFFCURVE",
"341 276 OFFCURVE",
"341 363 CURVE SMOOTH",
"341 438 OFFCURVE",
"467 423 OFFCURVE",
"467 530 CURVE SMOOTH",
"467 598 OFFCURVE",
"392 648 OFFCURVE",
"295 648 CURVE SMOOTH",
"192 648 OFFCURVE",
"106 592 OFFCURVE",
"106 441 CURVE",
"181 431 LINE",
"181 574 OFFCURVE",
"227 627 OFFCURVE",
"291 627 CURVE SMOOTH",
"351 627 OFFCURVE",
"389 582 OFFCURVE",
"389 520 CURVE SMOOTH",
"389 412 OFFCURVE",
"271 435 OFFCURVE",
"271 342 CURVE SMOOTH",
"271 222 OFFCURVE",
"452 202 OFFCURVE",
"452 102 CURVE SMOOTH",
"452 47 OFFCURVE",
"422 13 OFFCURVE",
"381 13 CURVE SMOOTH",
"307 13 OFFCURVE",
"336 103 OFFCURVE",
"281 103 CURVE SMOOTH",
"255 103 OFFCURVE",
"242 86 OFFCURVE",
"242 66 CURVE SMOOTH"
);
},
{
closed = 0;
nodes = (
"421 23 LINE SMOOTH",
"366 23 OFFCURVE",
"382 138 OFFCURVE",
"314 138 CURVE SMOOTH",
"280 138 OFFCURVE",
"257 116 OFFCURVE",
"257 89 CURVE SMOOTH",
"257 47 OFFCURVE",
"303 0 OFFCURVE",
"401 0 CURVE SMOOTH"
);
}
);
};
layerId = "AA78C373-A874-4B43-A7A1-B39102DDD1E4";
paths = (
{
closed = 1;
nodes = (
"513 -10 OFFCURVE",
"594 37 OFFCURVE",
"594 119 CURVE SMOOTH",
"594 278 OFFCURVE",
"395 275 OFFCURVE",
"395 363 CURVE SMOOTH",
"395 444 OFFCURVE",
"531 420 OFFCURVE",
"531 516 CURVE SMOOTH",
"531 603 OFFCURVE",
"439 650 OFFCURVE",
"330 650 CURVE SMOOTH",
"210 650 OFFCURVE",
"101 591 OFFCURVE",
"101 443 CURVE SMOOTH",
"101 78 LINE SMOOTH",
"101 36 OFFCURVE",
"67 26 OFFCURVE",
"25 26 CURVE",
"25 0 LINE",
"228 0 LINE",
"228 435 LINE SMOOTH",
"228 590 OFFCURVE",
"267 627 OFFCURVE",
"322 627 CURVE SMOOTH",
"377 627 OFFCURVE",
"401 581 OFFCURVE",
"401 512 CURVE SMOOTH",
"401 405 OFFCURVE",
"280 440 OFFCURVE",
"280 327 CURVE SMOOTH",
"280 205 OFFCURVE",
"479 197 OFFCURVE",
"479 75 CURVE SMOOTH",
"479 35 OFFCURVE",
"455 18 OFFCURVE",
"416 18 CURVE SMOOTH",
"343 18 OFFCURVE",
"381 138 OFFCURVE",
"314 138 CURVE SMOOTH",
"280 138 OFFCURVE",
"257 117 OFFCURVE",
"257 89 CURVE SMOOTH",
"257 26 OFFCURVE",
"336 -10 OFFCURVE",
"427 -10 CURVE SMOOTH"
);
},
{
closed = 1;
nodes = (
"184 404 LINE",
"184 430 LINE",
"20 430 LINE",
"20 404 LINE"
);
}
);
width = 609;
}
);
leftKerningGroup = f;
leftMetricsKey = f;
rightKerningGroup = s;
unicode = 00DF;
}
{
glyphname = guillemotleft;
layers = (
{
background = {
paths = (
{
closed = 1;
nodes = (
"84 250 OFFCURVE",
"60 255 OFFCURVE",
"40 238 CURVE SMOOTH",
"21 223 OFFCURVE",
"18 198 OFFCURVE",
"36 179 CURVE SMOOTH",
"55 154 OFFCURVE",
"146 85 OFFCURVE",
"195 33 CURVE",
"217 50 LINE",
"175 106 OFFCURVE",
"120 208 OFFCURVE",
"98 232 CURVE SMOOTH"
);
},
{
closed = 1;
nodes = (
"20 216 OFFCURVE",
"19 193 OFFCURVE",
"39 175 CURVE SMOOTH",
"58 160 OFFCURVE",
"82 161 OFFCURVE",
"98 181 CURVE SMOOTH",
"119 205 OFFCURVE",
"171 306 OFFCURVE",
"214 364 CURVE",
"193 382 LINE",
"147 331 OFFCURVE",
"55 259 OFFCURVE",
"35 233 CURVE SMOOTH"
);
}
);
};
layerId = "C18F3EFD-FA9C-4751-AD2F-5B966120D1A5";
paths = (
{
closed = 1;
nodes = (
"137 250 OFFCURVE",
"182 328 OFFCURVE",
"219 378 CURVE",
"201 395 LINE",
"150 340 OFFCURVE",
"65 264 OFFCURVE",
"38 235 CURVE SMOOTH",
"30 226 OFFCURVE",
"25 216 OFFCURVE",
"25 205 CURVE SMOOTH",
"25 194 OFFCURVE",
"29 183 OFFCURVE",
"38 173 CURVE SMOOTH",
"61 146 OFFCURVE",
"146 72 OFFCURVE",
"201 16 CURVE",
"219 32 LINE",
"183 80 OFFCURVE",
"138 160 OFFCURVE",
"108 205 CURVE"
);
},
{
closed = 1;
nodes = (
"307 250 OFFCURVE",
"352 328 OFFCURVE",
"389 378 CURVE",
"371 395 LINE",
"320 340 OFFCURVE",
"235 264 OFFCURVE",
"208 235 CURVE SMOOTH",
"200 226 OFFCURVE",
"195 216 OFFCURVE",
"195 205 CURVE SMOOTH",
"195 194 OFFCURVE",
"199 183 OFFCURVE",
"208 173 CURVE SMOOTH",
"231 146 OFFCURVE",
"316 72 OFFCURVE",
"371 16 CURVE",
"389 32 LINE",
"353 80 OFFCURVE",
"308 160 OFFCURVE",
"278 205 CURVE"
);
}
);
width = 414;
},
{
background = {
paths = (
{
closed = 1;
nodes = (
"127 250 OFFCURVE",
"172 328 OFFCURVE",
"209 378 CURVE",
"191 395 LINE",
"140 340 OFFCURVE",
"55 264 OFFCURVE",
"28 235 CURVE SMOOTH",
"20 226 OFFCURVE",
"15 216 OFFCURVE",
"15 205 CURVE SMOOTH",
"15 194 OFFCURVE",
"19 183 OFFCURVE",
"28 173 CURVE SMOOTH",
"51 146 OFFCURVE",
"136 72 OFFCURVE",
"191 16 CURVE",
"209 32 LINE",
"173 80 OFFCURVE",
"128 160 OFFCURVE",
"98 205 CURVE"
);
},
{
closed = 1;
nodes = (
"297 250 OFFCURVE",
"342 328 OFFCURVE",
"379 378 CURVE",
"361 395 LINE",
"310 340 OFFCURVE",
"225 264 OFFCURVE",
"198 235 CURVE SMOOTH",
"190 226 OFFCURVE",
"185 216 OFFCURVE",
"185 205 CURVE SMOOTH",
"185 194 OFFCURVE",
"189 183 OFFCURVE",
"198 173 CURVE SMOOTH",
"221 146 OFFCURVE",
"306 72 OFFCURVE",
"361 16 CURVE",
"379 32 LINE",
"343 80 OFFCURVE",
"298 160 OFFCURVE",
"268 205 CURVE"
);
}
);
};
layerId = "AA78C373-A874-4B43-A7A1-B39102DDD1E4";
paths = (
{
closed = 1;
nodes = (
"156 250 OFFCURVE",
"184 318 OFFCURVE",
"216 378 CURVE",
"195 395 LINE",
"140 336 OFFCURVE",
"57 271 OFFCURVE",
"31 240 CURVE SMOOTH",
"20 228 OFFCURVE",
"15 216 OFFCURVE",
"15 204 CURVE SMOOTH",
"15 192 OFFCURVE",
"20 180 OFFCURVE",
"31 168 CURVE SMOOTH",
"55 140 OFFCURVE",
"136 74 OFFCURVE",
"195 14 CURVE",
"215 32 LINE",
"184 90 OFFCURVE",
"157 159 OFFCURVE",
"136 205 CURVE"
);
},
{
closed = 1;
nodes = (
"346 250 OFFCURVE",
"374 318 OFFCURVE",
"406 378 CURVE",
"385 395 LINE",
"330 336 OFFCURVE",
"247 271 OFFCURVE",
"220 240 CURVE SMOOTH",
"210 228 OFFCURVE",
"205 216 OFFCURVE",
"205 204 CURVE SMOOTH",
"205 192 OFFCURVE",
"210 180 OFFCURVE",
"220 168 CURVE SMOOTH",
"245 140 OFFCURVE",
"326 74 OFFCURVE",
"385 14 CURVE",
"405 32 LINE",
"374 90 OFFCURVE",
"347 159 OFFCURVE",
"325 205 CURVE"
);
}
);
width = 421;
}
);
unicode = 00AB;
}
{
glyphname = idieresis;
layers = (
{
components = (
{
name = dotlessi;
}
);
layerId = "C18F3EFD-FA9C-4751-AD2F-5B966120D1A5";
paths = (
{
closed = 1;
nodes = (
"91 521 OFFCURVE",
"113 542 OFFCURVE",
"113 571 CURVE SMOOTH",
"113 599 OFFCURVE",
"91 621 OFFCURVE",
"64 621 CURVE SMOOTH",
"35 621 OFFCURVE",
"13 599 OFFCURVE",
"13 571 CURVE SMOOTH",
"13 542 OFFCURVE",
"35 521 OFFCURVE",
"64 521 CURVE SMOOTH"
);
},
{
closed = 1;
nodes = (
"254 521 OFFCURVE",
"276 542 OFFCURVE",
"276 571 CURVE SMOOTH",
"276 599 OFFCURVE",
"254 621 OFFCURVE",
"226 621 CURVE SMOOTH",
"198 621 OFFCURVE",
"176 599 OFFCURVE",
"176 571 CURVE SMOOTH",
"176 542 OFFCURVE",
"198 521 OFFCURVE",
"226 521 CURVE SMOOTH"
);
}
);
width = 287;
},
{
components = (
{
name = dotlessi;
}
);
layerId = "AA78C373-A874-4B43-A7A1-B39102DDD1E4";
paths = (
{
closed = 1;
nodes = (
"91 504 OFFCURVE",
"121 532 OFFCURVE",
"121 567 CURVE SMOOTH",
"121 603 OFFCURVE",
"91 632 OFFCURVE",
"57 632 CURVE SMOOTH",
"21 632 OFFCURVE",
"-8 603 OFFCURVE",
"-8 567 CURVE SMOOTH",
"-8 532 OFFCURVE",
"21 504 OFFCURVE",
"57 504 CURVE SMOOTH"
);
},
{
closed = 1;
nodes = (
"260 504 OFFCURVE",
"290 532 OFFCURVE",
"290 567 CURVE SMOOTH",
"290 603 OFFCURVE",
"260 632 OFFCURVE",
"224 632 CURVE SMOOTH",
"190 632 OFFCURVE",
"161 603 OFFCURVE",
"161 567 CURVE SMOOTH",
"161 532 OFFCURVE",
"190 504 OFFCURVE",
"224 504 CURVE SMOOTH"
);
}
);
width = 283;
}
);
unicode = 00EF;
}
{
glyphname = logicalnot;
layers = (
{
background = {
paths = (
{
closed = 1;
nodes = (
"433 298 LINE",
"433 340 LINE",
"45 340 LINE",
"45 298 LINE"
);
},
{
closed = 1;
nodes = (
"410 108 LINE",
"465 108 LINE",
"465 340 LINE",
"410 340 LINE"
);
}
);
};
layerId = "C18F3EFD-FA9C-4751-AD2F-5B966120D1A5";
paths = (
{
closed = 1;
nodes = (
"424 296 LINE",
"424 332 LINE",
"45 332 LINE",
"45 296 LINE"
);
},
{
closed = 1;
nodes = (
"402 118 LINE",
"447 118 LINE",
"447 332 LINE",
"402 332 LINE"
);
}
);
width = 492;
},
{
layerId = "AA78C373-A874-4B43-A7A1-B39102DDD1E4";
paths = (
{
closed = 1;
nodes = (
"418 298 LINE",
"418 340 LINE",
"30 340 LINE",
"30 298 LINE"
);
},
{
closed = 1;
nodes = (
"395 108 LINE",
"450 108 LINE",
"450 340 LINE",
"395 340 LINE"
);
}
);
width = 480;
}
);
unicode = 00AC;
}
{
glyphname = macron;
layers = (
{
anchors = (
{
name = _top;
position = "{248, 500}";
}
);
layerId = "C18F3EFD-FA9C-4751-AD2F-5B966120D1A5";
paths = (
{
closed = 1;
nodes = (
"100 540 LINE",
"400 540 LINE",
"400 590 LINE",
"100 590 LINE"
);
}
);
width = 500;
},
{
anchors = (
{
name = _top;
position = "{248, 500}";
}
);
layerId = "AA78C373-A874-4B43-A7A1-B39102DDD1E4";
paths = (
{
closed = 1;
nodes = (
"90 540 LINE",
"410 540 LINE",
"410 595 LINE",
"90 595 LINE"
);
}
);
width = 500;
}
);
unicode = 00AF;
}
{
glyphname = multiply;
layers = (
{
background = {
paths = (
{
closed = 1;
nodes = (
"400 215 LINE",
"400 253 LINE",
"1 253 LINE",
"1 215 LINE"
);
},
{
closed = 1;
nodes = (
"182 35 LINE",
"220 35 LINE",
"219 434 LINE",
"181 434 LINE"
);
}
);
};
layerId = "C18F3EFD-FA9C-4751-AD2F-5B966120D1A5";
paths = (
{
closed = 1;
nodes = (
"327 79 LINE",
"355 107 LINE",
"73 389 LINE",
"45 361 LINE"
);
},
{
closed = 1;
nodes = (
"46 107 LINE",
"73 80 LINE",
"355 362 LINE",
"328 389 LINE"
);
}
);
width = 400;
},
{
layerId = "AA78C373-A874-4B43-A7A1-B39102DDD1E4";
paths = (
{
closed = 1;
nodes = (
"328 74 LINE",
"359 105 LINE",
"71 394 LINE",
"40 363 LINE"
);
},
{
closed = 1;
nodes = (
"41 105 LINE",
"70 75 LINE",
"359 364 LINE",
"330 394 LINE"
);
}
);
width = 404;
}
);
unicode = 00D7;
}
{
glyphname = onehalf;
layers = (
{
components = (
{
alignment = -1;
name = one.numr;
transform = "{1, 0, 0, 1, 30, 289}";
},
{
name = two.numr;
transform = "{1, 0, 0, 1, 415, 0}";
}
);
layerId = "C18F3EFD-FA9C-4751-AD2F-5B966120D1A5";
paths = (
{
closed = 1;
nodes = (
"169 -29 LINE",
"606 610 LINE",
"577 630 LINE",
"139 -10 LINE"
);
}
);
width = 734;
},
{
components = (
{
alignment = -1;
name = one.numr;
transform = "{1, 0, 0, 1, 30, 289}";
},
{
name = two.numr;
transform = "{1, 0, 0, 1, 441, 0}";
}
);
layerId = "AA78C373-A874-4B43-A7A1-B39102DDD1E4";
paths = (
{
closed = 1;
nodes = (
"197 -33 LINE",
"626 610 LINE",
"589 633 LINE",
"159 -10 LINE"
);
}
);
width = 786;
}
);
leftMetricsKey = onequarter;
unicode = 00BD;
}
{
glyphname = onequarter;
layers = (
{
background = {
paths = (
{
closed = 1;
nodes = (
"177 612 LINE",
"40 515 LINE",
"55 493 LINE",
"155 562 LINE",
"155 318 LINE",
"71 311 LINE",
"71 291 LINE",
"304 291 LINE",
"304 307 OFFCURVE",
"299 310 OFFCURVE",
"282 312 CURVE SMOOTH",
"225 318 LINE",
"225 612 LINE"
);
}
);
};
components = (
{
alignment = -1;
name = fraction;
transform = "{1, 0, 0, 1, 289, 0}";
},
{
alignment = -1;
name = one.numr;
transform = "{1, 0, 0, 1, 30, 289}";
},
{
alignment = -1;
name = four.numr;
transform = "{1, 0, 0, 1, 359, 10}";
}
);
layerId = "C18F3EFD-FA9C-4751-AD2F-5B966120D1A5";
width = 724;
},
{
components = (
{
alignment = -1;
name = fraction;
transform = "{1, 0, 0, 1, 311, 0}";
},
{
alignment = -1;
name = one.numr;
transform = "{1, 0, 0, 1, 30, 289}";
},
{
alignment = -1;
name = four.numr;
transform = "{1, 0, 0, 1, 334, 20}";
}
);
layerId = "AA78C373-A874-4B43-A7A1-B39102DDD1E4";
width = 764;
}
);
unicode = 00BC;
}
{
glyphname = ordfeminine;
layers = (
{
background = {
paths = (
{
closed = 1;
nodes = (
"22 244 LINE",
"274 244 LINE",
"274 283 LINE",
"22 283 LINE"
);
},
{
closed = 1;
nodes = (
"129 331 OFFCURVE",
"161 353 OFFCURVE",
"172 390 CURVE",
"170 390 LINE",
"175 353 OFFCURVE",
"196 331 OFFCURVE",
"232 331 CURVE SMOOTH",
"278 331 OFFCURVE",
"288 355 OFFCURVE",
"291 393 CURVE",
"274 393 LINE",
"272 363 OFFCURVE",
"264 351 OFFCURVE",
"254 351 CURVE SMOOTH",
"245 351 OFFCURVE",
"242 361 OFFCURVE",
"242 382 CURVE SMOOTH",
"242 505 LINE SMOOTH",
"242 575 OFFCURVE",
"193 600 OFFCURVE",
"135 600 CURVE SMOOTH",
"63 600 OFFCURVE",
"29 578 OFFCURVE",
"29 546 CURVE SMOOTH",
"29 528 OFFCURVE",
"42 515 OFFCURVE",
"61 515 CURVE SMOOTH",
"114 515 OFFCURVE",
"84 586 OFFCURVE",
"131 586 CURVE SMOOTH",
"157 586 OFFCURVE",
"166 563 OFFCURVE",
"166 520 CURVE SMOOTH",
"166 408 LINE",
"157 376 OFFCURVE",
"138 356 OFFCURVE",
"120 356 CURVE SMOOTH",
"102 356 OFFCURVE",
"91 374 OFFCURVE",
"91 408 CURVE SMOOTH",
"91 449 OFFCURVE",
"110 466 OFFCURVE",
"174 466 CURVE",
"174 484 LINE",
"66 484 OFFCURVE",
"13 455 OFFCURVE",
"13 402 CURVE SMOOTH",
"13 354 OFFCURVE",
"46 331 OFFCURVE",
"90 331 CURVE SMOOTH"
);
}
);
};
layerId = "C18F3EFD-FA9C-4751-AD2F-5B966120D1A5";
paths = (
{
closed = 1;
nodes = (
"279 244 LINE",
"279 279 LINE",
"27 279 LINE",
"27 244 LINE"
);
},
{
closed = 1;
nodes = (
"268 331 OFFCURVE",
"289 351 OFFCURVE",
"291 395 CURVE",
"272 395 LINE",
"269 365 OFFCURVE",
"261 357 OFFCURVE",
"252 357 CURVE SMOOTH",
"242 357 OFFCURVE",
"237 364 OFFCURVE",
"237 384 CURVE SMOOTH",
"237 506 LINE SMOOTH",
"237 578 OFFCURVE",
"187 600 OFFCURVE",
"128 600 CURVE SMOOTH",
"73 600 OFFCURVE",
"30 577 OFFCURVE",
"30 542 CURVE SMOOTH",
"30 522 OFFCURVE",
"44 513 OFFCURVE",
"61 513 CURVE SMOOTH",
"115 513 OFFCURVE",
"76 580 OFFCURVE",
"131 580 CURVE SMOOTH",
"165 580 OFFCURVE",
"177 554 OFFCURVE",
"177 510 CURVE SMOOTH",
"177 428 LINE",
"167 393 OFFCURVE",
"143 362 OFFCURVE",
"113 362 CURVE SMOOTH",
"92 362 OFFCURVE",
"79 380 OFFCURVE",
"79 409 CURVE SMOOTH",
"79 439 OFFCURVE",
"98 463 OFFCURVE",
"182 463 CURVE",
"182 483 LINE",
"65 483 OFFCURVE",
"15 463 OFFCURVE",
"15 402 CURVE SMOOTH",
"15 354 OFFCURVE",
"52 330 OFFCURVE",
"92 330 CURVE SMOOTH",
"136 330 OFFCURVE",
"167 358 OFFCURVE",
"179 394 CURVE",
"175 394 LINE",
"178 355 OFFCURVE",
"201 331 OFFCURVE",
"237 331 CURVE SMOOTH"
);
}
);
width = 311;
},
{
background = {
paths = (
{
closed = 1;
nodes = (
"32 246 LINE",
"284 246 LINE",
"284 281 LINE",
"32 281 LINE"
);
},
{
closed = 1;
nodes = (
"141 325 OFFCURVE",
"172 353 OFFCURVE",
"184 389 CURVE",
"181 389 LINE",
"184 350 OFFCURVE",
"206 326 OFFCURVE",
"242 326 CURVE SMOOTH",
"273 326 OFFCURVE",
"294 346 OFFCURVE",
"296 390 CURVE",
"277 390 LINE",
"274 360 OFFCURVE",
"266 352 OFFCURVE",
"257 352 CURVE SMOOTH",
"247 352 OFFCURVE",
"242 359 OFFCURVE",
"242 379 CURVE SMOOTH",
"242 501 LINE SMOOTH",
"242 573 OFFCURVE",
"192 595 OFFCURVE",
"133 595 CURVE SMOOTH",
"78 595 OFFCURVE",
"35 572 OFFCURVE",
"35 537 CURVE SMOOTH",
"35 517 OFFCURVE",
"49 508 OFFCURVE",
"66 508 CURVE SMOOTH",
"120 508 OFFCURVE",
"81 575 OFFCURVE",
"136 575 CURVE SMOOTH",
"170 575 OFFCURVE",
"182 549 OFFCURVE",
"182 505 CURVE SMOOTH",
"182 423 LINE",
"172 388 OFFCURVE",
"148 357 OFFCURVE",
"118 357 CURVE SMOOTH",
"97 357 OFFCURVE",
"84 375 OFFCURVE",
"84 404 CURVE SMOOTH",
"84 434 OFFCURVE",
"103 458 OFFCURVE",
"187 458 CURVE",
"187 478 LINE",
"70 478 OFFCURVE",
"20 458 OFFCURVE",
"20 397 CURVE SMOOTH",
"20 349 OFFCURVE",
"57 325 OFFCURVE",
"97 325 CURVE SMOOTH"
);
},
{
closed = 1;
nodes = (
"130 324 OFFCURVE",
"162 346 OFFCURVE",
"173 384 CURVE",
"167 384 LINE",
"173 346 OFFCURVE",
"196 324 OFFCURVE",
"232 324 CURVE SMOOTH",
"281 324 OFFCURVE",
"293 351 OFFCURVE",
"296 389 CURVE",
"277 389 LINE",
"275 362 OFFCURVE",
"266 352 OFFCURVE",
"256 352 CURVE SMOOTH",
"247 352 OFFCURVE",
"244 362 OFFCURVE",
"244 382 CURVE SMOOTH",
"244 502 LINE SMOOTH",
"244 573 OFFCURVE",
"196 600 OFFCURVE",
"133 600 CURVE SMOOTH",
"60 600 OFFCURVE",
"21 576 OFFCURVE",
"21 545 CURVE SMOOTH",
"21 525 OFFCURVE",
"35 513 OFFCURVE",
"57 513 CURVE SMOOTH",
"114 513 OFFCURVE",
"80 581 OFFCURVE",
"129 581 CURVE SMOOTH",
"154 581 OFFCURVE",
"164 563 OFFCURVE",
"164 519 CURVE SMOOTH",
"164 406 LINE",
"154 371 OFFCURVE",
"135 357 OFFCURVE",
"121 357 CURVE SMOOTH",
"104 357 OFFCURVE",
"93 373 OFFCURVE",
"93 404 CURVE SMOOTH",
"93 445 OFFCURVE",
"114 457 OFFCURVE",
"175 457 CURVE",
"175 480 LINE",
"62 480 OFFCURVE",
"7 456 OFFCURVE",
"7 397 CURVE SMOOTH",
"7 348 OFFCURVE",
"40 324 OFFCURVE",
"87 324 CURVE SMOOTH"
);
}
);
};
guideLines = (
{
position = "{50, 324}";
}
);
layerId = "AA78C373-A874-4B43-A7A1-B39102DDD1E4";
paths = (
{
closed = 1;
nodes = (
"286 242 LINE",
"286 279 LINE",
"14 279 LINE",
"14 242 LINE"
);
},
{
closed = 1;
nodes = (
"269 323 OFFCURVE",
"296 344 OFFCURVE",
"296 389 CURVE",
"277 389 LINE",
"275 362 OFFCURVE",
"266 352 OFFCURVE",
"256 352 CURVE SMOOTH",
"247 352 OFFCURVE",
"244 362 OFFCURVE",
"244 382 CURVE SMOOTH",
"244 502 LINE SMOOTH",
"244 573 OFFCURVE",
"196 600 OFFCURVE",
"133 600 CURVE SMOOTH",
"58 600 OFFCURVE",
"21 576 OFFCURVE",
"21 545 CURVE SMOOTH",
"21 525 OFFCURVE",
"37 512 OFFCURVE",
"57 512 CURVE SMOOTH",
"123 512 OFFCURVE",
"84 581 OFFCURVE",
"129 581 CURVE SMOOTH",
"154 581 OFFCURVE",
"164 563 OFFCURVE",
"164 519 CURVE SMOOTH",
"164 406 LINE",
"154 371 OFFCURVE",
"135 360 OFFCURVE",
"121 360 CURVE SMOOTH",
"104 360 OFFCURVE",
"93 376 OFFCURVE",
"93 404 CURVE SMOOTH",
"93 445 OFFCURVE",
"114 461 OFFCURVE",
"175 461 CURVE",
"175 482 LINE",
"62 482 OFFCURVE",
"7 456 OFFCURVE",
"7 397 CURVE SMOOTH",
"7 348 OFFCURVE",
"40 324 OFFCURVE",
"87 324 CURVE SMOOTH",
"130 324 OFFCURVE",
"162 346 OFFCURVE",
"173 384 CURVE",
"167 384 LINE",
"171 344 OFFCURVE",
"203 323 OFFCURVE",
"235 323 CURVE SMOOTH"
);
}
);
width = 306;
}
);
unicode = 00AA;
}
{
glyphname = ordmasculine;
layers = (
{
layerId = "C18F3EFD-FA9C-4751-AD2F-5B966120D1A5";
paths = (
{
closed = 1;
nodes = (
"96 353 OFFCURVE",
"82 399 OFFCURVE",
"82 465 CURVE SMOOTH",
"82 532 OFFCURVE",
"96 577 OFFCURVE",
"146 577 CURVE SMOOTH",
"199 577 OFFCURVE",
"211 532 OFFCURVE",
"211 467 CURVE SMOOTH",
"211 401 OFFCURVE",
"199 353 OFFCURVE",
"148 353 CURVE SMOOTH"
);
},
{
closed = 1;
nodes = (
"278 555 OFFCURVE",
"213 600 OFFCURVE",
"148 600 CURVE SMOOTH",
"82 600 OFFCURVE",
"15 554 OFFCURVE",
"15 467 CURVE SMOOTH",
"15 377 OFFCURVE",
"81 330 OFFCURVE",
"146 330 CURVE SMOOTH",
"212 330 OFFCURVE",
"278 378 OFFCURVE",
"278 465 CURVE SMOOTH"
);
},
{
closed = 1;
nodes = (
"21 244 LINE",
"273 244 LINE",
"273 279 LINE",
"21 279 LINE"
);
}
);
width = 298;
},
{
background = {
paths = (
{
closed = 1;
nodes = (
"106 353 OFFCURVE",
"92 399 OFFCURVE",
"92 465 CURVE SMOOTH",
"92 532 OFFCURVE",
"106 577 OFFCURVE",
"156 577 CURVE SMOOTH",
"209 577 OFFCURVE",
"221 532 OFFCURVE",
"221 467 CURVE SMOOTH",
"221 401 OFFCURVE",
"209 353 OFFCURVE",
"158 353 CURVE SMOOTH"
);
},
{
closed = 1;
nodes = (
"288 555 OFFCURVE",
"223 600 OFFCURVE",
"158 600 CURVE SMOOTH",
"92 600 OFFCURVE",
"25 554 OFFCURVE",
"25 467 CURVE SMOOTH",
"25 377 OFFCURVE",
"91 330 OFFCURVE",
"156 330 CURVE SMOOTH",
"222 330 OFFCURVE",
"288 378 OFFCURVE",
"288 465 CURVE SMOOTH"
);
},
{
closed = 1;
nodes = (
"31 244 LINE",
"283 244 LINE",
"283 279 LINE",
"31 279 LINE"
);
}
);
};
layerId = "AA78C373-A874-4B43-A7A1-B39102DDD1E4";
paths = (
{
closed = 1;
nodes = (
"118 349 OFFCURVE",
"111 388 OFFCURVE",
"111 462 CURVE SMOOTH",
"111 538 OFFCURVE",
"121 575 OFFCURVE",
"156 575 CURVE SMOOTH",
"194 575 OFFCURVE",
"202 538 OFFCURVE",
"202 464 CURVE SMOOTH",
"202 388 OFFCURVE",
"191 349 OFFCURVE",
"156 349 CURVE SMOOTH"
);
},
{
closed = 1;
nodes = (
"306 539 OFFCURVE",
"250 600 OFFCURVE",
"159 600 CURVE SMOOTH",
"68 600 OFFCURVE",
"7 541 OFFCURVE",
"7 464 CURVE SMOOTH",
"7 387 OFFCURVE",
"66 324 OFFCURVE",
"154 324 CURVE SMOOTH",
"245 324 OFFCURVE",
"306 388 OFFCURVE",
"306 465 CURVE SMOOTH"
);
},
{
closed = 1;
nodes = (
"21 242 LINE",
"293 242 LINE",
"293 279 LINE",
"21 279 LINE"
);
}
);
width = 316;
}
);
unicode = 00BA;
}
{
glyphname = oslash;
layers = (
{
components = (
{
name = o;
}
);
layerId = "C18F3EFD-FA9C-4751-AD2F-5B966120D1A5";
paths = (
{
closed = 1;
nodes = (
"29 -9 LINE",
"490 441 LINE",
"469 460 LINE",
"8 11 LINE"
);
}
);
width = 513;
},
{
components = (
{
name = o;
}
);
layerId = "AA78C373-A874-4B43-A7A1-B39102DDD1E4";
paths = (
{
closed = 1;
nodes = (
"34 -14 LINE",
"490 441 LINE",
"464 465 LINE",
"8 11 LINE"
);
}
);
width = 521;
}
);
unicode = 00F8;
}
{
glyphname = paragraph;
layers = (
{
background = {
paths = (
{
closed = 1;
nodes = (
"299 215 LINE",
"299 574 LINE",
"505 574 LINE",
"505 600 LINE",
"298 600 LINE SMOOTH",
"129 600 OFFCURVE",
"50 509 OFFCURVE",
"50 400 CURVE SMOOTH",
"50 296 OFFCURVE",
"122 215 OFFCURVE",
"256 215 CURVE SMOOTH"
);
},
{
closed = 1;
nodes = (
"350 70 LINE SMOOTH",
"350 -19 OFFCURVE",
"332 -68 OFFCURVE",
"283 -82 CURVE",
"296 -60 OFFCURVE",
"299 -18 OFFCURVE",
"299 58 CURVE SMOOTH",
"299 585 LINE",
"271 585 LINE",
"271 58 LINE SMOOTH",
"271 -59 OFFCURVE",
"267 -85 OFFCURVE",
"236 -85 CURVE",
"171 -74 OFFCURVE",
"212 16 OFFCURVE",
"134 16 CURVE SMOOTH",
"104 16 OFFCURVE",
"84 -5 OFFCURVE",
"84 -34 CURVE SMOOTH",
"84 -82 OFFCURVE",
"149 -113 OFFCURVE",
"223 -113 CURVE SMOOTH",
"321 -113 OFFCURVE",
"419 -59 OFFCURVE",
"419 80 CURVE SMOOTH",
"419 600 LINE",
"350 600 LINE"
);
}
);
};
layerId = "C18F3EFD-FA9C-4751-AD2F-5B966120D1A5";
paths = (
{
closed = 1;
nodes = (
"299 215 LINE",
"299 574 LINE",
"500 574 LINE",
"500 600 LINE",
"298 600 LINE SMOOTH",
"129 600 OFFCURVE",
"50 509 OFFCURVE",
"50 400 CURVE SMOOTH",
"50 296 OFFCURVE",
"122 215 OFFCURVE",
"256 215 CURVE SMOOTH"
);
},
{
closed = 1;
nodes = (
"350 70 LINE SMOOTH",
"350 -29 OFFCURVE",
"329 -68 OFFCURVE",
"280 -82 CURVE",
"294 -64 OFFCURVE",
"299 -18 OFFCURVE",
"299 58 CURVE SMOOTH",
"299 585 LINE",
"271 585 LINE",
"271 48 LINE SMOOTH",
"271 -69 OFFCURVE",
"260 -87 OFFCURVE",
"231 -87 CURVE SMOOTH",
"174 -87 OFFCURVE",
"214 16 OFFCURVE",
"136 16 CURVE SMOOTH",
"106 16 OFFCURVE",
"86 -5 OFFCURVE",
"86 -34 CURVE SMOOTH",
"86 -80 OFFCURVE",
"149 -113 OFFCURVE",
"221 -113 CURVE SMOOTH",
"314 -113 OFFCURVE",
"423 -58 OFFCURVE",
"422 94 CURVE SMOOTH",
"420 600 LINE",
"350 600 LINE"
);
}
);
width = 515;
},
{
associatedMasterId = "C18F3EFD-FA9C-4751-AD2F-5B966120D1A5";
background = {
paths = (
{
closed = 1;
nodes = (
"333 185 LINE",
"333 574 LINE",
"596 574 LINE",
"596 600 LINE",
"339 600 LINE SMOOTH",
"184 600 OFFCURVE",
"101 531 OFFCURVE",
"101 386 CURVE SMOOTH",
"101 256 OFFCURVE",
"162 185 OFFCURVE",
"297 185 CURVE SMOOTH"
);
},
{
closed = 1;
nodes = (
"418 -10 LINE SMOOTH",
"418 -111 OFFCURVE",
"407 -165 OFFCURVE",
"360 -165 CURVE SMOOTH",
"301 -165 OFFCURVE",
"342 -77 OFFCURVE",
"273 -77 CURVE SMOOTH",
"247 -77 OFFCURVE",
"229 -98 OFFCURVE",
"229 -121 CURVE SMOOTH",
"229 -159 OFFCURVE",
"273 -190 OFFCURVE",
"343 -190 CURVE SMOOTH",
"418 -190 OFFCURVE",
"503 -141 OFFCURVE",
"503 0 CURVE SMOOTH",
"503 600 LINE",
"418 600 LINE"
);
},
{
closed = 1;
nodes = (
"418 -10 LINE SMOOTH",
"418 -111 OFFCURVE",
"399 -165 OFFCURVE",
"344 -165 CURVE SMOOTH",
"271 -165 OFFCURVE",
"316 -64 OFFCURVE",
"233 -64 CURVE SMOOTH",
"204 -64 OFFCURVE",
"183 -87 OFFCURVE",
"183 -114 CURVE SMOOTH",
"183 -149 OFFCURVE",
"220 -190 OFFCURVE",
"323 -190 CURVE SMOOTH",
"398 -190 OFFCURVE",
"503 -141 OFFCURVE",
"503 0 CURVE SMOOTH",
"503 600 LINE",
"418 600 LINE"
);
}
);
};
layerId = "7D3F97C6-B98E-490C-B512-C7E3820A947D";
name = "Regular Aug 9 15, 19:51";
paths = (
{
closed = 1;
nodes = (
"336 145 LINE",
"336 574 LINE",
"596 574 LINE",
"596 600 LINE",
"315 600 LINE SMOOTH",
"148 600 OFFCURVE",
"73 484 OFFCURVE",
"73 368 CURVE SMOOTH",
"73 256 OFFCURVE",
"145 145 OFFCURVE",
"273 145 CURVE SMOOTH"
);
},
{
closed = 1;
nodes = (
"418 -10 LINE SMOOTH",
"418 -111 OFFCURVE",
"399 -165 OFFCURVE",
"344 -165 CURVE SMOOTH",
"264 -165 OFFCURVE",
"316 -64 OFFCURVE",
"233 -64 CURVE SMOOTH",
"203 -64 OFFCURVE",
"183 -85 OFFCURVE",
"183 -114 CURVE SMOOTH",
"183 -157 OFFCURVE",
"236 -192 OFFCURVE",
"317 -192 CURVE SMOOTH",
"404 -192 OFFCURVE",
"503 -141 OFFCURVE",
"503 0 CURVE SMOOTH",
"503 600 LINE",
"418 600 LINE"
);
}
);
width = 600;
},
{
background = {
paths = (
{
closed = 1;
nodes = (
"301 215 LINE",
"301 574 LINE",
"502 574 LINE",
"502 600 LINE",
"300 600 LINE SMOOTH",
"131 600 OFFCURVE",
"52 509 OFFCURVE",
"52 400 CURVE SMOOTH",
"52 296 OFFCURVE",
"124 215 OFFCURVE",
"258 215 CURVE SMOOTH"
);
},
{
closed = 1;
nodes = (
"352 70 LINE SMOOTH",
"352 -29 OFFCURVE",
"331 -68 OFFCURVE",
"282 -82 CURVE",
"296 -64 OFFCURVE",
"301 -18 OFFCURVE",
"301 58 CURVE SMOOTH",
"301 585 LINE",
"273 585 LINE",
"273 48 LINE SMOOTH",
"273 -69 OFFCURVE",
"262 -87 OFFCURVE",
"233 -87 CURVE SMOOTH",
"176 -87 OFFCURVE",
"216 16 OFFCURVE",
"138 16 CURVE SMOOTH",
"108 16 OFFCURVE",
"88 -5 OFFCURVE",
"88 -34 CURVE SMOOTH",
"88 -80 OFFCURVE",
"151 -113 OFFCURVE",
"223 -113 CURVE SMOOTH",
"316 -113 OFFCURVE",
"424 -58 OFFCURVE",
"423 94 CURVE SMOOTH",
"421 600 LINE",
"352 600 LINE"
);
},
{
closed = 1;
nodes = (
"289 200 LINE",
"289 574 LINE",
"544 574 LINE",
"544 600 LINE",
"273 600 LINE SMOOTH",
"97 600 OFFCURVE",
"15 507 OFFCURVE",
"15 395 CURVE SMOOTH",
"15 288 OFFCURVE",
"90 200 OFFCURVE",
"231 200 CURVE SMOOTH"
);
},
{
closed = 1;
nodes = (
"356 65 LINE SMOOTH",
"356 -37 OFFCURVE",
"348 -88 OFFCURVE",
"279 -91 CURVE",
"299 -71 OFFCURVE",
"303 -27 OFFCURVE",
"303 61 CURVE SMOOTH",
"303 579 LINE",
"274 579 LINE",
"274 61 LINE SMOOTH",
"274 -56 OFFCURVE",
"269 -90 OFFCURVE",
"238 -90 CURVE SMOOTH",
"166 -90 OFFCURVE",
"233 49 OFFCURVE",
"118 49 CURVE SMOOTH",
"84 49 OFFCURVE",
"60 21 OFFCURVE",
"60 -12 CURVE SMOOTH",
"60 -60 OFFCURVE",
"111 -118 OFFCURVE",
"245 -118 CURVE SMOOTH",
"343 -118 OFFCURVE",
"476 -64 OFFCURVE",
"476 75 CURVE SMOOTH",
"476 600 LINE",
"356 600 LINE"
);
}
);
};
layerId = "AA78C373-A874-4B43-A7A1-B39102DDD1E4";
paths = (
{
closed = 1;
nodes = (
"289 190 LINE",
"289 574 LINE",
"544 574 LINE",
"544 600 LINE",
"273 600 LINE SMOOTH",
"110 600 OFFCURVE",
"29 503 OFFCURVE",
"29 393 CURVE SMOOTH",
"29 283 OFFCURVE",
"107 190 OFFCURVE",
"246 190 CURVE SMOOTH"
);
},
{
closed = 1;
nodes = (
"356 65 LINE SMOOTH",
"356 -37 OFFCURVE",
"348 -88 OFFCURVE",
"279 -91 CURVE",
"299 -71 OFFCURVE",
"303 -27 OFFCURVE",
"303 61 CURVE SMOOTH",
"303 579 LINE",
"274 579 LINE",
"274 61 LINE SMOOTH",
"274 -56 OFFCURVE",
"269 -90 OFFCURVE",
"238 -90 CURVE SMOOTH",
"166 -90 OFFCURVE",
"233 49 OFFCURVE",
"124 49 CURVE SMOOTH",
"84 49 OFFCURVE",
"60 21 OFFCURVE",
"60 -12 CURVE SMOOTH",
"60 -79 OFFCURVE",
"144 -117 OFFCURVE",
"236 -117 CURVE SMOOTH",
"349 -117 OFFCURVE",
"476 -59 OFFCURVE",
"476 75 CURVE SMOOTH",
"476 600 LINE",
"356 600 LINE"
);
}
);
width = 554;
}
);
unicode = 00B6;
}
{
glyphname = periodcentered;
layers = (
{
layerId = "C18F3EFD-FA9C-4751-AD2F-5B966120D1A5";
paths = (
{
closed = 1;
nodes = (
"184 178 OFFCURVE",
"208 202 OFFCURVE",
"208 232 CURVE SMOOTH",
"208 262 OFFCURVE",
"184 286 OFFCURVE",
"154 286 CURVE SMOOTH",
"124 286 OFFCURVE",
"100 262 OFFCURVE",
"100 232 CURVE SMOOTH",
"100 202 OFFCURVE",
"124 178 OFFCURVE",
"154 178 CURVE SMOOTH"
);
}
);
width = 308;
},
{
layerId = "AA78C373-A874-4B43-A7A1-B39102DDD1E4";
paths = (
{
closed = 1;
nodes = (
"165 154 OFFCURVE",
"199 186 OFFCURVE",
"199 227 CURVE SMOOTH",
"199 268 OFFCURVE",
"165 302 OFFCURVE",
"124 302 CURVE SMOOTH",
"83 302 OFFCURVE",
"50 268 OFFCURVE",
"50 227 CURVE SMOOTH",
"50 186 OFFCURVE",
"83 154 OFFCURVE",
"124 154 CURVE SMOOTH"
);
}
);
width = 249;
}
);
unicode = 00B7;
}
{
glyphname = plusminus;
layers = (
{
background = {
paths = (
{
closed = 1;
nodes = (
"418 253 LINE",
"418 295 LINE",
"30 295 LINE",
"30 253 LINE"
);
},
{
closed = 1;
nodes = (
"197 113 LINE",
"252 113 LINE",
"252 435 LINE",
"197 435 LINE"
);
},
{
closed = 1;
nodes = (
"418 28 LINE",
"418 70 LINE",
"30 70 LINE",
"30 28 LINE"
);
}
);
};
layerId = "C18F3EFD-FA9C-4751-AD2F-5B966120D1A5";
paths = (
{
closed = 1;
nodes = (
"424 256 LINE",
"424 292 LINE",
"45 292 LINE",
"45 256 LINE"
);
},
{
closed = 1;
nodes = (
"212 118 LINE",
"257 118 LINE",
"257 430 LINE",
"212 430 LINE"
);
},
{
closed = 1;
nodes = (
"424 36 LINE",
"424 72 LINE",
"45 72 LINE",
"45 36 LINE"
);
}
);
width = 469;
},
{
background = {
paths = (
{
closed = 1;
nodes = (
"418 253 LINE",
"418 295 LINE",
"30 295 LINE",
"30 253 LINE"
);
},
{
closed = 1;
nodes = (
"197 113 LINE",
"252 113 LINE",
"252 435 LINE",
"197 435 LINE"
);
},
{
closed = 1;
nodes = (
"418 28 LINE",
"418 70 LINE",
"30 70 LINE",
"30 28 LINE"
);
}
);
};
layerId = "AA78C373-A874-4B43-A7A1-B39102DDD1E4";
paths = (
{
closed = 1;
nodes = (
"418 253 LINE",
"418 295 LINE",
"30 295 LINE",
"30 253 LINE"
);
},
{
closed = 1;
nodes = (
"197 113 LINE",
"252 113 LINE",
"252 435 LINE",
"197 435 LINE"
);
},
{
closed = 1;
nodes = (
"418 28 LINE",
"418 70 LINE",
"30 70 LINE",
"30 28 LINE"
);
}
);
width = 448;
}
);
unicode = 00B1;
}
{
glyphname = registered;
layers = (
{
background = {
paths = (
{
closed = 1;
nodes = (
"297 305 OFFCURVE",
"365 380 OFFCURVE",
"365 473 CURVE SMOOTH",
"365 565 OFFCURVE",
"297 640 OFFCURVE",
"198 640 CURVE SMOOTH",
"98 640 OFFCURVE",
"30 566 OFFCURVE",
"30 473 CURVE SMOOTH",
"30 380 OFFCURVE",
"99 305 OFFCURVE",
"198 305 CURVE SMOOTH"
);
},
{
closed = 1;
nodes = (
"108 321 OFFCURVE",
"47 389 OFFCURVE",
"47 473 CURVE SMOOTH",
"47 556 OFFCURVE",
"107 624 OFFCURVE",
"198 624 CURVE SMOOTH",
"287 624 OFFCURVE",
"348 556 OFFCURVE",
"348 473 CURVE SMOOTH",
"348 389 OFFCURVE",
"287 321 OFFCURVE",
"198 321 CURVE SMOOTH"
);
},
{
closed = 1;
nodes = (
"284 381 LINE",
"228 470 LINE",
"261 478 OFFCURVE",
"278 503 OFFCURVE",
"278 526 CURVE SMOOTH",
"278 553 OFFCURVE",
"254 580 OFFCURVE",
"209 580 CURVE SMOOTH",
"106 580 LINE",
"106 571 LINE",
"134 571 LINE",
"134 381 LINE",
"106 381 LINE",
"106 372 LINE",
"196 372 LINE",
"196 381 LINE",
"164 381 LINE",
"164 468 LINE",
"198 468 LINE",
"253 372 LINE",
"305 372 LINE",
"305 380 OFFCURVE",
"304 381 OFFCURVE",
"297 381 CURVE SMOOTH"
);
},
{
closed = 1;
nodes = (
"164 571 LINE",
"199 571 LINE SMOOTH",
"230 571 OFFCURVE",
"245 548 OFFCURVE",
"245 526 CURVE SMOOTH",
"245 502 OFFCURVE",
"229 478 OFFCURVE",
"200 478 CURVE SMOOTH",
"164 478 LINE"
);
}
);
};
layerId = "C18F3EFD-FA9C-4751-AD2F-5B966120D1A5";
paths = (
{
closed = 1;
nodes = (
"297 304 OFFCURVE",
"370 376 OFFCURVE",
"370 473 CURVE SMOOTH",
"370 569 OFFCURVE",
"296 642 OFFCURVE",
"198 642 CURVE SMOOTH",
"98 642 OFFCURVE",
"25 570 OFFCURVE",
"25 473 CURVE SMOOTH",
"25 376 OFFCURVE",
"99 304 OFFCURVE",
"198 304 CURVE SMOOTH"
);
},
{
closed = 1;
nodes = (
"114 324 OFFCURVE",
"49 387 OFFCURVE",
"49 473 CURVE SMOOTH",
"49 558 OFFCURVE",
"113 622 OFFCURVE",
"198 622 CURVE SMOOTH",
"281 621 OFFCURVE",
"346 558 OFFCURVE",
"346 473 CURVE SMOOTH",
"346 387 OFFCURVE",
"282 324 OFFCURVE",
"198 324 CURVE SMOOTH"
);
},
{
closed = 1;
nodes = (
"305 376 LINE",
"305 386 OFFCURVE",
"303 390 OFFCURVE",
"293 390 CURVE SMOOTH",
"284 390 LINE",
"236 466 LINE",
"268 475 OFFCURVE",
"282 495 OFFCURVE",
"282 521 CURVE SMOOTH",
"282 548 OFFCURVE",
"258 573 OFFCURVE",
"208 573 CURVE SMOOTH",
"106 574 LINE",
"106 559 LINE",
"129 559 LINE",
"129 390 LINE",
"106 390 LINE",
"106 375 LINE",
"199 375 LINE",
"199 390 LINE",
"174 390 LINE",
"174 463 LINE",
"195 463 LINE",
"243 374 LINE"
);
},
{
closed = 1;
nodes = (
"174 559 LINE",
"199 559 LINE SMOOTH",
"221 559 OFFCURVE",
"232 539 OFFCURVE",
"232 521 CURVE SMOOTH",
"232 496 OFFCURVE",
"218 480 OFFCURVE",
"199 480 CURVE SMOOTH",
"174 480 LINE"
);
}
);
width = 395;
},
{
background = {
paths = (
{
closed = 1;
nodes = (
"291 302 OFFCURVE",
"364 376 OFFCURVE",
"364 473 CURVE SMOOTH",
"364 569 OFFCURVE",
"290 642 OFFCURVE",
"192 642 CURVE SMOOTH",
"92 642 OFFCURVE",
"19 570 OFFCURVE",
"19 473 CURVE SMOOTH",
"19 376 OFFCURVE",
"93 302 OFFCURVE",
"192 302 CURVE SMOOTH"
);
},
{
closed = 1;
nodes = (
"108 324 OFFCURVE",
"43 387 OFFCURVE",
"43 473 CURVE SMOOTH",
"43 558 OFFCURVE",
"107 622 OFFCURVE",
"192 622 CURVE SMOOTH",
"275 621 OFFCURVE",
"340 558 OFFCURVE",
"340 473 CURVE SMOOTH",
"340 387 OFFCURVE",
"276 324 OFFCURVE",
"192 324 CURVE SMOOTH"
);
},
{
closed = 1;
nodes = (
"275 388 LINE",
"226 467 LINE",
"255 476 OFFCURVE",
"273 495 OFFCURVE",
"273 521 CURVE SMOOTH",
"273 548 OFFCURVE",
"249 573 OFFCURVE",
"202 573 CURVE SMOOTH",
"103 574 LINE",
"103 561 LINE",
"126 561 LINE",
"126 388 LINE",
"103 388 LINE",
"103 375 LINE",
"192 375 LINE",
"192 388 LINE",
"165 388 LINE",
"165 464 LINE",
"190 464 LINE",
"239 374 LINE",
"295 376 LINE",
"295 385 OFFCURVE",
"294 388 OFFCURVE",
"283 388 CURVE SMOOTH"
);
},
{
closed = 1;
nodes = (
"165 561 LINE",
"193 561 LINE SMOOTH",
"218 561 OFFCURVE",
"229 541 OFFCURVE",
"229 521 CURVE SMOOTH",
"229 496 OFFCURVE",
"215 479 OFFCURVE",
"193 479 CURVE SMOOTH",
"165 479 LINE"
);
}
);
};
layerId = "AA78C373-A874-4B43-A7A1-B39102DDD1E4";
paths = (
{
closed = 1;
nodes = (
"294 300 OFFCURVE",
"370 376 OFFCURVE",
"370 473 CURVE SMOOTH",
"370 570 OFFCURVE",
"294 646 OFFCURVE",
"192 646 CURVE SMOOTH",
"90 646 OFFCURVE",
"15 570 OFFCURVE",
"15 473 CURVE SMOOTH",
"15 376 OFFCURVE",
"90 300 OFFCURVE",
"192 300 CURVE SMOOTH"
);
},
{
closed = 1;
nodes = (
"105 323 OFFCURVE",
"43 388 OFFCURVE",
"43 473 CURVE SMOOTH",
"43 558 OFFCURVE",
"105 623 OFFCURVE",
"192 623 CURVE SMOOTH",
"279 623 OFFCURVE",
"342 558 OFFCURVE",
"342 473 CURVE SMOOTH",
"342 388 OFFCURVE",
"279 323 OFFCURVE",
"192 323 CURVE SMOOTH"
);
},
{
closed = 1;
nodes = (
"304 375 LINE",
"304 386 OFFCURVE",
"302 390 OFFCURVE",
"291 390 CURVE SMOOTH",
"286 390 LINE",
"237 469 LINE",
"274 477 OFFCURVE",
"287 499 OFFCURVE",
"287 522 CURVE SMOOTH",
"287 549 OFFCURVE",
"263 575 OFFCURVE",
"207 575 CURVE SMOOTH",
"93 575 LINE",
"93 559 LINE",
"113 559 LINE",
"113 390 LINE",
"93 390 LINE",
"93 375 LINE",
"195 375 LINE",
"195 390 LINE",
"172 390 LINE",
"172 464 LINE",
"185 464 LINE",
"235 374 LINE"
);
},
{
closed = 1;
nodes = (
"172 559 LINE",
"187 559 LINE SMOOTH",
"210 559 OFFCURVE",
"221 538 OFFCURVE",
"221 520 CURVE SMOOTH",
"221 499 OFFCURVE",
"210 480 OFFCURVE",
"189 480 CURVE SMOOTH",
"172 480 LINE"
);
}
);
width = 395;
}
);
unicode = 00AE;
}
{
glyphname = section;
layers = (
{
background = {
paths = (
{
closed = 1;
nodes = (
"211 595 OFFCURVE",
"180 575 OFFCURVE",
"180 539 CURVE SMOOTH",
"180 438 OFFCURVE",
"439 452 OFFCURVE",
"439 301 CURVE SMOOTH",
"439 223 OFFCURVE",
"365 166 OFFCURVE",
"251 170 CURVE",
"230 180 LINE",
"288 178 OFFCURVE",
"319 217 OFFCURVE",
"319 260 CURVE SMOOTH",
"319 365 OFFCURVE",
"57 353 OFFCURVE",
"57 499 CURVE SMOOTH",
"57 584 OFFCURVE",
"144 623 OFFCURVE",
"242 623 CURVE SMOOTH",
"314 623 OFFCURVE",
"399 588 OFFCURVE",
"399 533 CURVE SMOOTH",
"399 505 OFFCURVE",
"382 486 OFFCURVE",
"353 486 CURVE SMOOTH",
"271 486 OFFCURVE",
"331 595 OFFCURVE",
"242 595 CURVE SMOOTH"
);
},
{
closed = 1;
nodes = (
"262 -23 OFFCURVE",
"291 -4 OFFCURVE",
"291 32 CURVE SMOOTH",
"291 121 OFFCURVE",
"41 125 OFFCURVE",
"41 274 CURVE SMOOTH",
"41 352 OFFCURVE",
"115 408 OFFCURVE",
"230 402 CURVE",
"251 392 LINE",
"192 395 OFFCURVE",
"161 355 OFFCURVE",
"161 311 CURVE SMOOTH",
"161 209 OFFCURVE",
"418 204 OFFCURVE",
"418 71 CURVE SMOOTH",
"418 -13 OFFCURVE",
"323 -51 OFFCURVE",
"232 -51 CURVE SMOOTH",
"147 -51 OFFCURVE",
"66 -19 OFFCURVE",
"66 46 CURVE SMOOTH",
"66 72 OFFCURVE",
"83 92 OFFCURVE",
"116 92 CURVE SMOOTH",
"207 92 OFFCURVE",
"142 -23 OFFCURVE",
"229 -23 CURVE SMOOTH"
);
},
{
closed = 1;
nodes = (
"332 168 OFFCURVE",
"415 204 OFFCURVE",
"415 279 CURVE SMOOTH",
"415 418 OFFCURVE",
"151 417 OFFCURVE",
"151 521 CURVE SMOOTH",
"151 559 OFFCURVE",
"181 593 OFFCURVE",
"234 593 CURVE SMOOTH",
"351 593 OFFCURVE",
"281 494 OFFCURVE",
"355 494 CURVE SMOOTH",
"379 494 OFFCURVE",
"387 510 OFFCURVE",
"387 533 CURVE SMOOTH",
"387 586 OFFCURVE",
"306 618 OFFCURVE",
"239 618 CURVE SMOOTH",
"161 618 OFFCURVE",
"84 576 OFFCURVE",
"84 500 CURVE SMOOTH",
"84 364 OFFCURVE",
"347 351 OFFCURVE",
"347 262 CURVE SMOOTH",
"347 205 OFFCURVE",
"279 191 OFFCURVE",
"213 194 CURVE",
"234 171 LINE"
);
},
{
closed = 1;
nodes = (
"307 -35 OFFCURVE",
"383 7 OFFCURVE",
"383 82 CURVE SMOOTH",
"383 220 OFFCURVE",
"123 234 OFFCURVE",
"123 323 CURVE SMOOTH",
"123 380 OFFCURVE",
"193 392 OFFCURVE",
"259 389 CURVE",
"238 412 LINE",
"140 417 OFFCURVE",
"55 382 OFFCURVE",
"55 307 CURVE SMOOTH",
"55 169 OFFCURVE",
"315 160 OFFCURVE",
"315 61 CURVE SMOOTH",
"315 22 OFFCURVE",
"284 -13 OFFCURVE",
"227 -10 CURVE SMOOTH",
"125 -4 OFFCURVE",
"180 91 OFFCURVE",
"118 91 CURVE SMOOTH",
"92 91 OFFCURVE",
"79 75 OFFCURVE",
"79 52 CURVE SMOOTH",
"79 0 OFFCURVE",
"161 -35 OFFCURVE",
"229 -35 CURVE SMOOTH"
);
}
);
};
layerId = "C18F3EFD-FA9C-4751-AD2F-5B966120D1A5";
paths = (
{
closed = 1;
nodes = (
"332 174 OFFCURVE",
"415 204 OFFCURVE",
"415 279 CURVE SMOOTH",
"415 423 OFFCURVE",
"151 417 OFFCURVE",
"151 525 CURVE SMOOTH",
"151 559 OFFCURVE",
"181 593 OFFCURVE",
"234 593 CURVE SMOOTH",
"351 593 OFFCURVE",
"281 494 OFFCURVE",
"355 494 CURVE SMOOTH",
"379 494 OFFCURVE",
"387 510 OFFCURVE",
"387 533 CURVE SMOOTH",
"387 586 OFFCURVE",
"316 617 OFFCURVE",
"242 617 CURVE SMOOTH",
"164 617 OFFCURVE",
"84 582 OFFCURVE",
"84 500 CURVE SMOOTH",
"84 364 OFFCURVE",
"347 356 OFFCURVE",
"347 262 CURVE SMOOTH",
"347 210 OFFCURVE",
"289 186 OFFCURVE",
"213 189 CURVE",
"234 177 LINE"
);
},
{
closed = 1;
nodes = (
"302 -34 OFFCURVE",
"383 1 OFFCURVE",
"383 82 CURVE SMOOTH",
"383 220 OFFCURVE",
"123 229 OFFCURVE",
"123 323 CURVE SMOOTH",
"123 375 OFFCURVE",
"183 398 OFFCURVE",
"259 395 CURVE",
"238 405 LINE",
"140 410 OFFCURVE",
"55 382 OFFCURVE",
"55 305 CURVE SMOOTH",
"55 164 OFFCURVE",
"315 160 OFFCURVE",
"315 61 CURVE SMOOTH",
"315 24 OFFCURVE",
"289 -10 OFFCURVE",
"234 -10 CURVE SMOOTH",
"122 -10 OFFCURVE",
"181 91 OFFCURVE",
"118 91 CURVE SMOOTH",
"92 91 OFFCURVE",
"79 75 OFFCURVE",
"79 52 CURVE SMOOTH",
"79 -1 OFFCURVE",
"151 -34 OFFCURVE",
"224 -34 CURVE SMOOTH"
);
}
);
width = 465;
},
{
background = {
paths = (
{
closed = 1;
nodes = (
"210 595 OFFCURVE",
"179 575 OFFCURVE",
"179 531 CURVE SMOOTH",
"179 438 OFFCURVE",
"438 452 OFFCURVE",
"438 299 CURVE SMOOTH",
"438 223 OFFCURVE",
"364 166 OFFCURVE",
"250 170 CURVE",
"229 180 LINE",
"287 178 OFFCURVE",
"318 217 OFFCURVE",
"318 260 CURVE SMOOTH",
"318 365 OFFCURVE",
"56 353 OFFCURVE",
"56 493 CURVE SMOOTH",
"56 584 OFFCURVE",
"143 624 OFFCURVE",
"241 624 CURVE SMOOTH",
"313 624 OFFCURVE",
"398 588 OFFCURVE",
"398 533 CURVE SMOOTH",
"398 505 OFFCURVE",
"381 486 OFFCURVE",
"352 486 CURVE SMOOTH",
"270 486 OFFCURVE",
"330 595 OFFCURVE",
"249 595 CURVE SMOOTH"
);
},
{
closed = 1;
nodes = (
"261 -23 OFFCURVE",
"290 -4 OFFCURVE",
"290 41 CURVE SMOOTH",
"290 121 OFFCURVE",
"40 125 OFFCURVE",
"40 274 CURVE SMOOTH",
"40 352 OFFCURVE",
"114 408 OFFCURVE",
"229 402 CURVE",
"250 392 LINE",
"191 395 OFFCURVE",
"160 355 OFFCURVE",
"160 311 CURVE SMOOTH",
"160 209 OFFCURVE",
"417 204 OFFCURVE",
"417 77 CURVE SMOOTH",
"417 -13 OFFCURVE",
"322 -52 OFFCURVE",
"224 -52 CURVE SMOOTH",
"159 -52 OFFCURVE",
"66 -17 OFFCURVE",
"66 41 CURVE SMOOTH",
"66 73 OFFCURVE",
"82 92 OFFCURVE",
"110 92 CURVE SMOOTH",
"206 92 OFFCURVE",
"141 -23 OFFCURVE",
"222 -23 CURVE SMOOTH"
);
}
);
};
layerId = "AA78C373-A874-4B43-A7A1-B39102DDD1E4";
paths = (
{
closed = 1;
nodes = (
"364 166 OFFCURVE",
"438 223 OFFCURVE",
"438 301 CURVE SMOOTH",
"438 452 OFFCURVE",
"179 438 OFFCURVE",
"179 539 CURVE SMOOTH",
"179 575 OFFCURVE",
"210 595 OFFCURVE",
"241 595 CURVE SMOOTH",
"330 595 OFFCURVE",
"270 486 OFFCURVE",
"352 486 CURVE SMOOTH",
"381 486 OFFCURVE",
"398 505 OFFCURVE",
"398 533 CURVE SMOOTH",
"398 588 OFFCURVE",
"313 623 OFFCURVE",
"241 623 CURVE SMOOTH",
"143 623 OFFCURVE",
"56 584 OFFCURVE",
"56 499 CURVE SMOOTH",
"56 353 OFFCURVE",
"318 365 OFFCURVE",
"318 260 CURVE SMOOTH",
"318 217 OFFCURVE",
"287 178 OFFCURVE",
"229 180 CURVE",
"250 170 LINE"
);
},
{
closed = 1;
nodes = (
"317 -48 OFFCURVE",
"412 -7 OFFCURVE",
"412 77 CURVE SMOOTH",
"412 210 OFFCURVE",
"155 212 OFFCURVE",
"155 314 CURVE SMOOTH",
"155 358 OFFCURVE",
"186 398 OFFCURVE",
"245 395 CURVE",
"224 405 LINE",
"109 411 OFFCURVE",
"35 355 OFFCURVE",
"35 277 CURVE SMOOTH",
"35 128 OFFCURVE",
"285 124 OFFCURVE",
"285 35 CURVE SMOOTH",
"285 -1 OFFCURVE",
"256 -20 OFFCURVE",
"223 -20 CURVE SMOOTH",
"136 -20 OFFCURVE",
"201 95 OFFCURVE",
"110 95 CURVE SMOOTH",
"77 95 OFFCURVE",
"60 75 OFFCURVE",
"60 49 CURVE SMOOTH",
"60 -16 OFFCURVE",
"141 -48 OFFCURVE",
"226 -48 CURVE SMOOTH"
);
}
);
width = 473;
}
);
unicode = 00A7;
}
{
glyphname = sinA;
layers = (
{
layerId = "C18F3EFD-FA9C-4751-AD2F-5B966120D1A5";
paths = (
{
closed = 1;
nodes = (
"375 202 CURVE",
"375 229 LINE",
"384 224 OFFCURVE",
"394 224 OFFCURVE",
"401 224 CURVE SMOOTH",
"429 224 OFFCURVE",
"453 243 OFFCURVE",
"453 280 CURVE SMOOTH",
"453 303 OFFCURVE",
"450 318 OFFCURVE",
"438 337 CURVE SMOOTH",
"427 354 OFFCURVE",
"411 363 OFFCURVE",
"411 389 CURVE SMOOTH",
"411 391 OFFCURVE",
"412 393 OFFCURVE",
"412 395 CURVE",
"428 408 LINE SMOOTH",
"446 412 LINE",
"439 408 OFFCURVE",
"435 405 OFFCURVE",
"435 394 CURVE SMOOTH",
"435 361 OFFCURVE",
"514 345 OFFCURVE",
"514 274 CURVE SMOOTH",
"514 223 OFFCURVE",
"468 195 OFFCURVE",
"418 195 CURVE SMOOTH",
"405 195 OFFCURVE",
"391 197 OFFCURVE"
);
},
{
closed = 1;
nodes = (
"351 -210 LINE",
"351 -38 OFFCURVE",
"351 134 OFFCURVE",
"351 306 CURVE SMOOTH",
"351 342 OFFCURVE",
"359 371 OFFCURVE",
"377 392 CURVE SMOOTH",
"392 409 OFFCURVE",
"409 420 OFFCURVE",
"429 425 CURVE",
"451 414 LINE",
"383 384 OFFCURVE",
"379 344 OFFCURVE",
"379 308 CURVE SMOOTH",
"379 -210 LINE"
);
},
{
closed = 1;
nodes = (
"115 -4 OFFCURVE",
"32 60 OFFCURVE",
"32 156 CURVE SMOOTH",
"32 242 OFFCURVE",
"92 302 OFFCURVE",
"197 302 CURVE SMOOTH",
"309 302 LINE",
"308 345 OFFCURVE",
"280 384 OFFCURVE",
"235 384 CURVE SMOOTH",
"200 384 OFFCURVE",
"192 368 OFFCURVE",
"184 350 CURVE SMOOTH",
"179 339 OFFCURVE",
"168 323 OFFCURVE",
"144 323 CURVE SMOOTH",
"123 323 OFFCURVE",
"104 337 OFFCURVE",
"104 360 CURVE SMOOTH",
"104 400 OFFCURVE",
"150 423 OFFCURVE",
"206 423 CURVE SMOOTH",
"288 423 OFFCURVE",
"339 373 OFFCURVE",
"339 283 CURVE SMOOTH",
"339 282 OFFCURVE",
"339 281 OFFCURVE",
"339 280 CURVE",
"246 280 LINE SMOOTH",
"127 280 OFFCURVE",
"110 195 OFFCURVE",
"110 160 CURVE SMOOTH",
"110 86 OFFCURVE",
"157 22 OFFCURVE",
"290 22 CURVE SMOOTH",
"400 22 OFFCURVE",
"469 49 OFFCURVE",
"511 81 CURVE",
"511 50 LINE",
"461 17 OFFCURVE",
"377 -4 OFFCURVE",
"275 -4 CURVE SMOOTH"
);
}
);
width = 559;
},
{
layerId = "AA78C373-A874-4B43-A7A1-B39102DDD1E4";
paths = (
{
closed = 1;
nodes = (
"375 198 CURVE",
"375 229 LINE",
"382 226 OFFCURVE",
"386 226 OFFCURVE",
"397 226 CURVE SMOOTH",
"423 226 OFFCURVE",
"441 250 OFFCURVE",
"441 284 CURVE SMOOTH",
"441 306 OFFCURVE",
"437 321 OFFCURVE",
"425 338 CURVE SMOOTH",
"414 354 OFFCURVE",
"410 367 OFFCURVE",
"410 384 CURVE SMOOTH",
"410 386 OFFCURVE",
"410 392 OFFCURVE",
"410 394 CURVE",
"428 408 LINE SMOOTH",
"446 411 LINE",
"440 408 OFFCURVE",
"435 405 OFFCURVE",
"435 394 CURVE SMOOTH",
"435 361 OFFCURVE",
"517 350 OFFCURVE",
"517 274 CURVE SMOOTH",
"517 219 OFFCURVE",
"470 193 OFFCURVE",
"420 193 CURVE SMOOTH",
"401 193 OFFCURVE",
"388 195 OFFCURVE"
);
},
{
closed = 1;
nodes = (
"348 -210 LINE",
"348 -38 OFFCURVE",
"348 134 OFFCURVE",
"348 306 CURVE SMOOTH",
"348 342 OFFCURVE",
"355 370 OFFCURVE",
"374 391 CURVE SMOOTH",
"389 408 OFFCURVE",
"409 420 OFFCURVE",
"429 425 CURVE",
"453 414 LINE",
"384 385 OFFCURVE",
"379 342 OFFCURVE",
"379 304 CURVE SMOOTH",
"379 -210 LINE"
);
},
{
closed = 1;
nodes = (
"115 -4 OFFCURVE",
"32 60 OFFCURVE",
"32 156 CURVE SMOOTH",
"32 242 OFFCURVE",
"92 302 OFFCURVE",
"197 302 CURVE SMOOTH",
"304 302 LINE",
"303 340 OFFCURVE",
"277 378 OFFCURVE",
"238 378 CURVE SMOOTH",
"206 378 OFFCURVE",
"198 362 OFFCURVE",
"192 350 CURVE SMOOTH",
"185 337 OFFCURVE",
"172 320 OFFCURVE",
"145 320 CURVE SMOOTH",
"124 320 OFFCURVE",
"104 336 OFFCURVE",
"104 360 CURVE SMOOTH",
"104 400 OFFCURVE",
"150 423 OFFCURVE",
"206 423 CURVE SMOOTH",
"288 423 OFFCURVE",
"336 373 OFFCURVE",
"336 283 CURVE SMOOTH",
"336 282 OFFCURVE",
"336 279 OFFCURVE",
"336 278 CURVE",
"302 278 LINE SMOOTH",
"197 278 OFFCURVE",
"183 195 OFFCURVE",
"183 160 CURVE SMOOTH",
"183 86 OFFCURVE",
"236 34 OFFCURVE",
"327 34 CURVE SMOOTH",
"408 34 OFFCURVE",
"469 51 OFFCURVE",
"511 83 CURVE",
"511 50 LINE",
"461 17 OFFCURVE",
"377 -4 OFFCURVE",
"275 -4 CURVE SMOOTH"
);
}
);
width = 559;
}
);
unicode = 0D85;
}
{
glyphname = sinAnusvara;
layers = (
{
layerId = "C18F3EFD-FA9C-4751-AD2F-5B966120D1A5";
paths = (
{
closed = 1;
nodes = (
"65 172 CURVE SMOOTH",
"65 117 OFFCURVE",
"111 72 OFFCURVE",
"169 72 CURVE SMOOTH",
"227 72 OFFCURVE",
"272 117 OFFCURVE",
"272 172 CURVE SMOOTH",
"272 227 OFFCURVE",
"227 271 OFFCURVE",
"169 271 CURVE SMOOTH",
"111 271 OFFCURVE",
"65 227 OFFCURVE"
);
},
{
closed = 1;
nodes = (
"29 161 CURVE SMOOTH",
"29 236 OFFCURVE",
"92 298 OFFCURVE",
"169 298 CURVE SMOOTH",
"246 298 OFFCURVE",
"309 236 OFFCURVE",
"309 161 CURVE SMOOTH",
"309 86 OFFCURVE",
"246 24 OFFCURVE",
"169 24 CURVE SMOOTH",
"92 24 OFFCURVE",
"29 86 OFFCURVE"
);
}
);
width = 355;
},
{
layerId = "AA78C373-A874-4B43-A7A1-B39102DDD1E4";
paths = (
{
closed = 1;
nodes = (
"80 188 CURVE SMOOTH",
"80 141 OFFCURVE",
"120 102 OFFCURVE",
"169 102 CURVE SMOOTH",
"218 102 OFFCURVE",
"257 141 OFFCURVE",
"257 188 CURVE SMOOTH",
"257 235 OFFCURVE",
"218 273 OFFCURVE",
"169 273 CURVE SMOOTH",
"120 273 OFFCURVE",
"80 235 OFFCURVE"
);
},
{
closed = 1;
nodes = (
"28 161 CURVE SMOOTH",
"28 237 OFFCURVE",
"91 300 OFFCURVE",
"169 300 CURVE SMOOTH",
"247 300 OFFCURVE",
"310 237 OFFCURVE",
"310 161 CURVE SMOOTH",
"310 85 OFFCURVE",
"247 23 OFFCURVE",
"169 23 CURVE SMOOTH",
"91 23 OFFCURVE",
"28 85 OFFCURVE"
);
}
);
width = 355;
}
);
unicode = 0D82;
category = Mark;
subCategory = Spacing;
}
{
glyphname = sinBa;
layers = (
{
anchors = (
{
name = _cursive;
position = "{39, 0}";
}
);
layerId = "C18F3EFD-FA9C-4751-AD2F-5B966120D1A5";
paths = (
{
closed = 1;
nodes = (
"101 74 CURVE SMOOTH",
"101 49 OFFCURVE",
"123 26 OFFCURVE",
"148 26 CURVE SMOOTH",
"184 26 OFFCURVE",
"196 49 OFFCURVE",
"196 74 CURVE SMOOTH",
"196 99 OFFCURVE",
"176 122 OFFCURVE",
"148 122 CURVE SMOOTH",
"123 122 OFFCURVE",
"101 99 OFFCURVE"
);
},
{
closed = 1;
nodes = (
"34 183 CURVE SMOOTH",
"34 307 OFFCURVE",
"119 387 OFFCURVE",
"243 387 CURVE SMOOTH",
"333 387 OFFCURVE",
"415 337 OFFCURVE",
"415 251 CURVE SMOOTH",
"415 123 OFFCURVE",
"299 163 OFFCURVE",
"299 99 CURVE SMOOTH",
"299 75 OFFCURVE",
"315 62 OFFCURVE",
"345 62 CURVE SMOOTH",
"453 62 OFFCURVE",
"520 198 OFFCURVE",
"520 306 CURVE SMOOTH",
"520 448 OFFCURVE",
"433 548 OFFCURVE",
"287 548 CURVE SMOOTH",
"195 548 OFFCURVE",
"132 518 OFFCURVE",
"94 459 CURVE",
"64 459 LINE",
"98 529 OFFCURVE",
"177 571 OFFCURVE",
"287 571 CURVE SMOOTH",
"461 571 OFFCURVE",
"564 454 OFFCURVE",
"564 277 CURVE SMOOTH",
"564 137 OFFCURVE",
"508 -2 OFFCURVE",
"374 -2 CURVE SMOOTH",
"315 -2 OFFCURVE",
"269 34 OFFCURVE",
"269 92 CURVE SMOOTH",
"269 182 OFFCURVE",
"381 152 OFFCURVE",
"381 231 CURVE SMOOTH",
"381 289 OFFCURVE",
"303 312 OFFCURVE",
"233 312 CURVE SMOOTH",
"144 312 OFFCURVE",
"64 261 OFFCURVE",
"64 158 CURVE SMOOTH",
"64 133 OFFCURVE",
"69 104 OFFCURVE",
"77 89 CURVE",
"81 123 OFFCURVE",
"111 149 OFFCURVE",
"148 149 CURVE SMOOTH",
"195 149 OFFCURVE",
"226 116 OFFCURVE",
"226 75 CURVE SMOOTH",
"226 28 OFFCURVE",
"191 -1 OFFCURVE",
"148 -1 CURVE SMOOTH",
"68 -1 OFFCURVE",
"34 89 OFFCURVE"
);
}
);
width = 604;
},
{
anchors = (
{
name = _cursive;
position = "{39, 0}";
}
);
layerId = "AA78C373-A874-4B43-A7A1-B39102DDD1E4";
paths = (
{
closed = 1;
nodes = (
"100 74 CURVE SMOOTH",
"100 49 OFFCURVE",
"121 28 OFFCURVE",
"146 28 CURVE SMOOTH",
"171 28 OFFCURVE",
"193 49 OFFCURVE",
"193 74 CURVE SMOOTH",
"193 99 OFFCURVE",
"171 121 OFFCURVE",
"146 121 CURVE SMOOTH",
"121 121 OFFCURVE",
"100 99 OFFCURVE"
);
},
{
closed = 1;
nodes = (
"32 183 CURVE SMOOTH",
"32 307 OFFCURVE",
"121 387 OFFCURVE",
"233 387 CURVE SMOOTH",
"323 387 OFFCURVE",
"395 346 OFFCURVE",
"395 260 CURVE SMOOTH",
"395 156 OFFCURVE",
"285 171 OFFCURVE",
"285 124 CURVE SMOOTH",
"285 105 OFFCURVE",
"309 102 OFFCURVE",
"325 102 CURVE SMOOTH",
"421 102 OFFCURVE",
"492 224 OFFCURVE",
"492 347 CURVE SMOOTH",
"492 462 OFFCURVE",
"415 545 OFFCURVE",
"285 545 CURVE SMOOTH",
"193 545 OFFCURVE",
"133 516 OFFCURVE",
"95 459 CURVE",
"62 459 LINE",
"96 529 OFFCURVE",
"174 571 OFFCURVE",
"285 571 CURVE SMOOTH",
"459 571 OFFCURVE",
"562 454 OFFCURVE",
"562 277 CURVE SMOOTH",
"562 138 OFFCURVE",
"506 -2 OFFCURVE",
"372 -2 CURVE SMOOTH",
"295 -2 OFFCURVE",
"253 48 OFFCURVE",
"253 106 CURVE SMOOTH",
"253 185 OFFCURVE",
"323 168 OFFCURVE",
"323 225 CURVE SMOOTH",
"323 246 OFFCURVE",
"301 269 OFFCURVE",
"231 269 CURVE SMOOTH",
"142 269 OFFCURVE",
"68 217 OFFCURVE",
"68 135 CURVE SMOOTH",
"68 127 OFFCURVE",
"70 102 OFFCURVE",
"75 89 CURVE",
"79 123 OFFCURVE",
"106 149 OFFCURVE",
"146 149 CURVE SMOOTH",
"188 149 OFFCURVE",
"224 116 OFFCURVE",
"224 75 CURVE SMOOTH",
"224 28 OFFCURVE",
"185 -1 OFFCURVE",
"146 -1 CURVE SMOOTH",
"66 -1 OFFCURVE",
"32 89 OFFCURVE"
);
}
);
width = 604;
}
);
unicode = 0DB6;
}
{
glyphname = sinBha;
layers = (
{
anchors = (
{
name = _cursive;
position = "{24, 0}";
}
);
layerId = "C18F3EFD-FA9C-4751-AD2F-5B966120D1A5";
paths = (
{
closed = 1;
nodes = (
"6 265 CURVE",
"6 296 LINE",
"207 296 LINE",
"167 271 LINE",
"137 271 LINE SMOOTH",
"68 270 OFFCURVE",
"22 268 OFFCURVE"
);
},
{
closed = 1;
nodes = (
"48 151 CURVE SMOOTH",
"48 247 OFFCURVE",
"145 296 OFFCURVE",
"213 296 CURVE SMOOTH",
"217 296 OFFCURVE",
"213 296 OFFCURVE",
"217 296 CURVE",
"217 337 OFFCURVE",
"193 374 OFFCURVE",
"156 374 CURVE SMOOTH",
"135 374 OFFCURVE",
"125 363 OFFCURVE",
"119 348 CURVE SMOOTH",
"113 332 OFFCURVE",
"101 319 OFFCURVE",
"80 319 CURVE SMOOTH",
"60 319 OFFCURVE",
"48 333 OFFCURVE",
"48 355 CURVE SMOOTH",
"48 384 OFFCURVE",
"75 422 OFFCURVE",
"131 422 CURVE SMOOTH",
"208 422 OFFCURVE",
"248 351 OFFCURVE",
"249 271 CURVE",
"237 273 OFFCURVE",
"228 273 OFFCURVE",
"224 273 CURVE SMOOTH",
"160 273 OFFCURVE",
"84 239 OFFCURVE",
"84 171 CURVE SMOOTH",
"84 103 OFFCURVE",
"147 70 OFFCURVE",
"219 70 CURVE SMOOTH",
"283 70 OFFCURVE",
"338 98 OFFCURVE",
"338 160 CURVE SMOOTH",
"338 190 OFFCURVE",
"324 207 OFFCURVE",
"304 207 CURVE SMOOTH",
"291 207 OFFCURVE",
"278 199 OFFCURVE",
"271 178 CURVE",
"249 188 LINE",
"258 310 OFFCURVE",
"337 422 OFFCURVE",
"436 422 CURVE SMOOTH",
"545 422 OFFCURVE",
"606 321 OFFCURVE",
"606 206 CURVE SMOOTH",
"606 90 OFFCURVE",
"519 -1 OFFCURVE",
"399 -1 CURVE SMOOTH",
"386 -1 OFFCURVE",
"373 0 OFFCURVE",
"359 2 CURVE",
"359 28 LINE",
"371 26 OFFCURVE",
"383 25 OFFCURVE",
"395 25 CURVE SMOOTH",
"492 25 OFFCURVE",
"560 91 OFFCURVE",
"560 188 CURVE SMOOTH",
"560 281 OFFCURVE",
"509 354 OFFCURVE",
"420 354 CURVE SMOOTH",
"349 354 OFFCURVE",
"301 311 OFFCURVE",
"280 224 CURVE",
"290 230 OFFCURVE",
"300 231 OFFCURVE",
"309 231 CURVE SMOOTH",
"346 231 OFFCURVE",
"373 195 OFFCURVE",
"373 142 CURVE SMOOTH",
"373 52 OFFCURVE",
"304 -1 OFFCURVE",
"212 -1 CURVE SMOOTH",
"116 -1 OFFCURVE",
"48 59 OFFCURVE"
);
}
);
width = 654;
},
{
anchors = (
{
name = _cursive;
position = "{24, 0}";
}
);
layerId = "AA78C373-A874-4B43-A7A1-B39102DDD1E4";
paths = (
{
closed = 1;
nodes = (
"6 262 CURVE",
"6 296 LINE",
"210 296 LINE",
"167 269 LINE",
"137 269 LINE SMOOTH",
"68 268 OFFCURVE",
"22 265 OFFCURVE"
);
},
{
closed = 1;
nodes = (
"48 151 CURVE SMOOTH",
"48 240 OFFCURVE",
"134 296 OFFCURVE",
"208 296 CURVE SMOOTH",
"211 296 OFFCURVE",
"212 296 OFFCURVE",
"215 296 CURVE",
"215 334 OFFCURVE",
"191 369 OFFCURVE",
"164 369 CURVE SMOOTH",
"149 369 OFFCURVE",
"136 365 OFFCURVE",
"127 344 CURVE SMOOTH",
"119 325 OFFCURVE",
"104 315 OFFCURVE",
"88 315 CURVE SMOOTH",
"67 315 OFFCURVE",
"48 328 OFFCURVE",
"48 355 CURVE SMOOTH",
"48 385 OFFCURVE",
"76 422 OFFCURVE",
"131 422 CURVE SMOOTH",
"208 422 OFFCURVE",
"249 352 OFFCURVE",
"249 270 CURVE",
"238 271 OFFCURVE",
"227 272 OFFCURVE",
"216 272 CURVE SMOOTH",
"146 272 OFFCURVE",
"107 239 OFFCURVE",
"107 204 CURVE SMOOTH",
"107 152 OFFCURVE",
"169 136 OFFCURVE",
"222 136 CURVE SMOOTH",
"259 136 OFFCURVE",
"326 149 OFFCURVE",
"326 186 CURVE SMOOTH",
"326 204 OFFCURVE",
"316 210 OFFCURVE",
"305 210 CURVE SMOOTH",
"291 210 OFFCURVE",
"280 203 OFFCURVE",
"273 182 CURVE",
"249 190 LINE",
"258 312 OFFCURVE",
"337 422 OFFCURVE",
"436 422 CURVE SMOOTH",
"545 422 OFFCURVE",
"606 321 OFFCURVE",
"606 206 CURVE SMOOTH",
"606 90 OFFCURVE",
"519 -1 OFFCURVE",
"399 -1 CURVE SMOOTH",
"386 -1 OFFCURVE",
"373 0 OFFCURVE",
"359 2 CURVE",
"359 30 LINE",
"371 28 OFFCURVE",
"383 28 OFFCURVE",
"394 28 CURVE SMOOTH",
"481 28 OFFCURVE",
"501 109 OFFCURVE",
"501 162 CURVE SMOOTH",
"501 224 OFFCURVE",
"469 307 OFFCURVE",
"381 307 CURVE SMOOTH",
"308 307 OFFCURVE",
"291 257 OFFCURVE",
"282 229 CURVE",
"292 234 OFFCURVE",
"300 236 OFFCURVE",
"309 236 CURVE SMOOTH",
"349 236 OFFCURVE",
"373 195 OFFCURVE",
"373 142 CURVE SMOOTH",
"373 52 OFFCURVE",
"304 -1 OFFCURVE",
"212 -1 CURVE SMOOTH",
"117 -1 OFFCURVE",
"48 59 OFFCURVE"
);
}
);
width = 654;
}
);
unicode = 0DB7;
}
{
glyphname = sinCa;
layers = (
{
layerId = "C18F3EFD-FA9C-4751-AD2F-5B966120D1A5";
paths = (
{
closed = 1;
nodes = (
"170 0 OFFCURVE",
"62 45 OFFCURVE",
"62 161 CURVE SMOOTH",
"62 191 OFFCURVE",
"73 222 OFFCURVE",
"95 242 CURVE SMOOTH",
"111 256 OFFCURVE",
"129 266 OFFCURVE",
"154 271 CURVE",
"187 283 OFFCURVE",
"228 295 OFFCURVE",
"264 295 CURVE SMOOTH",
"280 295 LINE",
"280 297 OFFCURVE",
"280 299 OFFCURVE",
"280 301 CURVE SMOOTH",
"280 354 OFFCURVE",
"247 386 OFFCURVE",
"211 386 CURVE SMOOTH",
"167 386 OFFCURVE",
"160 363 OFFCURVE",
"154 347 CURVE SMOOTH",
"147 328 OFFCURVE",
"137 315 OFFCURVE",
"116 315 CURVE SMOOTH",
"100 315 OFFCURVE",
"81 326 OFFCURVE",
"81 351 CURVE SMOOTH",
"81 397 OFFCURVE",
"130 422 OFFCURVE",
"184 422 CURVE SMOOTH",
"270 422 OFFCURVE",
"312 367 OFFCURVE",
"312 283 CURVE SMOOTH",
"312 280 OFFCURVE",
"312 274 OFFCURVE",
"312 271 CURVE",
"244 271 LINE SMOOTH",
"201 271 OFFCURVE",
"162 259 OFFCURVE",
"138 243 CURVE SMOOTH",
"112 226 OFFCURVE",
"99 201 OFFCURVE",
"99 176 CURVE SMOOTH",
"99 92 OFFCURVE",
"203 69 OFFCURVE",
"291 69 CURVE SMOOTH",
"440 69 OFFCURVE",
"528 154 OFFCURVE",
"528 293 CURVE SMOOTH",
"528 432 OFFCURVE",
"427 540 OFFCURVE",
"296 540 CURVE SMOOTH",
"219 540 OFFCURVE",
"157 513 OFFCURVE",
"113 459 CURVE",
"82 459 LINE",
"130 527 OFFCURVE",
"200 563 OFFCURVE",
"296 563 CURVE SMOOTH",
"452 563 OFFCURVE",
"562 433 OFFCURVE",
"562 268 CURVE SMOOTH",
"562 112 OFFCURVE",
"467 0 OFFCURVE",
"288 0 CURVE SMOOTH"
);
},
{
closed = 1;
nodes = (
"76 270 OFFCURVE",
"30 267 OFFCURVE",
"14 264 CURVE",
"14 295 LINE",
"278 295 LINE",
"308 271 LINE",
"145 271 LINE SMOOTH"
);
}
);
width = 607;
},
{
layerId = "AA78C373-A874-4B43-A7A1-B39102DDD1E4";
paths = (
{
closed = 1;
nodes = (
"170 0 OFFCURVE",
"62 45 OFFCURVE",
"62 161 CURVE SMOOTH",
"62 191 OFFCURVE",
"72 222 OFFCURVE",
"95 242 CURVE SMOOTH",
"111 256 OFFCURVE",
"129 266 OFFCURVE",
"154 271 CURVE",
"187 283 OFFCURVE",
"228 295 OFFCURVE",
"264 295 CURVE SMOOTH",
"277 295 LINE",
"277 297 OFFCURVE",
"277 299 OFFCURVE",
"277 301 CURVE SMOOTH",
"277 350 OFFCURVE",
"246 380 OFFCURVE",
"215 380 CURVE SMOOTH",
"182 380 OFFCURVE",
"169 363 OFFCURVE",
"164 347 CURVE SMOOTH",
"158 328 OFFCURVE",
"146 312 OFFCURVE",
"118 312 CURVE SMOOTH",
"98 312 OFFCURVE",
"81 326 OFFCURVE",
"81 351 CURVE SMOOTH",
"81 397 OFFCURVE",
"130 421 OFFCURVE",
"184 421 CURVE SMOOTH",
"270 421 OFFCURVE",
"312 367 OFFCURVE",
"312 283 CURVE SMOOTH",
"312 280 OFFCURVE",
"312 271 OFFCURVE",
"312 268 CURVE",
"265 268 LINE SMOOTH",
"211 268 OFFCURVE",
"179 260 OFFCURVE",
"157 248 CURVE SMOOTH",
"129 234 OFFCURVE",
"125 215 OFFCURVE",
"125 202 CURVE SMOOTH",
"125 154 OFFCURVE",
"203 137 OFFCURVE",
"291 137 CURVE SMOOTH",
"440 137 OFFCURVE",
"505 213 OFFCURVE",
"505 321 CURVE SMOOTH",
"505 431 OFFCURVE",
"427 538 OFFCURVE",
"296 538 CURVE SMOOTH",
"219 538 OFFCURVE",
"159 510 OFFCURVE",
"116 459 CURVE",
"82 459 LINE",
"130 527 OFFCURVE",
"200 563 OFFCURVE",
"296 563 CURVE SMOOTH",
"452 563 OFFCURVE",
"562 433 OFFCURVE",
"562 268 CURVE SMOOTH",
"562 112 OFFCURVE",
"467 0 OFFCURVE",
"288 0 CURVE SMOOTH"
);
},
{
closed = 1;
nodes = (
"76 267 OFFCURVE",
"29 264 OFFCURVE",
"13 261 CURVE",
"13 295 LINE",
"275 295 LINE",
"308 268 LINE",
"145 268 LINE SMOOTH"
);
}
);
width = 602;
}
);
unicode = 0DA0;
}
{
glyphname = sinCandrabindu;
layers = (
{
layerId = "C18F3EFD-FA9C-4751-AD2F-5B966120D1A5";
paths = (
{
closed = 1;
nodes = (
"-431 615 OFFCURVE",
"-492 679 OFFCURVE",
"-492 756 CURVE",
"-476 756 LINE",
"-466 697 OFFCURVE",
"-410 653 OFFCURVE",
"-311 653 CURVE SMOOTH",
"-223 653 OFFCURVE",
"-167 697 OFFCURVE",
"-157 756 CURVE",
"-141 756 LINE",
"-141 679 OFFCURVE",
"-203 615 OFFCURVE",
"-311 615 CURVE SMOOTH"
);
},
{
closed = 1;
nodes = (
"-295 701 OFFCURVE",
"-281 715 OFFCURVE",
"-281 733 CURVE SMOOTH",
"-281 751 OFFCURVE",
"-295 765 OFFCURVE",
"-313 765 CURVE SMOOTH",
"-330 765 OFFCURVE",
"-345 751 OFFCURVE",
"-345 733 CURVE SMOOTH",
"-345 715 OFFCURVE",
"-330 701 OFFCURVE",
"-313 701 CURVE SMOOTH"
);
}
);
width = 0;
},
{
layerId = "AA78C373-A874-4B43-A7A1-B39102DDD1E4";
paths = (
{
closed = 1;
nodes = (
"-442 598 OFFCURVE",
"-503 669 OFFCURVE",
"-503 746 CURVE",
"-487 746 LINE",
"-477 667 OFFCURVE",
"-411 647 OFFCURVE",
"-322 647 CURVE SMOOTH",
"-244 647 OFFCURVE",
"-178 677 OFFCURVE",
"-168 746 CURVE",
"-152 746 LINE",
"-152 669 OFFCURVE",
"-214 598 OFFCURVE",
"-322 598 CURVE SMOOTH"
);
},
{
closed = 1;
nodes = (
"-304 678 OFFCURVE",
"-289 693 OFFCURVE",
"-289 713 CURVE SMOOTH",
"-289 733 OFFCURVE",
"-304 748 OFFCURVE",
"-324 748 CURVE SMOOTH",
"-343 748 OFFCURVE",
"-359 733 OFFCURVE",
"-359 713 CURVE SMOOTH",
"-359 693 OFFCURVE",
"-343 678 OFFCURVE",
"-324 678 CURVE SMOOTH"
);
}
);
width = 0;
}
);
unicode = 0D81;
}
{
glyphname = sinCha;
layers = (
{
layerId = "C18F3EFD-FA9C-4751-AD2F-5B966120D1A5";
paths = (
{
closed = 1;
nodes = (
"156 0 OFFCURVE",
"32 43 OFFCURVE",
"32 166 CURVE SMOOTH",
"32 243 OFFCURVE",
"94 305 OFFCURVE",
"203 305 CURVE SMOOTH",
"208 305 OFFCURVE",
"217 305 OFFCURVE",
"222 304 CURVE",
"223 311 OFFCURVE",
"224 316 OFFCURVE",
"224 323 CURVE SMOOTH",
"224 353 OFFCURVE",
"209 382 OFFCURVE",
"173 382 CURVE SMOOTH",
"152 382 OFFCURVE",
"141 369 OFFCURVE",
"134 354 CURVE SMOOTH",
"123 331 OFFCURVE",
"115 314 OFFCURVE",
"89 314 CURVE SMOOTH",
"70 314 OFFCURVE",
"52 328 OFFCURVE",
"52 352 CURVE SMOOTH",
"52 400 OFFCURVE",
"99 422 OFFCURVE",
"145 422 CURVE SMOOTH",
"210 422 OFFCURVE",
"252 383 OFFCURVE",
"252 318 CURVE SMOOTH",
"252 306 OFFCURVE",
"251 294 OFFCURVE",
"248 281 CURVE",
"241 282 OFFCURVE",
"233 283 OFFCURVE",
"224 283 CURVE SMOOTH",
"108 283 OFFCURVE",
"68 228 OFFCURVE",
"68 182 CURVE SMOOTH",
"68 95 OFFCURVE",
"184 69 OFFCURVE",
"285 69 CURVE SMOOTH",
"389 69 OFFCURVE",
"502 95 OFFCURVE",
"502 182 CURVE SMOOTH",
"502 234 OFFCURVE",
"459 282 OFFCURVE",
"347 282 CURVE SMOOTH",
"326 282 OFFCURVE",
"291 279 OFFCURVE",
"277 278 CURVE",
"275 285 OFFCURVE",
"272 301 OFFCURVE",
"272 312 CURVE SMOOTH",
"272 392 OFFCURVE",
"328 425 OFFCURVE",
"396 425 CURVE SMOOTH",
"466 425 OFFCURVE",
"520 383 OFFCURVE",
"520 290 CURVE SMOOTH",
"520 234 OFFCURVE",
"494 156 OFFCURVE",
"423 156 CURVE SMOOTH",
"364 156 OFFCURVE",
"341 218 OFFCURVE",
"341 286 CURVE SMOOTH",
"341 388 OFFCURVE",
"381 484 OFFCURVE",
"420 533 CURVE SMOOTH",
"452 573 OFFCURVE",
"493 603 OFFCURVE",
"529 603 CURVE SMOOTH",
"545 603 OFFCURVE",
"555 592 OFFCURVE",
"555 582 CURVE SMOOTH",
"555 543 OFFCURVE",
"507 575 OFFCURVE",
"441 504 CURVE SMOOTH",
"402 462 OFFCURVE",
"368 382 OFFCURVE",
"368 285 CURVE SMOOTH",
"368 239 OFFCURVE",
"379 183 OFFCURVE",
"425 183 CURVE SMOOTH",
"467 183 OFFCURVE",
"492 238 OFFCURVE",
"492 288 CURVE SMOOTH",
"492 369 OFFCURVE",
"454 400 OFFCURVE",
"393 400 CURVE SMOOTH",
"350 400 OFFCURVE",
"299 379 OFFCURVE",
"299 316 CURVE SMOOTH",
"299 311 OFFCURVE",
"299 307 OFFCURVE",
"300 303 CURVE",
"307 304 OFFCURVE",
"326 305 OFFCURVE",
"342 305 CURVE SMOOTH",
"379 305 OFFCURVE",
"424 302 OFFCURVE",
"462 284 CURVE SMOOTH",
"505 264 OFFCURVE",
"536 223 OFFCURVE",
"536 164 CURVE SMOOTH",
"536 44 OFFCURVE",
"414 0 OFFCURVE",
"291 0 CURVE SMOOTH"
);
}
);
width = 583;
},
{
layerId = "AA78C373-A874-4B43-A7A1-B39102DDD1E4";
paths = (
{
closed = 1;
nodes = (
"156 0 OFFCURVE",
"32 43 OFFCURVE",
"32 166 CURVE SMOOTH",
"32 243 OFFCURVE",
"94 305 OFFCURVE",
"203 305 CURVE SMOOTH",
"207 305 OFFCURVE",
"216 305 OFFCURVE",
"220 304 CURVE",
"221 311 OFFCURVE",
"222 315 OFFCURVE",
"222 322 CURVE SMOOTH",
"222 355 OFFCURVE",
"206 375 OFFCURVE",
"179 375 CURVE SMOOTH",
"158 375 OFFCURVE",
"147 368 OFFCURVE",
"140 353 CURVE SMOOTH",
"129 330 OFFCURVE",
"117 313 OFFCURVE",
"91 313 CURVE SMOOTH",
"72 313 OFFCURVE",
"52 327 OFFCURVE",
"52 352 CURVE SMOOTH",
"52 400 OFFCURVE",
"99 422 OFFCURVE",
"145 422 CURVE SMOOTH",
"210 422 OFFCURVE",
"252 384 OFFCURVE",
"252 318 CURVE SMOOTH",
"252 306 OFFCURVE",
"251 292 OFFCURVE",
"248 279 CURVE",
"240 280 OFFCURVE",
"233 281 OFFCURVE",
"224 281 CURVE SMOOTH",
"108 281 OFFCURVE",
"91 232 OFFCURVE",
"91 212 CURVE SMOOTH",
"91 153 OFFCURVE",
"185 134 OFFCURVE",
"285 134 CURVE SMOOTH",
"389 134 OFFCURVE",
"479 151 OFFCURVE",
"479 205 CURVE SMOOTH",
"479 238 OFFCURVE",
"459 280 OFFCURVE",
"347 280 CURVE SMOOTH",
"326 280 OFFCURVE",
"291 277 OFFCURVE",
"277 276 CURVE",
"275 283 OFFCURVE",
"272 301 OFFCURVE",
"272 312 CURVE SMOOTH",
"272 392 OFFCURVE",
"328 425 OFFCURVE",
"396 425 CURVE SMOOTH",
"466 425 OFFCURVE",
"520 379 OFFCURVE",
"520 302 CURVE SMOOTH",
"520 261 OFFCURVE",
"494 182 OFFCURVE",
"423 182 CURVE SMOOTH",
"364 182 OFFCURVE",
"340 227 OFFCURVE",
"340 286 CURVE SMOOTH",
"340 402 OFFCURVE",
"374 499 OFFCURVE",
"424 556 CURVE SMOOTH",
"458 594 OFFCURVE",
"492 603 OFFCURVE",
"518 603 CURVE SMOOTH",
"545 603 OFFCURVE",
"560 588 OFFCURVE",
"560 570 CURVE SMOOTH",
"560 518 OFFCURVE",
"489 547 OFFCURVE",
"432 479 CURVE SMOOTH",
"399 440 OFFCURVE",
"369 382 OFFCURVE",
"369 285 CURVE SMOOTH",
"369 247 OFFCURVE",
"379 209 OFFCURVE",
"425 209 CURVE SMOOTH",
"467 209 OFFCURVE",
"490 265 OFFCURVE",
"490 300 CURVE SMOOTH",
"490 364 OFFCURVE",
"454 398 OFFCURVE",
"393 398 CURVE SMOOTH",
"350 398 OFFCURVE",
"301 377 OFFCURVE",
"301 316 CURVE SMOOTH",
"301 311 OFFCURVE",
"301 307 OFFCURVE",
"302 303 CURVE",
"309 304 OFFCURVE",
"326 305 OFFCURVE",
"342 305 CURVE SMOOTH",
"379 305 OFFCURVE",
"424 302 OFFCURVE",
"462 284 CURVE SMOOTH",
"505 264 OFFCURVE",
"536 223 OFFCURVE",
"536 164 CURVE SMOOTH",
"536 44 OFFCURVE",
"414 0 OFFCURVE",
"291 0 CURVE SMOOTH"
);
}
);
width = 583;
}
);
unicode = 0DA1;
}
{
glyphname = sinDa;
layers = (
{
anchors = (
{
name = _cursive;
position = "{50, 0}";
}
);
layerId = "C18F3EFD-FA9C-4751-AD2F-5B966120D1A5";
paths = (
{
closed = 1;
nodes = (
"30 165 CURVE SMOOTH",
"30 268 OFFCURVE",
"102 310 OFFCURVE",
"218 310 CURVE SMOOTH",
"335 310 LINE",
"325 355 OFFCURVE",
"297 387 OFFCURVE",
"254 387 CURVE SMOOTH",
"235 387 OFFCURVE",
"220 375 OFFCURVE",
"211 357 CURVE SMOOTH",
"201 336 OFFCURVE",
"186 328 OFFCURVE",
"171 328 CURVE SMOOTH",
"147 328 OFFCURVE",
"134 342 OFFCURVE",
"134 363 CURVE SMOOTH",
"134 398 OFFCURVE",
"173 423 OFFCURVE",
"227 423 CURVE SMOOTH",
"311 423 OFFCURVE",
"352 380 OFFCURVE",
"370 287 CURVE",
"236 287 LINE SMOOTH",
"150 287 OFFCURVE",
"105 251 OFFCURVE",
"105 169 CURVE SMOOTH",
"105 87 OFFCURVE",
"174 26 OFFCURVE",
"255 26 CURVE SMOOTH",
"300 26 OFFCURVE",
"336 45 OFFCURVE",
"375 90 CURVE",
"397 73 LINE",
"367 38 OFFCURVE",
"299 -28 OFFCURVE",
"299 -102 CURVE SMOOTH",
"299 -166 OFFCURVE",
"337 -190 OFFCURVE",
"399 -205 CURVE",
"399 -232 LINE",
"385 -235 OFFCURVE",
"368 -236 OFFCURVE",
"347 -236 CURVE SMOOTH",
"278 -234 OFFCURVE",
"243 -195 OFFCURVE",
"243 -139 CURVE SMOOTH",
"243 -101 OFFCURVE",
"266 -52 OFFCURVE",
"312 10 CURVE",
"278 0 OFFCURVE",
"255 -1 OFFCURVE",
"229 -1 CURVE SMOOTH",
"101 -1 OFFCURVE",
"30 67 OFFCURVE"
);
}
);
width = 445;
},
{
anchors = (
{
name = _cursive;
position = "{50, 0}";
}
);
layerId = "AA78C373-A874-4B43-A7A1-B39102DDD1E4";
paths = (
{
closed = 1;
nodes = (
"30 165 CURVE SMOOTH",
"30 268 OFFCURVE",
"102 310 OFFCURVE",
"218 310 CURVE SMOOTH",
"332 310 LINE",
"323 355 OFFCURVE",
"294 381 OFFCURVE",
"262 381 CURVE SMOOTH",
"243 381 OFFCURVE",
"229 370 OFFCURVE",
"221 353 CURVE SMOOTH",
"211 332 OFFCURVE",
"194 325 OFFCURVE",
"175 325 CURVE SMOOTH",
"151 325 OFFCURVE",
"133 341 OFFCURVE",
"133 362 CURVE SMOOTH",
"133 397 OFFCURVE",
"173 423 OFFCURVE",
"227 423 CURVE SMOOTH",
"311 423 OFFCURVE",
"353 379 OFFCURVE",
"370 284 CURVE",
"310 284 LINE SMOOTH",
"224 284 OFFCURVE",
"180 251 OFFCURVE",
"180 169 CURVE SMOOTH",
"180 87 OFFCURVE",
"231 43 OFFCURVE",
"279 43 CURVE SMOOTH",
"309 43 OFFCURVE",
"333 47 OFFCURVE",
"372 92 CURVE",
"397 73 LINE",
"367 38 OFFCURVE",
"327 -16 OFFCURVE",
"327 -90 CURVE SMOOTH",
"327 -131 OFFCURVE",
"339 -182 OFFCURVE",
"399 -201 CURVE",
"399 -232 LINE",
"379 -237 OFFCURVE",
"358 -240 OFFCURVE",
"341 -240 CURVE SMOOTH",
"262 -240 OFFCURVE",
"229 -189 OFFCURVE",
"229 -133 CURVE SMOOTH",
"229 -77 OFFCURVE",
"261 -39 OFFCURVE",
"308 8 CURVE",
"283 1 OFFCURVE",
"256 -1 OFFCURVE",
"229 -1 CURVE SMOOTH",
"101 -1 OFFCURVE",
"30 67 OFFCURVE"
);
}
);
width = 445;
}
);
unicode = 0DAF;
}
{
glyphname = sinDda;
layers = (
{
anchors = (
{
name = _cursive;
position = "{42, 0}";
}
);
layerId = "C18F3EFD-FA9C-4751-AD2F-5B966120D1A5";
paths = (
{
closed = 1;
nodes = (
"15 281 LINE",
"15 308 LINE",
"255 308 LINE",
"252 350 OFFCURVE",
"222 382 OFFCURVE",
"193 382 CURVE SMOOTH",
"175 382 OFFCURVE",
"161 377 OFFCURVE",
"147 354 CURVE SMOOTH",
"136 335 OFFCURVE",
"124 331 OFFCURVE",
"110 331 CURVE SMOOTH",
"90 331 OFFCURVE",
"74 344 OFFCURVE",
"74 365 CURVE SMOOTH",
"74 404 OFFCURVE",
"120 422 OFFCURVE",
"161 422 CURVE SMOOTH",
"243 422 OFFCURVE",
"287 365 OFFCURVE",
"288 281 CURVE",
"215 281 LINE SMOOTH",
"124 281 OFFCURVE",
"81 225 OFFCURVE",
"81 170 CURVE SMOOTH",
"81 119 OFFCURVE",
"120 69 OFFCURVE",
"193 69 CURVE SMOOTH",
"241 69 OFFCURVE",
"292 93 OFFCURVE",
"292 140 CURVE SMOOTH",
"292 174 LINE",
"318 174 LINE",
"318 140 LINE SMOOTH",
"318 95 OFFCURVE",
"365 69 OFFCURVE",
"414 69 CURVE SMOOTH",
"508 69 OFFCURVE",
"549 163 OFFCURVE",
"549 267 CURVE SMOOTH",
"549 418 OFFCURVE",
"445 543 OFFCURVE",
"291 543 CURVE SMOOTH",
"213 543 OFFCURVE",
"150 513 OFFCURVE",
"104 457 CURVE",
"71 457 LINE",
"124 533 OFFCURVE",
"205 568 OFFCURVE",
"297 568 CURVE SMOOTH",
"468 568 OFFCURVE",
"584 434 OFFCURVE",
"584 252 CURVE SMOOTH",
"584 123 OFFCURVE",
"534 0 OFFCURVE",
"418 0 CURVE SMOOTH",
"355 0 OFFCURVE",
"327 29 OFFCURVE",
"306 58 CURVE",
"277 22 OFFCURVE",
"244 0 OFFCURVE",
"194 0 CURVE SMOOTH",
"95 0 OFFCURVE",
"45 79 OFFCURVE",
"45 158 CURVE SMOOTH",
"45 207 OFFCURVE",
"69 258 OFFCURVE",
"122 281 CURVE"
);
}
);
width = 631;
},
{
anchors = (
{
name = _cursive;
position = "{42, 0}";
}
);
layerId = "AA78C373-A874-4B43-A7A1-B39102DDD1E4";
paths = (
{
closed = 1;
nodes = (
"15 278 LINE",
"15 308 LINE",
"252 308 LINE",
"250 342 OFFCURVE",
"225 379 OFFCURVE",
"192 379 CURVE SMOOTH",
"183 379 OFFCURVE",
"165 379 OFFCURVE",
"150 352 CURVE SMOOTH",
"140 334 OFFCURVE",
"126 327 OFFCURVE",
"110 327 CURVE SMOOTH",
"87 327 OFFCURVE",
"71 342 OFFCURVE",
"71 364 CURVE SMOOTH",
"71 403 OFFCURVE",
"118 422 OFFCURVE",
"159 422 CURVE SMOOTH",
"236 422 OFFCURVE",
"288 375 OFFCURVE",
"288 278 CURVE",
"219 278 LINE SMOOTH",
"128 278 OFFCURVE",
"107 228 OFFCURVE",
"107 205 CURVE SMOOTH",
"107 160 OFFCURVE",
"146 137 OFFCURVE",
"198 137 CURVE SMOOTH",
"260 137 OFFCURVE",
"290 157 OFFCURVE",
"290 195 CURVE SMOOTH",
"290 216 LINE",
"320 216 LINE",
"320 195 LINE SMOOTH",
"320 160 OFFCURVE",
"344 137 OFFCURVE",
"404 137 CURVE SMOOTH",
"477 137 OFFCURVE",
"527 195 OFFCURVE",
"527 286 CURVE SMOOTH",
"527 412 OFFCURVE",
"449 542 OFFCURVE",
"291 542 CURVE SMOOTH",
"212 542 OFFCURVE",
"150 510 OFFCURVE",
"106 457 CURVE",
"71 457 LINE",
"124 533 OFFCURVE",
"205 568 OFFCURVE",
"297 568 CURVE SMOOTH",
"467 568 OFFCURVE",
"584 433 OFFCURVE",
"584 252 CURVE SMOOTH",
"584 107 OFFCURVE",
"535 0 OFFCURVE",
"418 0 CURVE SMOOTH",
"355 0 OFFCURVE",
"327 28 OFFCURVE",
"306 58 CURVE",
"277 22 OFFCURVE",
"244 0 OFFCURVE",
"194 0 CURVE SMOOTH",
"95 0 OFFCURVE",
"45 79 OFFCURVE",
"45 158 CURVE SMOOTH",
"45 207 OFFCURVE",
"69 255 OFFCURVE",
"122 278 CURVE"
);
}
);
width = 631;
}
);
unicode = 0DA9;
}
{
glyphname = sinDdha;
layers = (
{
anchors = (
{
name = _cursive;
position = "{52, 0}";
}
);
layerId = "C18F3EFD-FA9C-4751-AD2F-5B966120D1A5";
paths = (
{
closed = 1;
nodes = (
"15 281 LINE",
"15 308 LINE",
"252 308 LINE",
"249 350 OFFCURVE",
"219 382 OFFCURVE",
"190 382 CURVE SMOOTH",
"172 382 OFFCURVE",
"159 377 OFFCURVE",
"145 354 CURVE SMOOTH",
"134 335 OFFCURVE",
"121 331 OFFCURVE",
"107 331 CURVE SMOOTH",
"87 331 OFFCURVE",
"71 344 OFFCURVE",
"71 365 CURVE SMOOTH",
"71 404 OFFCURVE",
"117 422 OFFCURVE",
"158 422 CURVE SMOOTH",
"240 422 OFFCURVE",
"284 365 OFFCURVE",
"285 281 CURVE",
"215 281 LINE SMOOTH",
"124 281 OFFCURVE",
"81 225 OFFCURVE",
"81 170 CURVE SMOOTH",
"81 119 OFFCURVE",
"120 69 OFFCURVE",
"193 69 CURVE SMOOTH",
"241 69 OFFCURVE",
"292 93 OFFCURVE",
"292 140 CURVE SMOOTH",
"292 174 LINE",
"318 174 LINE",
"318 140 LINE SMOOTH",
"318 95 OFFCURVE",
"365 69 OFFCURVE",
"414 69 CURVE SMOOTH",
"508 69 OFFCURVE",
"548 155 OFFCURVE",
"548 257 CURVE SMOOTH",
"548 316 OFFCURVE",
"529 369 OFFCURVE",
"503 414 CURVE",
"487 386 OFFCURVE",
"460 354 OFFCURVE",
"412 354 CURVE SMOOTH",
"348 354 OFFCURVE",
"311 402 OFFCURVE",
"311 466 CURVE SMOOTH",
"311 528 OFFCURVE",
"340 572 OFFCURVE",
"351 589 CURVE",
"462 545 OFFCURVE",
"584 397 OFFCURVE",
"584 243 CURVE SMOOTH",
"584 120 OFFCURVE",
"540 0 OFFCURVE",
"416 0 CURVE SMOOTH",
"355 0 OFFCURVE",
"327 29 OFFCURVE",
"306 58 CURVE",
"277 22 OFFCURVE",
"244 0 OFFCURVE",
"194 0 CURVE SMOOTH",
"95 0 OFFCURVE",
"45 79 OFFCURVE",
"45 158 CURVE SMOOTH",
"45 207 OFFCURVE",
"69 258 OFFCURVE",
"122 281 CURVE"
);
},
{
closed = 1;
nodes = (
"339 470 CURVE SMOOTH",
"339 413 OFFCURVE",
"367 384 OFFCURVE",
"414 384 CURVE SMOOTH",
"449 384 OFFCURVE",
"472 414 OFFCURVE",
"485 440 CURVE",
"445 497 OFFCURVE",
"395 537 OFFCURVE",
"364 553 CURVE",
"352 539 OFFCURVE",
"339 503 OFFCURVE"
);
}
);
width = 631;
},
{
anchors = (
{
name = _cursive;
position = "{52, 0}";
}
);
layerId = "AA78C373-A874-4B43-A7A1-B39102DDD1E4";
paths = (
{
closed = 1;
nodes = (
"15 278 LINE",
"15 308 LINE",
"250 308 LINE",
"249 346 OFFCURVE",
"223 379 OFFCURVE",
"192 379 CURVE SMOOTH",
"183 379 OFFCURVE",
"165 379 OFFCURVE",
"150 352 CURVE SMOOTH",
"140 334 OFFCURVE",
"126 327 OFFCURVE",
"110 327 CURVE SMOOTH",
"87 327 OFFCURVE",
"71 342 OFFCURVE",
"71 364 CURVE SMOOTH",
"71 403 OFFCURVE",
"118 422 OFFCURVE",
"159 422 CURVE SMOOTH",
"236 422 OFFCURVE",
"286 373 OFFCURVE",
"286 278 CURVE",
"219 278 LINE SMOOTH",
"128 278 OFFCURVE",
"107 228 OFFCURVE",
"107 205 CURVE SMOOTH",
"107 160 OFFCURVE",
"146 137 OFFCURVE",
"198 137 CURVE SMOOTH",
"260 137 OFFCURVE",
"290 157 OFFCURVE",
"290 195 CURVE SMOOTH",
"290 216 LINE",
"320 216 LINE",
"320 195 LINE SMOOTH",
"320 160 OFFCURVE",
"344 137 OFFCURVE",
"404 137 CURVE SMOOTH",
"477 137 OFFCURVE",
"525 195 OFFCURVE",
"525 286 CURVE SMOOTH",
"525 328 OFFCURVE",
"513 368 OFFCURVE",
"496 404 CURVE",
"479 379 OFFCURVE",
"454 354 OFFCURVE",
"412 354 CURVE SMOOTH",
"348 354 OFFCURVE",
"311 402 OFFCURVE",
"311 466 CURVE SMOOTH",
"311 528 OFFCURVE",
"340 572 OFFCURVE",
"351 589 CURVE",
"462 545 OFFCURVE",
"584 392 OFFCURVE",
"584 250 CURVE SMOOTH",
"584 107 OFFCURVE",
"535 0 OFFCURVE",
"418 0 CURVE SMOOTH",
"355 0 OFFCURVE",
"327 28 OFFCURVE",
"306 58 CURVE",
"277 22 OFFCURVE",
"244 0 OFFCURVE",
"194 0 CURVE SMOOTH",
"95 0 OFFCURVE",
"45 79 OFFCURVE",
"45 158 CURVE SMOOTH",
"45 207 OFFCURVE",
"69 255 OFFCURVE",
"122 278 CURVE"
);
},
{
closed = 1;
nodes = (
"342 470 CURVE SMOOTH",
"342 414 OFFCURVE",
"369 387 OFFCURVE",
"414 387 CURVE SMOOTH",
"444 387 OFFCURVE",
"467 411 OFFCURVE",
"480 435 CURVE",
"446 491 OFFCURVE",
"399 532 OFFCURVE",
"365 549 CURVE",
"352 534 OFFCURVE",
"342 498 OFFCURVE"
);
}
);
width = 631;
}
);
unicode = 0DAA;
}
{
glyphname = sinDha;
layers = (
{
anchors = (
{
name = _cursive;
position = "{45, 0}";
}
);
layerId = "C18F3EFD-FA9C-4751-AD2F-5B966120D1A5";
paths = (
{
closed = 1;
nodes = (
"32 190 CURVE SMOOTH",
"32 281 OFFCURVE",
"84 356 OFFCURVE",
"148 378 CURVE SMOOTH",
"169 385 OFFCURVE",
"192 389 OFFCURVE",
"216 389 CURVE",
"216 364 LINE",
"213 364 OFFCURVE",
"209 364 OFFCURVE",
"206 364 CURVE SMOOTH",
"129 364 OFFCURVE",
"65 294 OFFCURVE",
"65 207 CURVE SMOOTH",
"65 133 OFFCURVE",
"113 69 OFFCURVE",
"184 69 CURVE SMOOTH",
"234 69 OFFCURVE",
"283 90 OFFCURVE",
"283 152 CURVE SMOOTH",
"283 191 LINE",
"311 191 LINE",
"311 152 LINE SMOOTH",
"311 90 OFFCURVE",
"359 69 OFFCURVE",
"407 69 CURVE SMOOTH",
"501 69 OFFCURVE",
"542 176 OFFCURVE",
"542 277 CURVE SMOOTH",
"542 431 OFFCURVE",
"431 543 OFFCURVE",
"287 543 CURVE SMOOTH",
"208 543 OFFCURVE",
"147 515 OFFCURVE",
"95 457 CURVE",
"63 457 LINE",
"119 530 OFFCURVE",
"195 566 OFFCURVE",
"292 566 CURVE SMOOTH",
"451 566 OFFCURVE",
"575 436 OFFCURVE",
"575 255 CURVE SMOOTH",
"575 136 OFFCURVE",
"535 0 OFFCURVE",
"412 0 CURVE SMOOTH",
"364 0 OFFCURVE",
"325 20 OFFCURVE",
"296 58 CURVE",
"266 20 OFFCURVE",
"230 0 OFFCURVE",
"186 0 CURVE SMOOTH",
"86 0 OFFCURVE",
"32 93 OFFCURVE"
);
}
);
width = 623;
},
{
anchors = (
{
name = _cursive;
position = "{45, 0}";
}
);
layerId = "AA78C373-A874-4B43-A7A1-B39102DDD1E4";
paths = (
{
closed = 1;
nodes = (
"32 190 CURVE SMOOTH",
"32 281 OFFCURVE",
"84 355 OFFCURVE",
"148 378 CURVE SMOOTH",
"168 385 OFFCURVE",
"191 389 OFFCURVE",
"216 389 CURVE",
"216 363 LINE",
"213 363 OFFCURVE",
"209 363 OFFCURVE",
"206 363 CURVE SMOOTH",
"129 363 OFFCURVE",
"86 300 OFFCURVE",
"86 236 CURVE SMOOTH",
"86 182 OFFCURVE",
"116 137 OFFCURVE",
"188 137 CURVE SMOOTH",
"238 137 OFFCURVE",
"282 158 OFFCURVE",
"282 220 CURVE SMOOTH",
"282 243 LINE",
"312 243 LINE",
"312 220 LINE SMOOTH",
"312 158 OFFCURVE",
"354 137 OFFCURVE",
"402 137 CURVE SMOOTH",
"495 137 OFFCURVE",
"514 226 OFFCURVE",
"514 297 CURVE SMOOTH",
"514 417 OFFCURVE",
"430 541 OFFCURVE",
"287 541 CURVE SMOOTH",
"208 541 OFFCURVE",
"148 513 OFFCURVE",
"97 457 CURVE",
"63 457 LINE",
"118 530 OFFCURVE",
"195 566 OFFCURVE",
"292 566 CURVE SMOOTH",
"451 566 OFFCURVE",
"575 436 OFFCURVE",
"575 255 CURVE SMOOTH",
"575 136 OFFCURVE",
"535 0 OFFCURVE",
"412 0 CURVE SMOOTH",
"364 0 OFFCURVE",
"325 20 OFFCURVE",
"296 58 CURVE",
"266 20 OFFCURVE",
"230 0 OFFCURVE",
"186 0 CURVE SMOOTH",
"86 0 OFFCURVE",
"32 93 OFFCURVE"
);
}
);
width = 623;
}
);
unicode = 0DB0;
}
{
glyphname = sinE;
layers = (
{
layerId = "C18F3EFD-FA9C-4751-AD2F-5B966120D1A5";
paths = (
{
closed = 1;
nodes = (
"44 161 CURVE SMOOTH",
"44 191 OFFCURVE",
"54 222 OFFCURVE",
"76 242 CURVE SMOOTH",
"92 256 OFFCURVE",
"111 266 OFFCURVE",
"136 271 CURVE",
"169 283 OFFCURVE",
"209 295 OFFCURVE",
"245 295 CURVE SMOOTH",
"257 295 LINE",
"257 297 OFFCURVE",
"257 299 OFFCURVE",
"257 301 CURVE SMOOTH",
"257 348 OFFCURVE",
"223 386 OFFCURVE",
"187 386 CURVE SMOOTH",
"149 386 OFFCURVE",
"139 366 OFFCURVE",
"135 348 CURVE SMOOTH",
"130 328 OFFCURVE",
"120 315 OFFCURVE",
"99 315 CURVE SMOOTH",
"83 315 OFFCURVE",
"62 326 OFFCURVE",
"62 352 CURVE SMOOTH",
"62 394 OFFCURVE",
"104 422 OFFCURVE",
"161 422 CURVE SMOOTH",
"247 422 OFFCURVE",
"288 354 OFFCURVE",
"288 283 CURVE SMOOTH",
"288 280 OFFCURVE",
"288 274 OFFCURVE",
"288 271 CURVE",
"226 271 LINE SMOOTH",
"183 271 OFFCURVE",
"143 259 OFFCURVE",
"119 243 CURVE SMOOTH",
"93 226 OFFCURVE",
"80 201 OFFCURVE",
"80 176 CURVE SMOOTH",
"80 92 OFFCURVE",
"184 69 OFFCURVE",
"272 69 CURVE SMOOTH",
"421 69 OFFCURVE",
"501 145 OFFCURVE",
"501 261 CURVE SMOOTH",
"501 317 OFFCURVE",
"484 367 OFFCURVE",
"460 402 CURVE",
"445 370 OFFCURVE",
"416 351 OFFCURVE",
"374 351 CURVE SMOOTH",
"312 351 OFFCURVE",
"276 405 OFFCURVE",
"276 469 CURVE SMOOTH",
"276 518 OFFCURVE",
"291 553 OFFCURVE",
"317 583 CURVE",
"377 551 OFFCURVE",
"446 481 OFFCURVE",
"481 420 CURVE SMOOTH",
"519 355 OFFCURVE",
"532 307 OFFCURVE",
"532 239 CURVE SMOOTH",
"532 114 OFFCURVE",
"449 0 OFFCURVE",
"270 0 CURVE SMOOTH",
"152 0 OFFCURVE",
"44 45 OFFCURVE"
);
},
{
closed = 1;
nodes = (
"16 264 CURVE",
"16 295 LINE",
"255 295 LINE",
"284 271 LINE",
"126 271 LINE SMOOTH",
"57 270 OFFCURVE",
"32 267 OFFCURVE"
);
},
{
closed = 1;
nodes = (
"306 473 CURVE SMOOTH",
"306 425 OFFCURVE",
"325 386 OFFCURVE",
"381 386 CURVE SMOOTH",
"404 386 OFFCURVE",
"431 397 OFFCURVE",
"441 430 CURVE",
"412 475 OFFCURVE",
"363 520 OFFCURVE",
"326 547 CURVE",
"314 529 OFFCURVE",
"306 507 OFFCURVE"
);
}
);
width = 581;
},
{
layerId = "AA78C373-A874-4B43-A7A1-B39102DDD1E4";
paths = (
{
closed = 1;
nodes = (
"44 161 CURVE SMOOTH",
"44 191 OFFCURVE",
"53 222 OFFCURVE",
"76 242 CURVE SMOOTH",
"92 256 OFFCURVE",
"111 266 OFFCURVE",
"136 271 CURVE",
"169 283 OFFCURVE",
"209 295 OFFCURVE",
"245 295 CURVE SMOOTH",
"255 295 LINE",
"255 297 OFFCURVE",
"255 299 OFFCURVE",
"255 301 CURVE SMOOTH",
"255 348 OFFCURVE",
"224 380 OFFCURVE",
"188 380 CURVE SMOOTH",
"166 380 OFFCURVE",
"149 363 OFFCURVE",
"144 347 CURVE SMOOTH",
"137 325 OFFCURVE",
"125 313 OFFCURVE",
"100 313 CURVE SMOOTH",
"82 313 OFFCURVE",
"62 326 OFFCURVE",
"62 351 CURVE SMOOTH",
"62 397 OFFCURVE",
"111 421 OFFCURVE",
"165 421 CURVE SMOOTH",
"251 421 OFFCURVE",
"288 354 OFFCURVE",
"288 283 CURVE SMOOTH",
"288 280 OFFCURVE",
"288 272 OFFCURVE",
"288 269 CURVE",
"228 269 LINE SMOOTH",
"185 269 OFFCURVE",
"155 261 OFFCURVE",
"132 247 CURVE SMOOTH",
"116 237 OFFCURVE",
"105 222 OFFCURVE",
"105 202 CURVE SMOOTH",
"105 145 OFFCURVE",
"194 137 OFFCURVE",
"272 137 CURVE SMOOTH",
"421 137 OFFCURVE",
"484 205 OFFCURVE",
"484 294 CURVE SMOOTH",
"484 343 OFFCURVE",
"473 378 OFFCURVE",
"460 400 CURVE",
"445 370 OFFCURVE",
"416 351 OFFCURVE",
"374 351 CURVE SMOOTH",
"312 351 OFFCURVE",
"276 405 OFFCURVE",
"276 469 CURVE SMOOTH",
"276 518 OFFCURVE",
"291 553 OFFCURVE",
"317 583 CURVE",
"377 551 OFFCURVE",
"446 481 OFFCURVE",
"481 420 CURVE SMOOTH",
"519 355 OFFCURVE",
"532 307 OFFCURVE",
"532 239 CURVE SMOOTH",
"532 114 OFFCURVE",
"449 0 OFFCURVE",
"270 0 CURVE SMOOTH",
"152 0 OFFCURVE",
"44 45 OFFCURVE"
);
},
{
closed = 1;
nodes = (
"16 262 CURVE",
"16 295 LINE",
"253 295 LINE",
"284 269 LINE",
"126 269 LINE SMOOTH",
"57 268 OFFCURVE",
"32 265 OFFCURVE"
);
},
{
closed = 1;
nodes = (
"310 477 CURVE SMOOTH",
"310 429 OFFCURVE",
"342 396 OFFCURVE",
"385 396 CURVE SMOOTH",
"404 396 OFFCURVE",
"428 407 OFFCURVE",
"438 431 CURVE",
"409 474 OFFCURVE",
"363 517 OFFCURVE",
"326 544 CURVE",
"318 527 OFFCURVE",
"310 506 OFFCURVE"
);
}
);
width = 581;
}
);
unicode = 0D91;
}
{
glyphname = sinEe;
layers = (
{
layerId = "C18F3EFD-FA9C-4751-AD2F-5B966120D1A5";
paths = (
{
closed = 1;
nodes = (
"430 434 LINE",
"430 678 LINE",
"484 633 OFFCURVE",
"582 636 OFFCURVE",
"582 542 CURVE SMOOTH",
"582 501 OFFCURVE",
"550 473 OFFCURVE",
"502 473 CURVE SMOOTH",
"487 473 OFFCURVE",
"473 475 OFFCURVE",
"458 480 CURVE",
"458 417 LINE"
);
},
{
closed = 1;
nodes = (
"458 503 LINE",
"466 499 OFFCURVE",
"476 497 OFFCURVE",
"489 497 CURVE SMOOTH",
"532 497 OFFCURVE",
"542 521 OFFCURVE",
"542 544 CURVE SMOOTH",
"542 584 OFFCURVE",
"514 604 OFFCURVE",
"458 633 CURVE"
);
},
{
closed = 1;
nodes = (
"44 161 CURVE SMOOTH",
"44 191 OFFCURVE",
"54 222 OFFCURVE",
"76 242 CURVE SMOOTH",
"92 256 OFFCURVE",
"111 266 OFFCURVE",
"136 271 CURVE",
"169 283 OFFCURVE",
"203 295 OFFCURVE",
"239 295 CURVE SMOOTH",
"251 295 LINE",
"251 297 OFFCURVE",
"251 299 OFFCURVE",
"251 301 CURVE SMOOTH",
"251 339 OFFCURVE",
"225 380 OFFCURVE",
"189 380 CURVE SMOOTH",
"151 380 OFFCURVE",
"141 357 OFFCURVE",
"135 341 CURVE SMOOTH",
"128 322 OFFCURVE",
"119 310 OFFCURVE",
"98 310 CURVE SMOOTH",
"82 310 OFFCURVE",
"62 320 OFFCURVE",
"62 345 CURVE SMOOTH",
"62 391 OFFCURVE",
"111 416 OFFCURVE",
"165 416 CURVE SMOOTH",
"251 416 OFFCURVE",
"282 344 OFFCURVE",
"282 283 CURVE SMOOTH",
"282 280 OFFCURVE",
"282 274 OFFCURVE",
"282 271 CURVE",
"226 271 LINE SMOOTH",
"183 271 OFFCURVE",
"143 259 OFFCURVE",
"119 243 CURVE SMOOTH",
"93 226 OFFCURVE",
"80 201 OFFCURVE",
"80 176 CURVE SMOOTH",
"80 92 OFFCURVE",
"184 69 OFFCURVE",
"272 69 CURVE SMOOTH",
"421 69 OFFCURVE",
"501 149 OFFCURVE",
"501 255 CURVE SMOOTH",
"501 311 OFFCURVE",
"484 350 OFFCURVE",
"460 385 CURVE",
"445 353 OFFCURVE",
"416 333 OFFCURVE",
"374 333 CURVE SMOOTH",
"312 333 OFFCURVE",
"276 387 OFFCURVE",
"276 451 CURVE SMOOTH",
"276 500 OFFCURVE",
"291 535 OFFCURVE",
"317 565 CURVE",
"377 533 OFFCURVE",
"443 461 OFFCURVE",
"481 402 CURVE SMOOTH",
"516 347 OFFCURVE",
"532 301 OFFCURVE",
"532 233 CURVE SMOOTH",
"532 116 OFFCURVE",
"449 0 OFFCURVE",
"270 0 CURVE SMOOTH",
"152 0 OFFCURVE",
"44 45 OFFCURVE"
);
},
{
closed = 1;
nodes = (
"16 264 CURVE",
"16 295 LINE",
"249 295 LINE",
"278 271 LINE",
"126 271 LINE SMOOTH",
"57 270 OFFCURVE",
"32 267 OFFCURVE"
);
},
{
closed = 1;
nodes = (
"306 455 CURVE SMOOTH",
"306 407 OFFCURVE",
"325 368 OFFCURVE",
"381 368 CURVE SMOOTH",
"404 368 OFFCURVE",
"431 379 OFFCURVE",
"441 412 CURVE",
"412 457 OFFCURVE",
"363 502 OFFCURVE",
"326 529 CURVE",
"314 511 OFFCURVE",
"306 489 OFFCURVE"
);
}
);
width = 581;
},
{
layerId = "AA78C373-A874-4B43-A7A1-B39102DDD1E4";
paths = (
{
closed = 1;
nodes = (
"430 434 LINE",
"430 678 LINE",
"483 637 OFFCURVE",
"578 632 OFFCURVE",
"578 542 CURVE SMOOTH",
"578 499 OFFCURVE",
"544 470 OFFCURVE",
"502 470 CURVE SMOOTH",
"488 470 OFFCURVE",
"473 472 OFFCURVE",
"458 479 CURVE",
"458 417 LINE"
);
},
{
closed = 1;
nodes = (
"458 505 LINE",
"466 501 OFFCURVE",
"477 498 OFFCURVE",
"490 498 CURVE SMOOTH",
"521 498 OFFCURVE",
"534 522 OFFCURVE",
"534 545 CURVE SMOOTH",
"534 585 OFFCURVE",
"503 604 OFFCURVE",
"458 634 CURVE"
);
},
{
closed = 1;
nodes = (
"44 161 CURVE SMOOTH",
"44 191 OFFCURVE",
"53 222 OFFCURVE",
"76 242 CURVE SMOOTH",
"92 256 OFFCURVE",
"111 266 OFFCURVE",
"136 271 CURVE",
"169 283 OFFCURVE",
"203 295 OFFCURVE",
"239 295 CURVE SMOOTH",
"249 295 LINE",
"249 297 OFFCURVE",
"249 299 OFFCURVE",
"249 301 CURVE SMOOTH",
"249 341 OFFCURVE",
"224 374 OFFCURVE",
"188 374 CURVE SMOOTH",
"166 374 OFFCURVE",
"149 357 OFFCURVE",
"144 341 CURVE SMOOTH",
"137 319 OFFCURVE",
"125 308 OFFCURVE",
"100 308 CURVE SMOOTH",
"82 308 OFFCURVE",
"62 320 OFFCURVE",
"62 345 CURVE SMOOTH",
"62 391 OFFCURVE",
"106 416 OFFCURVE",
"160 416 CURVE SMOOTH",
"246 416 OFFCURVE",
"282 354 OFFCURVE",
"282 283 CURVE SMOOTH",
"282 280 OFFCURVE",
"282 272 OFFCURVE",
"282 269 CURVE",
"228 269 LINE SMOOTH",
"185 269 OFFCURVE",
"155 261 OFFCURVE",
"132 247 CURVE SMOOTH",
"116 237 OFFCURVE",
"105 222 OFFCURVE",
"105 202 CURVE SMOOTH",
"105 145 OFFCURVE",
"194 137 OFFCURVE",
"272 137 CURVE SMOOTH",
"421 137 OFFCURVE",
"484 205 OFFCURVE",
"484 294 CURVE SMOOTH",
"484 343 OFFCURVE",
"473 361 OFFCURVE",
"460 383 CURVE",
"445 353 OFFCURVE",
"416 333 OFFCURVE",
"374 333 CURVE SMOOTH",
"312 333 OFFCURVE",
"276 387 OFFCURVE",
"276 451 CURVE SMOOTH",
"276 500 OFFCURVE",
"291 536 OFFCURVE",
"317 566 CURVE",
"377 534 OFFCURVE",
"446 464 OFFCURVE",
"481 403 CURVE SMOOTH",
"519 338 OFFCURVE",
"532 307 OFFCURVE",
"532 239 CURVE SMOOTH",
"532 114 OFFCURVE",
"449 0 OFFCURVE",
"270 0 CURVE SMOOTH",
"152 0 OFFCURVE",
"44 45 OFFCURVE"
);
},
{
closed = 1;
nodes = (
"16 262 CURVE",
"16 295 LINE",
"247 295 LINE",
"278 269 LINE",
"126 269 LINE SMOOTH",
"57 268 OFFCURVE",
"32 265 OFFCURVE"
);
},
{
closed = 1;
nodes = (
"310 459 CURVE SMOOTH",
"310 411 OFFCURVE",
"342 379 OFFCURVE",
"385 379 CURVE SMOOTH",
"404 379 OFFCURVE",
"428 389 OFFCURVE",
"438 413 CURVE",
"409 456 OFFCURVE",
"363 500 OFFCURVE",
"326 527 CURVE",
"318 510 OFFCURVE",
"310 488 OFFCURVE"
);
}
);
width = 581;
}
);
unicode = 0D92;
}
{
glyphname = sinFa;
layers = (
{
anchors = (
{
name = _cursive;
position = "{43, 0}";
}
);
layerId = "C18F3EFD-FA9C-4751-AD2F-5B966120D1A5";
paths = (
{
closed = 1;
nodes = (
"32 207 CURVE SMOOTH",
"32 309 OFFCURVE",
"77 421 OFFCURVE",
"182 421 CURVE SMOOTH",
"241 421 OFFCURVE",
"273 389 OFFCURVE",
"289 351 CURVE",
"305 389 OFFCURVE",
"337 421 OFFCURVE",
"396 421 CURVE SMOOTH",
"501 421 OFFCURVE",
"546 309 OFFCURVE",
"546 207 CURVE SMOOTH",
"546 107 OFFCURVE",
"499 -1 OFFCURVE",
"400 -1 CURVE SMOOTH",
"388 -1 OFFCURVE",
"376 1 OFFCURVE",
"363 6 CURVE",
"363 31 LINE",
"374 27 OFFCURVE",
"385 25 OFFCURVE",
"396 25 CURVE SMOOTH",
"465 25 OFFCURVE",
"512 96 OFFCURVE",
"512 191 CURVE SMOOTH",
"512 275 OFFCURVE",
"482 352 OFFCURVE",
"398 352 CURVE SMOOTH",
"347 352 OFFCURVE",
"305 326 OFFCURVE",
"305 257 CURVE SMOOTH",
"305 217 LINE",
"273 217 LINE",
"273 257 LINE SMOOTH",
"273 326 OFFCURVE",
"231 352 OFFCURVE",
"180 352 CURVE SMOOTH",
"96 352 OFFCURVE",
"66 275 OFFCURVE",
"66 191 CURVE SMOOTH",
"66 96 OFFCURVE",
"114 25 OFFCURVE",
"183 25 CURVE SMOOTH",
"194 25 OFFCURVE",
"204 27 OFFCURVE",
"215 31 CURVE",
"215 6 LINE",
"202 1 OFFCURVE",
"190 -1 OFFCURVE",
"178 -1 CURVE SMOOTH",
"79 -1 OFFCURVE",
"32 107 OFFCURVE"
);
}
);
width = 592;
},
{
anchors = (
{
name = _cursive;
position = "{43, 0}";
}
);
layerId = "AA78C373-A874-4B43-A7A1-B39102DDD1E4";
paths = (
{
closed = 1;
nodes = (
"32 207 CURVE SMOOTH",
"32 309 OFFCURVE",
"77 421 OFFCURVE",
"182 421 CURVE SMOOTH",
"241 421 OFFCURVE",
"273 389 OFFCURVE",
"289 351 CURVE",
"305 389 OFFCURVE",
"337 421 OFFCURVE",
"396 421 CURVE SMOOTH",
"501 421 OFFCURVE",
"546 309 OFFCURVE",
"546 207 CURVE SMOOTH",
"546 107 OFFCURVE",
"499 -1 OFFCURVE",
"400 -1 CURVE SMOOTH",
"388 -1 OFFCURVE",
"376 1 OFFCURVE",
"363 6 CURVE",
"363 33 LINE",
"373 29 OFFCURVE",
"385 27 OFFCURVE",
"396 27 CURVE SMOOTH",
"465 27 OFFCURVE",
"491 96 OFFCURVE",
"491 166 CURVE SMOOTH",
"491 212 OFFCURVE",
"479 290 OFFCURVE",
"395 290 CURVE SMOOTH",
"344 290 OFFCURVE",
"305 264 OFFCURVE",
"305 195 CURVE SMOOTH",
"305 176 LINE",
"273 176 LINE",
"273 195 LINE SMOOTH",
"273 264 OFFCURVE",
"235 290 OFFCURVE",
"184 290 CURVE SMOOTH",
"100 290 OFFCURVE",
"85 208 OFFCURVE",
"85 163 CURVE SMOOTH",
"85 96 OFFCURVE",
"114 27 OFFCURVE",
"183 27 CURVE SMOOTH",
"194 27 OFFCURVE",
"205 29 OFFCURVE",
"215 33 CURVE",
"215 6 LINE",
"202 1 OFFCURVE",
"190 -1 OFFCURVE",
"178 -1 CURVE SMOOTH",
"79 -1 OFFCURVE",
"32 107 OFFCURVE"
);
}
);
width = 592;
}
);
unicode = 0DC6;
}
{
glyphname = sinGa;
layers = (
{
anchors = (
{
name = _cursive;
position = "{56, 1}";
}
);
layerId = "C18F3EFD-FA9C-4751-AD2F-5B966120D1A5";
paths = (
{
closed = 1;
nodes = (
"33 202 CURVE SMOOTH",
"33 322 OFFCURVE",
"107 422 OFFCURVE",
"215 422 CURVE SMOOTH",
"219 422 OFFCURVE",
"224 421 OFFCURVE",
"228 421 CURVE",
"228 398 LINE",
"225 398 OFFCURVE",
"220 398 OFFCURVE",
"217 398 CURVE SMOOTH",
"133 398 OFFCURVE",
"67 325 OFFCURVE",
"67 225 CURVE SMOOTH",
"67 144 OFFCURVE",
"114 69 OFFCURVE",
"201 69 CURVE SMOOTH",
"259 69 OFFCURVE",
"311 96 OFFCURVE",
"311 154 CURVE SMOOTH",
"311 191 OFFCURVE",
"291 212 OFFCURVE",
"261 212 CURVE SMOOTH",
"254 212 OFFCURVE",
"244 210 OFFCURVE",
"237 205 CURVE",
"236 199 OFFCURVE",
"235 191 OFFCURVE",
"235 188 CURVE",
"211 188 LINE",
"221 310 OFFCURVE",
"281 422 OFFCURVE",
"400 422 CURVE SMOOTH",
"509 422 OFFCURVE",
"572 324 OFFCURVE",
"572 212 CURVE SMOOTH",
"572 93 OFFCURVE",
"488 -1 OFFCURVE",
"360 -1 CURVE SMOOTH",
"350 -1 OFFCURVE",
"341 0 OFFCURVE",
"330 1 CURVE",
"330 25 LINE",
"338 24 OFFCURVE",
"346 23 OFFCURVE",
"354 23 CURVE SMOOTH",
"458 23 OFFCURVE",
"530 97 OFFCURVE",
"530 195 CURVE SMOOTH",
"530 294 OFFCURVE",
"473 362 OFFCURVE",
"384 362 CURVE SMOOTH",
"309 362 OFFCURVE",
"257 305 OFFCURVE",
"241 230 CURVE",
"249 234 OFFCURVE",
"257 235 OFFCURVE",
"264 235 CURVE SMOOTH",
"311 235 OFFCURVE",
"344 197 OFFCURVE",
"344 133 CURVE SMOOTH",
"344 55 OFFCURVE",
"288 -2 OFFCURVE",
"203 -2 CURVE SMOOTH",
"95 -2 OFFCURVE",
"33 94 OFFCURVE"
);
}
);
width = 621;
},
{
anchors = (
{
name = _cursive;
position = "{56, 1}";
}
);
layerId = "AA78C373-A874-4B43-A7A1-B39102DDD1E4";
paths = (
{
closed = 1;
nodes = (
"33 202 CURVE SMOOTH",
"33 322 OFFCURVE",
"107 421 OFFCURVE",
"215 421 CURVE SMOOTH",
"219 421 OFFCURVE",
"224 421 OFFCURVE",
"228 421 CURVE",
"228 396 LINE",
"225 396 OFFCURVE",
"220 396 OFFCURVE",
"217 396 CURVE SMOOTH",
"135 396 OFFCURVE",
"86 321 OFFCURVE",
"86 252 CURVE SMOOTH",
"86 182 OFFCURVE",
"139 137 OFFCURVE",
"206 137 CURVE SMOOTH",
"264 137 OFFCURVE",
"287 161 OFFCURVE",
"287 187 CURVE SMOOTH",
"287 211 OFFCURVE",
"270 215 OFFCURVE",
"263 215 CURVE SMOOTH",
"252 215 OFFCURVE",
"245 212 OFFCURVE",
"240 209 CURVE",
"239 203 OFFCURVE",
"238 192 OFFCURVE",
"238 189 CURVE",
"211 189 LINE",
"220 313 OFFCURVE",
"281 421 OFFCURVE",
"400 421 CURVE SMOOTH",
"509 421 OFFCURVE",
"572 324 OFFCURVE",
"572 212 CURVE SMOOTH",
"572 93 OFFCURVE",
"488 -1 OFFCURVE",
"360 -1 CURVE SMOOTH",
"350 -1 OFFCURVE",
"340 0 OFFCURVE",
"330 1 CURVE",
"330 28 LINE",
"338 27 OFFCURVE",
"346 26 OFFCURVE",
"354 26 CURVE SMOOTH",
"456 26 OFFCURVE",
"486 108 OFFCURVE",
"486 171 CURVE SMOOTH",
"486 249 OFFCURVE",
"450 312 OFFCURVE",
"354 312 CURVE SMOOTH",
"285 312 OFFCURVE",
"251 270 OFFCURVE",
"244 235 CURVE",
"250 238 OFFCURVE",
"257 240 OFFCURVE",
"264 240 CURVE SMOOTH",
"313 240 OFFCURVE",
"344 197 OFFCURVE",
"344 133 CURVE SMOOTH",
"344 55 OFFCURVE",
"288 -2 OFFCURVE",
"203 -2 CURVE SMOOTH",
"95 -2 OFFCURVE",
"33 94 OFFCURVE"
);
}
);
width = 621;
}
);
unicode = 0D9C;
}
{
glyphname = sinGha;
layers = (
{
anchors = (
{
name = _cursive;
position = "{54, 0}";
}
);
layerId = "C18F3EFD-FA9C-4751-AD2F-5B966120D1A5";
paths = (
{
closed = 1;
nodes = (
"50 150 CURVE SMOOTH",
"50 220 OFFCURVE",
"90 262 OFFCURVE",
"141 278 CURVE",
"174 290 OFFCURVE",
"227 301 OFFCURVE",
"263 301 CURVE SMOOTH",
"274 301 LINE",
"274 303 OFFCURVE",
"274 303 OFFCURVE",
"274 305 CURVE SMOOTH",
"274 352 OFFCURVE",
"243 386 OFFCURVE",
"207 386 CURVE SMOOTH",
"169 386 OFFCURVE",
"158 363 OFFCURVE",
"152 347 CURVE SMOOTH",
"145 328 OFFCURVE",
"136 315 OFFCURVE",
"115 315 CURVE SMOOTH",
"99 315 OFFCURVE",
"80 326 OFFCURVE",
"80 351 CURVE SMOOTH",
"80 397 OFFCURVE",
"129 422 OFFCURVE",
"183 422 CURVE SMOOTH",
"269 422 OFFCURVE",
"306 360 OFFCURVE",
"306 289 CURVE SMOOTH",
"306 286 OFFCURVE",
"306 279 OFFCURVE",
"306 276 CURVE",
"211 276 LINE SMOOTH",
"159 276 OFFCURVE",
"87 242 OFFCURVE",
"87 171 CURVE SMOOTH",
"87 113 OFFCURVE",
"139 69 OFFCURVE",
"207 69 CURVE SMOOTH",
"223 69 OFFCURVE",
"236 71 OFFCURVE",
"239 74 CURVE",
"237 84 OFFCURVE",
"236 96 OFFCURVE",
"236 104 CURVE SMOOTH",
"236 176 OFFCURVE",
"288 195 OFFCURVE",
"324 195 CURVE SMOOTH",
"360 195 OFFCURVE",
"412 176 OFFCURVE",
"412 104 CURVE SMOOTH",
"412 96 OFFCURVE",
"411 84 OFFCURVE",
"409 74 CURVE",
"412 71 OFFCURVE",
"425 69 OFFCURVE",
"441 69 CURVE SMOOTH",
"508 69 OFFCURVE",
"579 106 OFFCURVE",
"579 174 CURVE SMOOTH",
"579 242 OFFCURVE",
"529 284 OFFCURVE",
"438 284 CURVE SMOOTH",
"403 284 OFFCURVE",
"377 282 OFFCURVE",
"345 275 CURVE",
"345 279 OFFCURVE",
"345 280 OFFCURVE",
"345 284 CURVE SMOOTH",
"345 366 OFFCURVE",
"392 422 OFFCURVE",
"465 422 CURVE SMOOTH",
"518 422 OFFCURVE",
"565 399 OFFCURVE",
"565 342 CURVE SMOOTH",
"565 321 OFFCURVE",
"552 299 OFFCURVE",
"537 290 CURVE",
"583 268 OFFCURVE",
"613 216 OFFCURVE",
"613 162 CURVE SMOOTH",
"613 57 OFFCURVE",
"544 -1 OFFCURVE",
"454 -1 CURVE SMOOTH",
"435 -1 OFFCURVE",
"408 2 OFFCURVE",
"378 11 CURVE",
"375 17 OFFCURVE",
"374 27 OFFCURVE",
"374 34 CURVE SMOOTH",
"374 67 OFFCURVE",
"383 70 OFFCURVE",
"383 104 CURVE SMOOTH",
"383 150 OFFCURVE",
"349 167 OFFCURVE",
"324 167 CURVE SMOOTH",
"299 167 OFFCURVE",
"266 150 OFFCURVE",
"266 104 CURVE SMOOTH",
"266 70 OFFCURVE",
"274 67 OFFCURVE",
"274 34 CURVE SMOOTH",
"274 27 OFFCURVE",
"274 17 OFFCURVE",
"271 11 CURVE",
"241 2 OFFCURVE",
"213 -1 OFFCURVE",
"194 -1 CURVE SMOOTH",
"105 -1 OFFCURVE",
"50 74 OFFCURVE"
);
},
{
closed = 1;
nodes = (
"5 270 CURVE",
"5 301 LINE",
"272 301 LINE",
"302 276 LINE",
"144 276 LINE SMOOTH",
"75 275 OFFCURVE",
"21 273 OFFCURVE"
);
},
{
closed = 1;
nodes = (
"373 303 CURVE",
"386 307 OFFCURVE",
"410 309 OFFCURVE",
"435 309 CURVE SMOOTH",
"468 309 OFFCURVE",
"500 304 OFFCURVE",
"513 299 CURVE",
"525 312 OFFCURVE",
"527 326 OFFCURVE",
"527 338 CURVE SMOOTH",
"527 370 OFFCURVE",
"494 384 OFFCURVE",
"459 384 CURVE SMOOTH",
"408 384 OFFCURVE",
"378 357 OFFCURVE"
);
}
);
width = 661;
},
{
anchors = (
{
name = _cursive;
position = "{54, 0}";
}
);
layerId = "AA78C373-A874-4B43-A7A1-B39102DDD1E4";
paths = (
{
closed = 1;
nodes = (
"50 150 CURVE SMOOTH",
"50 220 OFFCURVE",
"90 260 OFFCURVE",
"141 276 CURVE",
"174 288 OFFCURVE",
"227 301 OFFCURVE",
"263 301 CURVE SMOOTH",
"271 301 LINE",
"271 303 OFFCURVE",
"272 303 OFFCURVE",
"272 305 CURVE SMOOTH",
"272 347 OFFCURVE",
"244 378 OFFCURVE",
"208 378 CURVE SMOOTH",
"186 378 OFFCURVE",
"172 366 OFFCURVE",
"165 347 CURVE SMOOTH",
"158 326 OFFCURVE",
"143 312 OFFCURVE",
"118 312 CURVE SMOOTH",
"96 312 OFFCURVE",
"80 326 OFFCURVE",
"80 351 CURVE SMOOTH",
"80 397 OFFCURVE",
"129 421 OFFCURVE",
"183 421 CURVE SMOOTH",
"269 421 OFFCURVE",
"306 360 OFFCURVE",
"306 286 CURVE SMOOTH",
"306 283 OFFCURVE",
"306 276 OFFCURVE",
"306 273 CURVE",
"219 273 LINE SMOOTH",
"160 273 OFFCURVE",
"109 239 OFFCURVE",
"109 196 CURVE SMOOTH",
"109 153 OFFCURVE",
"143 135 OFFCURVE",
"178 135 CURVE SMOOTH",
"209 135 OFFCURVE",
"227 139 OFFCURVE",
"235 146 CURVE",
"235 153 OFFCURVE",
"236 160 OFFCURVE",
"239 169 CURVE SMOOTH",
"250 207 OFFCURVE",
"283 227 OFFCURVE",
"324 227 CURVE SMOOTH",
"365 227 OFFCURVE",
"398 207 OFFCURVE",
"409 169 CURVE SMOOTH",
"412 160 OFFCURVE",
"413 153 OFFCURVE",
"413 146 CURVE",
"421 139 OFFCURVE",
"440 135 OFFCURVE",
"471 135 CURVE SMOOTH",
"514 135 OFFCURVE",
"556 160 OFFCURVE",
"556 209 CURVE SMOOTH",
"556 245 OFFCURVE",
"523 281 OFFCURVE",
"438 281 CURVE SMOOTH",
"403 281 OFFCURVE",
"377 279 OFFCURVE",
"345 272 CURVE",
"345 276 OFFCURVE",
"344 280 OFFCURVE",
"344 284 CURVE SMOOTH",
"344 366 OFFCURVE",
"391 422 OFFCURVE",
"467 422 CURVE SMOOTH",
"520 422 OFFCURVE",
"565 396 OFFCURVE",
"565 343 CURVE SMOOTH",
"565 322 OFFCURVE",
"556 301 OFFCURVE",
"537 290 CURVE",
"583 267 OFFCURVE",
"613 216 OFFCURVE",
"613 162 CURVE SMOOTH",
"613 57 OFFCURVE",
"543 0 OFFCURVE",
"453 0 CURVE SMOOTH",
"430 0 OFFCURVE",
"402 4 OFFCURVE",
"372 12 CURVE",
"369 16 OFFCURVE",
"368 39 OFFCURVE",
"368 46 CURVE SMOOTH",
"368 82 OFFCURVE",
"383 93 OFFCURVE",
"383 131 CURVE SMOOTH",
"383 167 OFFCURVE",
"367 195 OFFCURVE",
"324 195 CURVE SMOOTH",
"281 195 OFFCURVE",
"266 167 OFFCURVE",
"266 131 CURVE SMOOTH",
"266 93 OFFCURVE",
"280 82 OFFCURVE",
"280 46 CURVE SMOOTH",
"280 39 OFFCURVE",
"279 16 OFFCURVE",
"276 12 CURVE",
"246 4 OFFCURVE",
"218 0 OFFCURVE",
"195 0 CURVE SMOOTH",
"106 0 OFFCURVE",
"50 74 OFFCURVE"
);
},
{
closed = 1;
nodes = (
"5 267 CURVE",
"5 301 LINE",
"270 301 LINE",
"302 273 LINE",
"144 273 LINE SMOOTH",
"75 272 OFFCURVE",
"21 270 OFFCURVE"
);
},
{
closed = 1;
nodes = (
"376 303 CURVE",
"389 307 OFFCURVE",
"410 309 OFFCURVE",
"435 309 CURVE SMOOTH",
"468 309 OFFCURVE",
"495 305 OFFCURVE",
"509 300 CURVE",
"518 307 OFFCURVE",
"524 318 OFFCURVE",
"524 336 CURVE SMOOTH",
"524 367 OFFCURVE",
"488 381 OFFCURVE",
"460 381 CURVE SMOOTH",
"409 381 OFFCURVE",
"381 356 OFFCURVE"
);
}
);
width = 661;
}
);
unicode = 0D9D;
}
{
glyphname = sinHa;
layers = (
{
anchors = (
{
name = _cursive;
position = "{42, 0}";
}
);
layerId = "C18F3EFD-FA9C-4751-AD2F-5B966120D1A5";
paths = (
{
closed = 1;
nodes = (
"32 151 CURVE SMOOTH",
"32 240 OFFCURVE",
"97 296 OFFCURVE",
"189 296 CURVE SMOOTH",
"193 296 OFFCURVE",
"197 296 OFFCURVE",
"201 296 CURVE",
"201 337 OFFCURVE",
"178 374 OFFCURVE",
"141 374 CURVE SMOOTH",
"120 374 OFFCURVE",
"110 363 OFFCURVE",
"104 348 CURVE SMOOTH",
"98 332 OFFCURVE",
"85 319 OFFCURVE",
"64 319 CURVE SMOOTH",
"44 319 OFFCURVE",
"32 333 OFFCURVE",
"32 355 CURVE SMOOTH",
"32 384 OFFCURVE",
"59 422 OFFCURVE",
"115 422 CURVE SMOOTH",
"192 422 OFFCURVE",
"232 351 OFFCURVE",
"233 271 CURVE",
"221 272 OFFCURVE",
"211 273 OFFCURVE",
"200 273 CURVE SMOOTH",
"122 273 OFFCURVE",
"68 239 OFFCURVE",
"68 171 CURVE SMOOTH",
"68 103 OFFCURVE",
"131 70 OFFCURVE",
"203 70 CURVE SMOOTH",
"267 70 OFFCURVE",
"322 98 OFFCURVE",
"322 160 CURVE SMOOTH",
"322 190 OFFCURVE",
"308 207 OFFCURVE",
"288 207 CURVE SMOOTH",
"275 207 OFFCURVE",
"262 199 OFFCURVE",
"255 178 CURVE",
"233 188 LINE",
"242 310 OFFCURVE",
"321 422 OFFCURVE",
"420 422 CURVE SMOOTH",
"529 422 OFFCURVE",
"591 321 OFFCURVE",
"591 206 CURVE SMOOTH",
"591 90 OFFCURVE",
"504 -1 OFFCURVE",
"384 -1 CURVE SMOOTH",
"371 -1 OFFCURVE",
"358 0 OFFCURVE",
"344 2 CURVE",
"344 28 LINE",
"356 26 OFFCURVE",
"367 25 OFFCURVE",
"379 25 CURVE SMOOTH",
"476 25 OFFCURVE",
"544 91 OFFCURVE",
"544 188 CURVE SMOOTH",
"544 281 OFFCURVE",
"493 354 OFFCURVE",
"404 354 CURVE SMOOTH",
"333 354 OFFCURVE",
"286 311 OFFCURVE",
"265 224 CURVE",
"275 230 OFFCURVE",
"284 231 OFFCURVE",
"293 231 CURVE SMOOTH",
"330 231 OFFCURVE",
"357 195 OFFCURVE",
"357 142 CURVE SMOOTH",
"357 52 OFFCURVE",
"288 -1 OFFCURVE",
"196 -1 CURVE SMOOTH",
"100 -1 OFFCURVE",
"32 59 OFFCURVE"
);
}
);
width = 637;
},
{
anchors = (
{
name = _cursive;
position = "{42, 0}";
}
);
layerId = "AA78C373-A874-4B43-A7A1-B39102DDD1E4";
paths = (
{
closed = 1;
nodes = (
"32 151 CURVE SMOOTH",
"32 240 OFFCURVE",
"97 296 OFFCURVE",
"189 296 CURVE SMOOTH",
"193 296 OFFCURVE",
"195 296 OFFCURVE",
"199 296 CURVE",
"199 334 OFFCURVE",
"175 369 OFFCURVE",
"148 369 CURVE SMOOTH",
"133 369 OFFCURVE",
"120 365 OFFCURVE",
"111 344 CURVE SMOOTH",
"103 325 OFFCURVE",
"88 315 OFFCURVE",
"72 315 CURVE SMOOTH",
"51 315 OFFCURVE",
"32 328 OFFCURVE",
"32 355 CURVE SMOOTH",
"32 385 OFFCURVE",
"61 422 OFFCURVE",
"116 422 CURVE SMOOTH",
"193 422 OFFCURVE",
"233 352 OFFCURVE",
"233 270 CURVE",
"222 271 OFFCURVE",
"211 272 OFFCURVE",
"200 272 CURVE SMOOTH",
"122 272 OFFCURVE",
"92 237 OFFCURVE",
"92 206 CURVE SMOOTH",
"92 154 OFFCURVE",
"154 136 OFFCURVE",
"207 136 CURVE SMOOTH",
"244 136 OFFCURVE",
"311 149 OFFCURVE",
"311 186 CURVE SMOOTH",
"311 204 OFFCURVE",
"300 210 OFFCURVE",
"289 210 CURVE SMOOTH",
"275 210 OFFCURVE",
"265 203 OFFCURVE",
"258 182 CURVE",
"233 190 LINE",
"242 312 OFFCURVE",
"321 422 OFFCURVE",
"420 422 CURVE SMOOTH",
"529 422 OFFCURVE",
"591 321 OFFCURVE",
"591 206 CURVE SMOOTH",
"591 90 OFFCURVE",
"504 -1 OFFCURVE",
"384 -1 CURVE SMOOTH",
"371 -1 OFFCURVE",
"358 0 OFFCURVE",
"344 2 CURVE",
"344 30 LINE",
"356 28 OFFCURVE",
"368 28 OFFCURVE",
"379 28 CURVE SMOOTH",
"466 28 OFFCURVE",
"485 109 OFFCURVE",
"485 162 CURVE SMOOTH",
"485 224 OFFCURVE",
"453 307 OFFCURVE",
"365 307 CURVE SMOOTH",
"292 307 OFFCURVE",
"276 257 OFFCURVE",
"267 229 CURVE",
"277 234 OFFCURVE",
"285 236 OFFCURVE",
"294 236 CURVE SMOOTH",
"334 236 OFFCURVE",
"358 195 OFFCURVE",
"358 142 CURVE SMOOTH",
"358 52 OFFCURVE",
"288 -1 OFFCURVE",
"196 -1 CURVE SMOOTH",
"101 -1 OFFCURVE",
"32 59 OFFCURVE"
);
}
);
width = 637;
}
);
unicode = 0DC4;
}
{
glyphname = sinI;
layers = (
{
layerId = "C18F3EFD-FA9C-4751-AD2F-5B966120D1A5";
paths = (
{
closed = 1;
nodes = (
"111 53 OFFCURVE",
"32 114 OFFCURVE",
"32 216 CURVE SMOOTH",
"32 349 OFFCURVE",
"144 422 OFFCURVE",
"277 422 CURVE SMOOTH",
"425 422 OFFCURVE",
"531 344 OFFCURVE",
"531 193 CURVE SMOOTH",
"531 89 OFFCURVE",
"462 10 OFFCURVE",
"375 -6 CURVE",
"407 -12 OFFCURVE",
"429 -35 OFFCURVE",
"429 -73 CURVE SMOOTH",
"429 -132 OFFCURVE",
"355 -156 OFFCURVE",
"291 -156 CURVE SMOOTH",
"230 -156 OFFCURVE",
"169 -136 OFFCURVE",
"169 -74 CURVE SMOOTH",
"169 -50 OFFCURVE",
"185 -37 OFFCURVE",
"202 -37 CURVE SMOOTH",
"217 -37 OFFCURVE",
"229 -46 OFFCURVE",
"229 -63 CURVE SMOOTH",
"229 -69 OFFCURVE",
"226 -80 OFFCURVE",
"226 -92 CURVE SMOOTH",
"226 -112 OFFCURVE",
"236 -134 OFFCURVE",
"293 -134 CURVE SMOOTH",
"331 -134 OFFCURVE",
"366 -118 OFFCURVE",
"366 -81 CURVE SMOOTH",
"366 -39 OFFCURVE",
"326 -15 OFFCURVE",
"261 -15 CURVE SMOOTH",
"252 -15 OFFCURVE",
"253 -15 OFFCURVE",
"243 -16 CURVE",
"243 12 LINE",
"255 13 OFFCURVE",
"256 13 OFFCURVE",
"267 13 CURVE SMOOTH",
"284 13 OFFCURVE",
"298 11 OFFCURVE",
"316 11 CURVE SMOOTH",
"413 11 OFFCURVE",
"494 71 OFFCURVE",
"494 175 CURVE SMOOTH",
"494 285 OFFCURVE",
"395 349 OFFCURVE",
"278 349 CURVE SMOOTH",
"171 349 OFFCURVE",
"71 302 OFFCURVE",
"71 199 CURVE SMOOTH",
"71 130 OFFCURVE",
"134 79 OFFCURVE",
"218 79 CURVE SMOOTH",
"270 79 OFFCURVE",
"309 94 OFFCURVE",
"325 117 CURVE",
"310 105 OFFCURVE",
"292 103 OFFCURVE",
"278 103 CURVE SMOOTH",
"238 103 OFFCURVE",
"203 136 OFFCURVE",
"203 175 CURVE SMOOTH",
"203 220 OFFCURVE",
"236 254 OFFCURVE",
"279 254 CURVE SMOOTH",
"335 254 OFFCURVE",
"367 217 OFFCURVE",
"367 166 CURVE SMOOTH",
"367 88 OFFCURVE",
"303 53 OFFCURVE",
"215 53 CURVE SMOOTH"
);
},
{
closed = 1;
nodes = (
"254 227 OFFCURVE",
"231 204 OFFCURVE",
"231 178 CURVE SMOOTH",
"231 151 OFFCURVE",
"255 129 OFFCURVE",
"281 129 CURVE SMOOTH",
"308 129 OFFCURVE",
"331 152 OFFCURVE",
"331 178 CURVE SMOOTH",
"331 205 OFFCURVE",
"307 227 OFFCURVE",
"281 227 CURVE SMOOTH"
);
}
);
width = 579;
},
{
layerId = "AA78C373-A874-4B43-A7A1-B39102DDD1E4";
paths = (
{
closed = 1;
nodes = (
"111 53 OFFCURVE",
"32 114 OFFCURVE",
"32 216 CURVE SMOOTH",
"32 349 OFFCURVE",
"145 422 OFFCURVE",
"278 422 CURVE SMOOTH",
"427 422 OFFCURVE",
"531 345 OFFCURVE",
"531 194 CURVE SMOOTH",
"531 91 OFFCURVE",
"462 10 OFFCURVE",
"375 -6 CURVE",
"408 -12 OFFCURVE",
"429 -35 OFFCURVE",
"429 -73 CURVE SMOOTH",
"429 -131 OFFCURVE",
"355 -157 OFFCURVE",
"291 -157 CURVE SMOOTH",
"230 -157 OFFCURVE",
"169 -136 OFFCURVE",
"169 -74 CURVE SMOOTH",
"169 -49 OFFCURVE",
"187 -38 OFFCURVE",
"203 -38 CURVE SMOOTH",
"218 -38 OFFCURVE",
"233 -46 OFFCURVE",
"233 -63 CURVE SMOOTH",
"233 -68 OFFCURVE",
"230 -80 OFFCURVE",
"230 -92 CURVE SMOOTH",
"230 -112 OFFCURVE",
"241 -132 OFFCURVE",
"293 -132 CURVE SMOOTH",
"331 -132 OFFCURVE",
"354 -113 OFFCURVE",
"354 -81 CURVE SMOOTH",
"354 -43 OFFCURVE",
"326 -14 OFFCURVE",
"261 -14 CURVE SMOOTH",
"252 -14 OFFCURVE",
"252 -15 OFFCURVE",
"243 -16 CURVE",
"243 14 LINE",
"254 15 OFFCURVE",
"257 15 OFFCURVE",
"267 15 CURVE SMOOTH",
"283 15 OFFCURVE",
"298 13 OFFCURVE",
"315 13 CURVE SMOOTH",
"410 13 OFFCURVE",
"460 85 OFFCURVE",
"460 158 CURVE SMOOTH",
"460 242 OFFCURVE",
"398 314 OFFCURVE",
"278 314 CURVE SMOOTH",
"170 314 OFFCURVE",
"106 267 OFFCURVE",
"106 186 CURVE SMOOTH",
"106 141 OFFCURVE",
"146 81 OFFCURVE",
"230 81 CURVE SMOOTH",
"269 81 OFFCURVE",
"302 89 OFFCURVE",
"318 108 CURVE",
"307 99 OFFCURVE",
"292 96 OFFCURVE",
"278 96 CURVE SMOOTH",
"235 96 OFFCURVE",
"201 130 OFFCURVE",
"201 169 CURVE SMOOTH",
"201 214 OFFCURVE",
"235 249 OFFCURVE",
"280 249 CURVE SMOOTH",
"336 249 OFFCURVE",
"369 213 OFFCURVE",
"369 160 CURVE SMOOTH",
"369 82 OFFCURVE",
"303 53 OFFCURVE",
"215 53 CURVE SMOOTH"
);
},
{
closed = 1;
nodes = (
"254 220 OFFCURVE",
"232 198 OFFCURVE",
"232 172 CURVE SMOOTH",
"232 145 OFFCURVE",
"255 124 OFFCURVE",
"281 124 CURVE SMOOTH",
"308 124 OFFCURVE",
"330 146 OFFCURVE",
"330 172 CURVE SMOOTH",
"330 199 OFFCURVE",
"307 220 OFFCURVE",
"281 220 CURVE SMOOTH"
);
}
);
width = 579;
}
);
unicode = 0D89;
}
{
glyphname = sinIi;
layers = (
{
layerId = "C18F3EFD-FA9C-4751-AD2F-5B966120D1A5";
paths = (
{
closed = 1;
nodes = (
"400 457 CURVE SMOOTH",
"400 436 OFFCURVE",
"417 420 OFFCURVE",
"438 420 CURVE SMOOTH",
"459 420 OFFCURVE",
"475 436 OFFCURVE",
"475 457 CURVE SMOOTH",
"475 478 OFFCURVE",
"459 494 OFFCURVE",
"438 494 CURVE SMOOTH",
"417 494 OFFCURVE",
"400 478 OFFCURVE"
);
},
{
closed = 1;
nodes = (
"374 457 CURVE SMOOTH",
"374 492 OFFCURVE",
"403 520 OFFCURVE",
"438 520 CURVE SMOOTH",
"473 520 OFFCURVE",
"500 492 OFFCURVE",
"500 457 CURVE SMOOTH",
"500 422 OFFCURVE",
"473 395 OFFCURVE",
"438 395 CURVE SMOOTH",
"403 395 OFFCURVE",
"374 422 OFFCURVE"
);
},
{
closed = 1;
nodes = (
"142 525 CURVE SMOOTH",
"142 504 OFFCURVE",
"158 488 OFFCURVE",
"179 488 CURVE SMOOTH",
"200 488 OFFCURVE",
"216 504 OFFCURVE",
"216 525 CURVE SMOOTH",
"216 546 OFFCURVE",
"200 562 OFFCURVE",
"179 562 CURVE SMOOTH",
"158 562 OFFCURVE",
"142 546 OFFCURVE"
);
},
{
closed = 1;
nodes = (
"115 525 CURVE SMOOTH",
"115 560 OFFCURVE",
"144 588 OFFCURVE",
"179 588 CURVE SMOOTH",
"214 588 OFFCURVE",
"241 560 OFFCURVE",
"241 525 CURVE SMOOTH",
"241 490 OFFCURVE",
"214 463 OFFCURVE",
"179 463 CURVE SMOOTH",
"144 463 OFFCURVE",
"115 490 OFFCURVE"
);
},
{
closed = 1;
nodes = (
"30 208 CURVE SMOOTH",
"30 315 OFFCURVE",
"93 371 OFFCURVE",
"166 412 CURVE SMOOTH",
"218 439 OFFCURVE",
"244 454 OFFCURVE",
"301 505 CURVE SMOOTH",
"347 546 OFFCURVE",
"365 608 OFFCURVE",
"399 608 CURVE SMOOTH",
"415 608 OFFCURVE",
"422 602 OFFCURVE",
"422 591 CURVE SMOOTH",
"422 571 OFFCURVE",
"400 543 OFFCURVE",
"352 503 CURVE SMOOTH",
"320 477 OFFCURVE",
"283 450 OFFCURVE",
"241 426 CURVE",
"246 427 OFFCURVE",
"247 427 OFFCURVE",
"256 427 CURVE SMOOTH",
"325 427 OFFCURVE",
"379 402 OFFCURVE",
"420 357 CURVE SMOOTH",
"455 318 OFFCURVE",
"471 275 OFFCURVE",
"471 220 CURVE SMOOTH",
"471 100 OFFCURVE",
"375 0 OFFCURVE",
"242 0 CURVE SMOOTH",
"121 0 OFFCURVE",
"30 87 OFFCURVE"
);
},
{
closed = 1;
nodes = (
"64 231 CURVE SMOOTH",
"64 140 OFFCURVE",
"129 71 OFFCURVE",
"234 71 CURVE SMOOTH",
"337 71 OFFCURVE",
"420 145 OFFCURVE",
"420 248 CURVE SMOOTH",
"420 348 OFFCURVE",
"348 404 OFFCURVE",
"258 404 CURVE SMOOTH",
"163 404 OFFCURVE",
"64 331 OFFCURVE"
);
}
);
width = 515;
},
{
layerId = "AA78C373-A874-4B43-A7A1-B39102DDD1E4";
paths = (
{
closed = 1;
nodes = (
"401 457 CURVE SMOOTH",
"401 437 OFFCURVE",
"417 421 OFFCURVE",
"437 421 CURVE SMOOTH",
"457 421 OFFCURVE",
"474 437 OFFCURVE",
"474 457 CURVE SMOOTH",
"474 477 OFFCURVE",
"457 494 OFFCURVE",
"437 494 CURVE SMOOTH",
"417 494 OFFCURVE",
"401 477 OFFCURVE"
);
},
{
closed = 1;
nodes = (
"373 457 CURVE SMOOTH",
"373 492 OFFCURVE",
"402 521 OFFCURVE",
"437 521 CURVE SMOOTH",
"472 521 OFFCURVE",
"501 492 OFFCURVE",
"501 457 CURVE SMOOTH",
"501 422 OFFCURVE",
"472 393 OFFCURVE",
"437 393 CURVE SMOOTH",
"402 393 OFFCURVE",
"373 422 OFFCURVE"
);
},
{
closed = 1;
nodes = (
"142 526 CURVE SMOOTH",
"142 506 OFFCURVE",
"158 489 OFFCURVE",
"178 489 CURVE SMOOTH",
"198 489 OFFCURVE",
"215 506 OFFCURVE",
"215 526 CURVE SMOOTH",
"215 546 OFFCURVE",
"198 562 OFFCURVE",
"178 562 CURVE SMOOTH",
"158 562 OFFCURVE",
"142 546 OFFCURVE"
);
},
{
closed = 1;
nodes = (
"114 525 CURVE SMOOTH",
"114 560 OFFCURVE",
"143 589 OFFCURVE",
"178 589 CURVE SMOOTH",
"213 589 OFFCURVE",
"242 560 OFFCURVE",
"242 525 CURVE SMOOTH",
"242 490 OFFCURVE",
"213 461 OFFCURVE",
"178 461 CURVE SMOOTH",
"143 461 OFFCURVE",
"114 490 OFFCURVE"
);
},
{
closed = 1;
nodes = (
"30 208 CURVE SMOOTH",
"30 315 OFFCURVE",
"92 373 OFFCURVE",
"166 412 CURVE SMOOTH",
"218 439 OFFCURVE",
"250 471 OFFCURVE",
"278 506 CURVE SMOOTH",
"309 544 OFFCURVE",
"330 614 OFFCURVE",
"379 614 CURVE SMOOTH",
"404 614 OFFCURVE",
"420 597 OFFCURVE",
"420 580 CURVE SMOOTH",
"420 560 OFFCURVE",
"399 537 OFFCURVE",
"351 497 CURVE SMOOTH",
"319 470 OFFCURVE",
"287 451 OFFCURVE",
"241 426 CURVE",
"246 427 OFFCURVE",
"247 427 OFFCURVE",
"256 427 CURVE SMOOTH",
"325 427 OFFCURVE",
"378 403 OFFCURVE",
"419 358 CURVE SMOOTH",
"454 319 OFFCURVE",
"471 275 OFFCURVE",
"471 220 CURVE SMOOTH",
"471 100 OFFCURVE",
"374 0 OFFCURVE",
"242 0 CURVE SMOOTH",
"121 0 OFFCURVE",
"30 87 OFFCURVE"
);
},
{
closed = 1;
nodes = (
"77 250 CURVE SMOOTH",
"77 193 OFFCURVE",
"118 135 OFFCURVE",
"223 135 CURVE SMOOTH",
"326 135 OFFCURVE",
"396 186 OFFCURVE",
"396 284 CURVE SMOOTH",
"396 353 OFFCURVE",
"343 401 OFFCURVE",
"254 401 CURVE SMOOTH",
"178 401 OFFCURVE",
"77 344 OFFCURVE"
);
}
);
width = 515;
}
);
unicode = 0D8A;
}
{
glyphname = sinJa;
layers = (
{
anchors = (
{
name = _cursive;
position = "{47, 0}";
}
);
layerId = "C18F3EFD-FA9C-4751-AD2F-5B966120D1A5";
paths = (
{
closed = 1;
nodes = (
"32 166 CURVE SMOOTH",
"32 243 OFFCURVE",
"94 305 OFFCURVE",
"203 305 CURVE SMOOTH",
"221 305 OFFCURVE",
"221 305 OFFCURVE",
"229 304 CURVE",
"230 311 OFFCURVE",
"231 316 OFFCURVE",
"231 323 CURVE SMOOTH",
"231 353 OFFCURVE",
"215 382 OFFCURVE",
"179 382 CURVE SMOOTH",
"158 382 OFFCURVE",
"142 369 OFFCURVE",
"135 354 CURVE SMOOTH",
"124 331 OFFCURVE",
"115 314 OFFCURVE",
"89 314 CURVE SMOOTH",
"70 314 OFFCURVE",
"54 329 OFFCURVE",
"54 353 CURVE SMOOTH",
"54 401 OFFCURVE",
"104 422 OFFCURVE",
"150 422 CURVE SMOOTH",
"215 422 OFFCURVE",
"260 383 OFFCURVE",
"260 318 CURVE SMOOTH",
"260 306 OFFCURVE",
"259 294 OFFCURVE",
"256 281 CURVE",
"244 282 OFFCURVE",
"233 283 OFFCURVE",
"224 283 CURVE SMOOTH",
"108 283 OFFCURVE",
"68 228 OFFCURVE",
"68 182 CURVE SMOOTH",
"68 95 OFFCURVE",
"184 69 OFFCURVE",
"285 69 CURVE SMOOTH",
"389 69 OFFCURVE",
"502 95 OFFCURVE",
"502 182 CURVE SMOOTH",
"502 232 OFFCURVE",
"459 282 OFFCURVE",
"347 282 CURVE SMOOTH",
"326 282 OFFCURVE",
"307 279 OFFCURVE",
"293 278 CURVE",
"288 294 OFFCURVE",
"286 308 OFFCURVE",
"286 323 CURVE SMOOTH",
"286 399 OFFCURVE",
"342 424 OFFCURVE",
"409 424 CURVE SMOOTH",
"449 424 OFFCURVE",
"508 403 OFFCURVE",
"508 345 CURVE SMOOTH",
"508 317 OFFCURVE",
"491 278 OFFCURVE",
"428 278 CURVE SMOOTH",
"375 278 OFFCURVE",
"354 324 OFFCURVE",
"354 366 CURVE SMOOTH",
"354 451 OFFCURVE",
"402 519 OFFCURVE",
"445 558 CURVE SMOOTH",
"481 591 OFFCURVE",
"511 603 OFFCURVE",
"531 603 CURVE SMOOTH",
"547 603 OFFCURVE",
"555 592 OFFCURVE",
"555 582 CURVE SMOOTH",
"555 556 OFFCURVE",
"486 548 OFFCURVE",
"438 499 CURVE SMOOTH",
"416 477 OFFCURVE",
"382 433 OFFCURVE",
"382 365 CURVE SMOOTH",
"382 331 OFFCURVE",
"398 304 OFFCURVE",
"430 304 CURVE SMOOTH",
"458 304 OFFCURVE",
"478 322 OFFCURVE",
"478 347 CURVE SMOOTH",
"478 379 OFFCURVE",
"448 397 OFFCURVE",
"405 397 CURVE SMOOTH",
"336 397 OFFCURVE",
"315 365 OFFCURVE",
"315 326 CURVE SMOOTH",
"315 319 OFFCURVE",
"316 311 OFFCURVE",
"318 302 CURVE",
"326 303 OFFCURVE",
"335 304 OFFCURVE",
"348 304 CURVE SMOOTH",
"437 304 OFFCURVE",
"536 276 OFFCURVE",
"536 164 CURVE SMOOTH",
"536 44 OFFCURVE",
"414 0 OFFCURVE",
"291 0 CURVE SMOOTH",
"156 0 OFFCURVE",
"32 43 OFFCURVE"
);
}
);
width = 583;
},
{
anchors = (
{
name = _cursive;
position = "{47, 0}";
}
);
layerId = "AA78C373-A874-4B43-A7A1-B39102DDD1E4";
paths = (
{
closed = 1;
nodes = (
"32 166 CURVE SMOOTH",
"32 243 OFFCURVE",
"94 305 OFFCURVE",
"203 305 CURVE SMOOTH",
"221 305 OFFCURVE",
"220 305 OFFCURVE",
"228 304 CURVE",
"229 311 OFFCURVE",
"229 316 OFFCURVE",
"229 323 CURVE SMOOTH",
"229 345 OFFCURVE",
"219 377 OFFCURVE",
"183 377 CURVE SMOOTH",
"162 377 OFFCURVE",
"147 361 OFFCURVE",
"140 346 CURVE SMOOTH",
"129 323 OFFCURVE",
"117 312 OFFCURVE",
"95 312 CURVE SMOOTH",
"71 312 OFFCURVE",
"55 327 OFFCURVE",
"55 352 CURVE SMOOTH",
"55 400 OFFCURVE",
"104 422 OFFCURVE",
"150 422 CURVE SMOOTH",
"215 422 OFFCURVE",
"260 384 OFFCURVE",
"260 318 CURVE SMOOTH",
"260 306 OFFCURVE",
"259 291 OFFCURVE",
"256 278 CURVE",
"244 279 OFFCURVE",
"233 280 OFFCURVE",
"224 280 CURVE SMOOTH",
"108 280 OFFCURVE",
"93 236 OFFCURVE",
"93 210 CURVE SMOOTH",
"93 153 OFFCURVE",
"185 137 OFFCURVE",
"285 137 CURVE SMOOTH",
"389 137 OFFCURVE",
"474 157 OFFCURVE",
"474 215 CURVE SMOOTH",
"474 238 OFFCURVE",
"459 281 OFFCURVE",
"347 281 CURVE SMOOTH",
"326 281 OFFCURVE",
"307 279 OFFCURVE",
"293 278 CURVE",
"288 294 OFFCURVE",
"286 309 OFFCURVE",
"286 323 CURVE SMOOTH",
"286 399 OFFCURVE",
"342 424 OFFCURVE",
"409 424 CURVE SMOOTH",
"449 424 OFFCURVE",
"508 403 OFFCURVE",
"508 345 CURVE SMOOTH",
"508 317 OFFCURVE",
"491 278 OFFCURVE",
"428 278 CURVE SMOOTH",
"375 278 OFFCURVE",
"354 323 OFFCURVE",
"354 360 CURVE SMOOTH",
"354 449 OFFCURVE",
"397 523 OFFCURVE",
"440 563 CURVE SMOOTH",
"469 590 OFFCURVE",
"502 604 OFFCURVE",
"521 604 CURVE SMOOTH",
"549 604 OFFCURVE",
"555 586 OFFCURVE",
"555 573 CURVE SMOOTH",
"555 542 OFFCURVE",
"509 534 OFFCURVE",
"453 495 CURVE SMOOTH",
"422 474 OFFCURVE",
"383 425 OFFCURVE",
"383 361 CURVE SMOOTH",
"383 329 OFFCURVE",
"400 304 OFFCURVE",
"429 304 CURVE SMOOTH",
"457 304 OFFCURVE",
"478 321 OFFCURVE",
"478 347 CURVE SMOOTH",
"478 379 OFFCURVE",
"448 396 OFFCURVE",
"405 396 CURVE SMOOTH",
"336 396 OFFCURVE",
"316 365 OFFCURVE",
"316 326 CURVE SMOOTH",
"316 319 OFFCURVE",
"317 311 OFFCURVE",
"319 302 CURVE",
"327 303 OFFCURVE",
"335 304 OFFCURVE",
"348 304 CURVE SMOOTH",
"437 304 OFFCURVE",
"536 276 OFFCURVE",
"536 164 CURVE SMOOTH",
"536 44 OFFCURVE",
"414 0 OFFCURVE",
"291 0 CURVE SMOOTH",
"156 0 OFFCURVE",
"32 43 OFFCURVE"
);
}
);
width = 583;
}
);
unicode = 0DA2;
}
{
glyphname = sinKa;
layers = (
{
anchors = (
{
name = _cursive;
position = "{67, -1}";
}
);
layerId = "C18F3EFD-FA9C-4751-AD2F-5B966120D1A5";
paths = (
{
closed = 1;
nodes = (
"21 21 LINE",
"29 88 OFFCURVE",
"72 180 OFFCURVE",
"106 227 CURVE SMOOTH",
"131 262 OFFCURVE",
"146 275 OFFCURVE",
"164 294 CURVE",
"176 307 OFFCURVE",
"188 323 OFFCURVE",
"188 344 CURVE SMOOTH",
"188 365 OFFCURVE",
"178 383 OFFCURVE",
"154 383 CURVE SMOOTH",
"140 383 OFFCURVE",
"119 375 OFFCURVE",
"113 354 CURVE SMOOTH",
"106 332 OFFCURVE",
"111 332 OFFCURVE",
"104 315 CURVE SMOOTH",
"97 297 OFFCURVE",
"82 290 OFFCURVE",
"67 290 CURVE SMOOTH",
"34 290 OFFCURVE",
"28 320 OFFCURVE",
"28 332 CURVE SMOOTH",
"28 385 OFFCURVE",
"77 423 OFFCURVE",
"133 423 CURVE SMOOTH",
"182 423 OFFCURVE",
"215 393 OFFCURVE",
"215 348 CURVE SMOOTH",
"215 343 OFFCURVE",
"215 338 OFFCURVE",
"214 333 CURVE",
"275 392 OFFCURVE",
"357 424 OFFCURVE",
"442 424 CURVE SMOOTH",
"588 424 OFFCURVE",
"685 321 OFFCURVE",
"685 188 CURVE SMOOTH",
"685 108 OFFCURVE",
"644 -1 OFFCURVE",
"543 -1 CURVE SMOOTH",
"527 -1 OFFCURVE",
"506 2 OFFCURVE",
"494 11 CURVE",
"494 37 LINE",
"504 30 OFFCURVE",
"521 25 OFFCURVE",
"544 25 CURVE SMOOTH",
"593 25 OFFCURVE",
"634 78 OFFCURVE",
"634 149 CURVE SMOOTH",
"634 278 OFFCURVE",
"522 359 OFFCURVE",
"391 359 CURVE SMOOTH",
"320 359 OFFCURVE",
"260 340 OFFCURVE",
"214 301 CURVE",
"237 307 OFFCURVE",
"269 309 OFFCURVE",
"295 309 CURVE SMOOTH",
"412 309 OFFCURVE",
"503 245 OFFCURVE",
"503 123 CURVE SMOOTH",
"503 66 OFFCURVE",
"471 -1 OFFCURVE",
"388 -1 CURVE SMOOTH",
"343 -1 OFFCURVE",
"310 20 OFFCURVE",
"289 62 CURVE",
"272 22 OFFCURVE",
"240 -1 OFFCURVE",
"199 -1 CURVE SMOOTH",
"114 -1 OFFCURVE",
"117 71 OFFCURVE",
"85 71 CURVE SMOOTH",
"64 71 OFFCURVE",
"49 50 OFFCURVE",
"46 11 CURVE"
);
},
{
closed = 1;
nodes = (
"98 167 OFFCURVE",
"79 129 OFFCURVE",
"68 93 CURVE",
"74 96 OFFCURVE",
"80 98 OFFCURVE",
"87 98 CURVE SMOOTH",
"115 98 OFFCURVE",
"138 69 OFFCURVE",
"194 69 CURVE SMOOTH",
"244 69 OFFCURVE",
"274 99 OFFCURVE",
"274 158 CURVE SMOOTH",
"274 160 OFFCURVE",
"274 157 OFFCURVE",
"274 159 CURVE",
"300 159 LINE",
"300 158 OFFCURVE",
"300 159 OFFCURVE",
"300 158 CURVE SMOOTH",
"300 95 OFFCURVE",
"326 69 OFFCURVE",
"383 69 CURVE SMOOTH",
"444 69 OFFCURVE",
"463 120 OFFCURVE",
"463 155 CURVE SMOOTH",
"463 236 OFFCURVE",
"392 284 OFFCURVE",
"291 284 CURVE SMOOTH",
"235 284 OFFCURVE",
"199 276 OFFCURVE",
"178 267 CURVE",
"161 252 OFFCURVE",
"142 229 OFFCURVE",
"126 207 CURVE SMOOTH"
);
}
);
width = 728;
},
{
anchors = (
{
name = _cursive;
position = "{67, -1}";
}
);
layerId = "AA78C373-A874-4B43-A7A1-B39102DDD1E4";
paths = (
{
closed = 1;
nodes = (
"21 21 LINE",
"29 89 OFFCURVE",
"72 180 OFFCURVE",
"106 227 CURVE SMOOTH",
"131 262 OFFCURVE",
"145 274 OFFCURVE",
"167 297 CURVE",
"176 307 OFFCURVE",
"188 323 OFFCURVE",
"188 344 CURVE SMOOTH",
"188 363 OFFCURVE",
"177 377 OFFCURVE",
"154 377 CURVE SMOOTH",
"140 377 OFFCURVE",
"125 369 OFFCURVE",
"121 354 CURVE SMOOTH",
"115 333 OFFCURVE",
"119 334 OFFCURVE",
"110 315 CURVE SMOOTH",
"102 298 OFFCURVE",
"85 290 OFFCURVE",
"70 290 CURVE SMOOTH",
"34 290 OFFCURVE",
"28 320 OFFCURVE",
"28 332 CURVE SMOOTH",
"28 385 OFFCURVE",
"78 423 OFFCURVE",
"133 423 CURVE SMOOTH",
"184 423 OFFCURVE",
"215 390 OFFCURVE",
"215 350 CURVE SMOOTH",
"215 344 OFFCURVE",
"215 341 OFFCURVE",
"214 333 CURVE",
"272 387 OFFCURVE",
"357 424 OFFCURVE",
"442 424 CURVE SMOOTH",
"588 424 OFFCURVE",
"685 321 OFFCURVE",
"685 188 CURVE SMOOTH",
"685 108 OFFCURVE",
"644 0 OFFCURVE",
"540 -1 CURVE SMOOTH",
"530 -1 OFFCURVE",
"509 1 OFFCURVE",
"492 12 CURVE",
"492 39 LINE",
"506 32 OFFCURVE",
"518 29 OFFCURVE",
"530 29 CURVE SMOOTH",
"570 29 OFFCURVE",
"583 75 OFFCURVE",
"583 120 CURVE SMOOTH",
"583 281 OFFCURVE",
"458 340 OFFCURVE",
"350 340 CURVE SMOOTH",
"288 340 OFFCURVE",
"238 322 OFFCURVE",
"209 297 CURVE",
"238 305 OFFCURVE",
"271 307 OFFCURVE",
"298 307 CURVE SMOOTH",
"415 307 OFFCURVE",
"503 244 OFFCURVE",
"503 123 CURVE SMOOTH",
"503 66 OFFCURVE",
"471 -1 OFFCURVE",
"388 -1 CURVE SMOOTH",
"343 -1 OFFCURVE",
"310 20 OFFCURVE",
"289 62 CURVE",
"272 22 OFFCURVE",
"240 -1 OFFCURVE",
"199 -1 CURVE SMOOTH",
"114 -1 OFFCURVE",
"117 71 OFFCURVE",
"85 71 CURVE SMOOTH",
"63 71 OFFCURVE",
"51 50 OFFCURVE",
"48 11 CURVE"
);
},
{
closed = 1;
nodes = (
"102 168 OFFCURVE",
"99 160 OFFCURVE",
"89 140 CURVE",
"101 150 OFFCURVE",
"112 156 OFFCURVE",
"126 156 CURVE SMOOTH",
"157 156 OFFCURVE",
"168 137 OFFCURVE",
"207 137 CURVE SMOOTH",
"252 137 OFFCURVE",
"273 153 OFFCURVE",
"273 209 CURVE SMOOTH",
"273 211 OFFCURVE",
"273 209 OFFCURVE",
"273 211 CURVE",
"301 211 LINE",
"301 210 OFFCURVE",
"301 211 OFFCURVE",
"301 210 CURVE SMOOTH",
"301 150 OFFCURVE",
"324 137 OFFCURVE",
"368 137 CURVE SMOOTH",
"408 137 OFFCURVE",
"433 165 OFFCURVE",
"433 199 CURVE SMOOTH",
"433 240 OFFCURVE",
"393 280 OFFCURVE",
"294 280 CURVE SMOOTH",
"239 280 OFFCURVE",
"200 274 OFFCURVE",
"176 262 CURVE",
"159 248 OFFCURVE",
"143 229 OFFCURVE",
"128 207 CURVE SMOOTH"
);
}
);
width = 728;
}
);
unicode = 0D9A;
}
{
glyphname = sinKha;
layers = (
{
anchors = (
{
name = _cursive;
position = "{38, 0}";
}
);
layerId = "C18F3EFD-FA9C-4751-AD2F-5B966120D1A5";
paths = (
{
closed = 1;
nodes = (
"91 70 CURVE SMOOTH",
"91 47 OFFCURVE",
"110 28 OFFCURVE",
"133 28 CURVE SMOOTH",
"156 28 OFFCURVE",
"175 47 OFFCURVE",
"175 70 CURVE SMOOTH",
"175 93 OFFCURVE",
"156 112 OFFCURVE",
"133 112 CURVE SMOOTH",
"110 112 OFFCURVE",
"91 93 OFFCURVE"
);
},
{
closed = 1;
nodes = (
"31 179 CURVE SMOOTH",
"31 315 OFFCURVE",
"121 387 OFFCURVE",
"234 387 CURVE SMOOTH",
"325 387 OFFCURVE",
"403 335 OFFCURVE",
"403 252 CURVE SMOOTH",
"403 196 OFFCURVE",
"376 149 OFFCURVE",
"338 112 CURVE",
"341 113 OFFCURVE",
"344 113 OFFCURVE",
"347 113 CURVE SMOOTH",
"375 113 OFFCURVE",
"381 65 OFFCURVE",
"424 65 CURVE SMOOTH",
"488 65 OFFCURVE",
"533 193 OFFCURVE",
"533 294 CURVE SMOOTH",
"533 456 OFFCURVE",
"434 562 OFFCURVE",
"287 562 CURVE SMOOTH",
"200 562 OFFCURVE",
"136 530 OFFCURVE",
"95 459 CURVE",
"62 459 LINE",
"106 540 OFFCURVE",
"182 587 OFFCURVE",
"291 587 CURVE SMOOTH",
"453 587 OFFCURVE",
"570 462 OFFCURVE",
"570 279 CURVE SMOOTH",
"570 146 OFFCURVE",
"511 0 OFFCURVE",
"406 0 CURVE SMOOTH",
"344 0 OFFCURVE",
"339 53 OFFCURVE",
"313 53 CURVE SMOOTH",
"300 53 OFFCURVE",
"275 33 OFFCURVE",
"234 -21 CURVE",
"199 -18 LINE",
"212 -5 OFFCURVE",
"240 33 OFFCURVE",
"281 82 CURVE SMOOTH",
"332 143 OFFCURVE",
"358 190 OFFCURVE",
"358 227 CURVE SMOOTH",
"358 280 OFFCURVE",
"320 312 OFFCURVE",
"230 312 CURVE SMOOTH",
"152 312 OFFCURVE",
"62 265 OFFCURVE",
"62 152 CURVE SMOOTH",
"62 140 OFFCURVE",
"64 116 OFFCURVE",
"70 99 CURVE",
"78 126 OFFCURVE",
"106 142 OFFCURVE",
"132 142 CURVE SMOOTH",
"177 142 OFFCURVE",
"205 113 OFFCURVE",
"205 70 CURVE SMOOTH",
"205 36 OFFCURVE",
"176 -1 OFFCURVE",
"138 -1 CURVE SMOOTH",
"55 -1 OFFCURVE",
"31 106 OFFCURVE"
);
}
);
width = 615;
},
{
anchors = (
{
name = _cursive;
position = "{38, 0}";
}
);
layerId = "AA78C373-A874-4B43-A7A1-B39102DDD1E4";
paths = (
{
closed = 1;
nodes = (
"91 71 CURVE SMOOTH",
"91 48 OFFCURVE",
"111 29 OFFCURVE",
"134 29 CURVE SMOOTH",
"157 29 OFFCURVE",
"176 48 OFFCURVE",
"176 71 CURVE SMOOTH",
"176 94 OFFCURVE",
"157 114 OFFCURVE",
"134 114 CURVE SMOOTH",
"111 114 OFFCURVE",
"91 94 OFFCURVE"
);
},
{
closed = 1;
nodes = (
"31 179 CURVE SMOOTH",
"31 315 OFFCURVE",
"121 387 OFFCURVE",
"234 387 CURVE SMOOTH",
"325 387 OFFCURVE",
"403 335 OFFCURVE",
"403 252 CURVE SMOOTH",
"403 196 OFFCURVE",
"379 168 OFFCURVE",
"372 157 CURVE",
"375 158 OFFCURVE",
"378 158 OFFCURVE",
"381 158 CURVE SMOOTH",
"409 158 OFFCURVE",
"401 133 OFFCURVE",
"434 133 CURVE SMOOTH",
"493 133 OFFCURVE",
"520 210 OFFCURVE",
"520 311 CURVE SMOOTH",
"520 445 OFFCURVE",
"434 561 OFFCURVE",
"287 561 CURVE SMOOTH",
"200 561 OFFCURVE",
"137 527 OFFCURVE",
"97 459 CURVE",
"62 459 LINE",
"106 540 OFFCURVE",
"182 587 OFFCURVE",
"291 587 CURVE SMOOTH",
"453 587 OFFCURVE",
"570 462 OFFCURVE",
"570 279 CURVE SMOOTH",
"570 146 OFFCURVE",
"511 0 OFFCURVE",
"406 0 CURVE SMOOTH",
"344 0 OFFCURVE",
"339 53 OFFCURVE",
"313 53 CURVE SMOOTH",
"300 53 OFFCURVE",
"277 33 OFFCURVE",
"236 -21 CURVE",
"197 -18 LINE",
"210 -5 OFFCURVE",
"238 33 OFFCURVE",
"279 82 CURVE SMOOTH",
"330 143 OFFCURVE",
"339 175 OFFCURVE",
"339 195 CURVE SMOOTH",
"339 229 OFFCURVE",
"320 269 OFFCURVE",
"230 269 CURVE SMOOTH",
"145 269 OFFCURVE",
"68 220 OFFCURVE",
"68 137 CURVE SMOOTH",
"68 125 OFFCURVE",
"68 116 OFFCURVE",
"71 104 CURVE",
"80 129 OFFCURVE",
"105 145 OFFCURVE",
"134 145 CURVE SMOOTH",
"175 145 OFFCURVE",
"207 117 OFFCURVE",
"207 72 CURVE SMOOTH",
"207 36 OFFCURVE",
"178 -1 OFFCURVE",
"138 -1 CURVE SMOOTH",
"55 -1 OFFCURVE",
"31 106 OFFCURVE"
);
}
);
width = 615;
}
);
unicode = 0D9B;
}
{
glyphname = sinKundaliya;
layers = (
{
layerId = "C18F3EFD-FA9C-4751-AD2F-5B966120D1A5";
paths = (
{
closed = 1;
nodes = (
"1266 45 CURVE",
"1291 133 LINE",
"1146 43 LINE",
"1175 176 LINE",
"1022 75 LINE",
"1040 237 LINE",
"886 92 LINE",
"872 264 LINE",
"740 119 LINE",
"711 261 LINE",
"582 115 LINE",
"555 224 LINE",
"444 78 LINE",
"415 162 LINE",
"354 55 LINE",
"341 77 OFFCURVE",
"329 88 OFFCURVE",
"317 88 CURVE SMOOTH",
"255 88 OFFCURVE",
"208 -2 OFFCURVE",
"123 -2 CURVE SMOOTH",
"84 -2 OFFCURVE",
"50 23 OFFCURVE",
"50 62 CURVE SMOOTH",
"50 97 OFFCURVE",
"73 117 OFFCURVE",
"100 117 CURVE SMOOTH",
"127 117 OFFCURVE",
"146 94 OFFCURVE",
"146 69 CURVE SMOOTH",
"146 53 OFFCURVE",
"140 37 OFFCURVE",
"127 27 CURVE",
"130 23 OFFCURVE",
"136 21 OFFCURVE",
"145 21 CURVE SMOOTH",
"195 21 OFFCURVE",
"271 123 OFFCURVE",
"324 123 CURVE SMOOTH",
"334 123 OFFCURVE",
"351 121 OFFCURVE",
"360 104 CURVE",
"437 238 LINE",
"470 143 LINE",
"592 306 LINE",
"621 188 LINE",
"754 341 LINE",
"783 195 LINE",
"927 359 LINE",
"940 174 LINE",
"1108 329 LINE",
"1085 145 LINE",
"1249 250 LINE",
"1216 111 LINE",
"1357 201 LINE",
"1328 115 LINE",
"1337 120 OFFCURVE",
"1347 123 OFFCURVE",
"1360 123 CURVE SMOOTH",
"1413 123 OFFCURVE",
"1490 21 OFFCURVE",
"1540 21 CURVE SMOOTH",
"1549 21 OFFCURVE",
"1555 23 OFFCURVE",
"1558 27 CURVE",
"1545 37 OFFCURVE",
"1539 53 OFFCURVE",
"1539 69 CURVE SMOOTH",
"1539 94 OFFCURVE",
"1558 117 OFFCURVE",
"1585 117 CURVE SMOOTH",
"1612 117 OFFCURVE",
"1635 97 OFFCURVE",
"1635 62 CURVE SMOOTH",
"1635 23 OFFCURVE",
"1601 -2 OFFCURVE",
"1562 -2 CURVE SMOOTH",
"1477 -2 OFFCURVE",
"1429 88 OFFCURVE",
"1367 88 CURVE SMOOTH",
"1323 88 OFFCURVE",
"1280 59 OFFCURVE"
);
}
);
width = 1701;
},
{
layerId = "AA78C373-A874-4B43-A7A1-B39102DDD1E4";
paths = (
{
closed = 1;
nodes = (
"1250 38 CURVE",
"1275 127 LINE",
"1130 37 LINE",
"1156 166 LINE",
"1009 69 LINE",
"1024 228 LINE",
"870 82 LINE",
"857 253 LINE",
"728 109 LINE",
"697 250 LINE",
"572 108 LINE",
"546 218 LINE",
"437 71 LINE",
"408 155 LINE",
"350 55 LINE",
"341 70 OFFCURVE",
"330 85 OFFCURVE",
"309 85 CURVE SMOOTH",
"246 85 OFFCURVE",
"208 -2 OFFCURVE",
"123 -2 CURVE SMOOTH",
"84 -2 OFFCURVE",
"49 21 OFFCURVE",
"49 71 CURVE SMOOTH",
"49 106 OFFCURVE",
"71 141 OFFCURVE",
"113 141 CURVE SMOOTH",
"154 141 OFFCURVE",
"174 109 OFFCURVE",
"174 81 CURVE SMOOTH",
"174 68 OFFCURVE",
"168 51 OFFCURVE",
"162 45 CURVE",
"163 44 OFFCURVE",
"166 43 OFFCURVE",
"169 43 CURVE SMOOTH",
"231 43 OFFCURVE",
"282 144 OFFCURVE",
"334 144 CURVE SMOOTH",
"344 144 OFFCURVE",
"356 142 OFFCURVE",
"365 129 CURVE",
"448 271 LINE",
"486 173 LINE",
"612 341 LINE",
"641 222 LINE",
"776 377 LINE",
"808 231 LINE",
"953 398 LINE",
"966 205 LINE",
"1143 367 LINE",
"1119 170 LINE",
"1277 272 LINE",
"1245 135 LINE",
"1383 222 LINE",
"1352 137 LINE",
"1361 143 OFFCURVE",
"1370 144 OFFCURVE",
"1380 144 CURVE SMOOTH",
"1432 144 OFFCURVE",
"1480 42 OFFCURVE",
"1543 42 CURVE SMOOTH",
"1546 42 OFFCURVE",
"1549 43 OFFCURVE",
"1552 45 CURVE",
"1546 51 OFFCURVE",
"1540 65 OFFCURVE",
"1540 81 CURVE SMOOTH",
"1540 106 OFFCURVE",
"1560 141 OFFCURVE",
"1601 141 CURVE SMOOTH",
"1643 141 OFFCURVE",
"1665 106 OFFCURVE",
"1665 71 CURVE SMOOTH",
"1665 21 OFFCURVE",
"1630 -2 OFFCURVE",
"1591 -2 CURVE SMOOTH",
"1506 -2 OFFCURVE",
"1456 92 OFFCURVE",
"1380 92 CURVE SMOOTH",
"1358 92 OFFCURVE",
"1325 90 OFFCURVE"
);
}
);
width = 1701;
}
);
unicode = 0DF4;
}
{
glyphname = sinLVocalic;
layers = (
{
layerId = "C18F3EFD-FA9C-4751-AD2F-5B966120D1A5";
paths = (
{
closed = 1;
nodes = (
"625 52 CURVE SMOOTH",
"625 38 OFFCURVE",
"635 27 OFFCURVE",
"649 27 CURVE SMOOTH",
"663 27 OFFCURVE",
"674 38 OFFCURVE",
"674 52 CURVE SMOOTH",
"674 66 OFFCURVE",
"663 76 OFFCURVE",
"649 76 CURVE SMOOTH",
"635 76 OFFCURVE",
"625 66 OFFCURVE"
);
},
{
closed = 1;
nodes = (
"568 435 CURVE SMOOTH",
"568 456 OFFCURVE",
"584 470 OFFCURVE",
"615 470 CURVE SMOOTH",
"700 470 OFFCURVE",
"755 369 OFFCURVE",
"755 234 CURVE SMOOTH",
"755 143 OFFCURVE",
"724 1 OFFCURVE",
"650 1 CURVE SMOOTH",
"622 1 OFFCURVE",
"600 23 OFFCURVE",
"600 52 CURVE SMOOTH",
"600 76 OFFCURVE",
"618 103 OFFCURVE",
"650 103 CURVE SMOOTH",
"667 103 OFFCURVE",
"684 95 OFFCURVE",
"694 76 CURVE",
"715 110 OFFCURVE",
"726 183 OFFCURVE",
"726 234 CURVE SMOOTH",
"726 343 OFFCURVE",
"685 441 OFFCURVE",
"619 441 CURVE SMOOTH",
"611 441 OFFCURVE",
"598 440 OFFCURVE",
"598 426 CURVE SMOOTH",
"598 414 OFFCURVE",
"602 401 OFFCURVE",
"614 385 CURVE",
"601 394 OFFCURVE",
"583 409 OFFCURVE",
"575 412 CURVE",
"570 419 OFFCURVE",
"568 430 OFFCURVE"
);
},
{
closed = 1;
nodes = (
"111 52 CURVE SMOOTH",
"111 38 OFFCURVE",
"122 27 OFFCURVE",
"136 27 CURVE SMOOTH",
"150 27 OFFCURVE",
"160 38 OFFCURVE",
"160 52 CURVE SMOOTH",
"160 66 OFFCURVE",
"150 76 OFFCURVE",
"136 76 CURVE SMOOTH",
"122 76 OFFCURVE",
"111 66 OFFCURVE"
);
},
{
closed = 1;
nodes = (
"30 234 CURVE SMOOTH",
"30 369 OFFCURVE",
"85 470 OFFCURVE",
"170 470 CURVE SMOOTH",
"201 470 OFFCURVE",
"217 456 OFFCURVE",
"217 435 CURVE SMOOTH",
"217 430 OFFCURVE",
"216 423 OFFCURVE",
"211 416 CURVE",
"203 413 OFFCURVE",
"182 404 OFFCURVE",
"169 395 CURVE",
"178 405 OFFCURVE",
"188 414 OFFCURVE",
"188 426 CURVE SMOOTH",
"188 440 OFFCURVE",
"174 441 OFFCURVE",
"166 441 CURVE SMOOTH",
"100 441 OFFCURVE",
"60 343 OFFCURVE",
"60 234 CURVE SMOOTH",
"60 183 OFFCURVE",
"70 110 OFFCURVE",
"91 76 CURVE",
"101 95 OFFCURVE",
"118 103 OFFCURVE",
"135 103 CURVE SMOOTH",
"167 103 OFFCURVE",
"186 76 OFFCURVE",
"186 52 CURVE SMOOTH",
"186 23 OFFCURVE",
"163 1 OFFCURVE",
"135 1 CURVE SMOOTH",
"61 1 OFFCURVE",
"30 143 OFFCURVE"
);
},
{
closed = 1;
nodes = (
"130 180 CURVE SMOOTH",
"130 269 OFFCURVE",
"196 319 OFFCURVE",
"301 319 CURVE SMOOTH",
"314 319 OFFCURVE",
"324 318 OFFCURVE",
"337 317 CURVE",
"337 321 OFFCURVE",
"338 324 OFFCURVE",
"338 328 CURVE SMOOTH",
"338 366 OFFCURVE",
"312 386 OFFCURVE",
"282 386 CURVE SMOOTH",
"251 386 OFFCURVE",
"239 371 OFFCURVE",
"234 352 CURVE SMOOTH",
"230 338 OFFCURVE",
"217 320 OFFCURVE",
"190 320 CURVE SMOOTH",
"171 320 OFFCURVE",
"153 332 OFFCURVE",
"153 356 CURVE SMOOTH",
"153 399 OFFCURVE",
"200 424 OFFCURVE",
"254 424 CURVE SMOOTH",
"324 424 OFFCURVE",
"367 391 OFFCURVE",
"367 326 CURVE SMOOTH",
"367 315 OFFCURVE",
"366 304 OFFCURVE",
"363 291 CURVE",
"345 293 OFFCURVE",
"312 295 OFFCURVE",
"311 295 CURVE SMOOTH",
"236 295 OFFCURVE",
"166 269 OFFCURVE",
"166 196 CURVE SMOOTH",
"166 104 OFFCURVE",
"287 69 OFFCURVE",
"398 69 CURVE SMOOTH",
"502 69 OFFCURVE",
"626 107 OFFCURVE",
"626 200 CURVE SMOOTH",
"626 271 OFFCURVE",
"559 297 OFFCURVE",
"483 297 CURVE SMOOTH",
"461 297 OFFCURVE",
"437 294 OFFCURVE",
"415 290 CURVE",
"413 301 OFFCURVE",
"413 310 OFFCURVE",
"413 320 CURVE SMOOTH",
"413 387 OFFCURVE",
"456 423 OFFCURVE",
"527 423 CURVE SMOOTH",
"591 423 OFFCURVE",
"628 384 OFFCURVE",
"628 346 CURVE SMOOTH",
"628 326 OFFCURVE",
"620 310 OFFCURVE",
"601 296 CURVE",
"640 273 OFFCURVE",
"660 235 OFFCURVE",
"660 182 CURVE SMOOTH",
"660 54 OFFCURVE",
"536 0 OFFCURVE",
"398 0 CURVE SMOOTH",
"253 0 OFFCURVE",
"130 45 OFFCURVE"
);
},
{
closed = 1;
nodes = (
"444 328 CURVE SMOOTH",
"444 324 OFFCURVE",
"443 321 OFFCURVE",
"444 317 CURVE",
"461 319 OFFCURVE",
"476 320 OFFCURVE",
"492 320 CURVE SMOOTH",
"524 320 OFFCURVE",
"552 317 OFFCURVE",
"576 308 CURVE",
"587 319 OFFCURVE",
"593 330 OFFCURVE",
"593 343 CURVE SMOOTH",
"593 371 OFFCURVE",
"567 396 OFFCURVE",
"521 396 CURVE SMOOTH",
"479 396 OFFCURVE",
"444 372 OFFCURVE"
);
}
);
width = 800;
},
{
layerId = "AA78C373-A874-4B43-A7A1-B39102DDD1E4";
paths = (
{
closed = 1;
nodes = (
"626 52 CURVE SMOOTH",
"626 39 OFFCURVE",
"637 28 OFFCURVE",
"650 28 CURVE SMOOTH",
"663 28 OFFCURVE",
"673 39 OFFCURVE",
"673 52 CURVE SMOOTH",
"673 65 OFFCURVE",
"663 75 OFFCURVE",
"650 75 CURVE SMOOTH",
"637 75 OFFCURVE",
"626 65 OFFCURVE"
);
},
{
closed = 1;
nodes = (
"568 435 CURVE SMOOTH",
"568 457 OFFCURVE",
"584 470 OFFCURVE",
"615 470 CURVE SMOOTH",
"700 470 OFFCURVE",
"755 369 OFFCURVE",
"755 234 CURVE SMOOTH",
"755 143 OFFCURVE",
"725 1 OFFCURVE",
"650 1 CURVE SMOOTH",
"622 1 OFFCURVE",
"599 23 OFFCURVE",
"599 52 CURVE SMOOTH",
"599 77 OFFCURVE",
"618 102 OFFCURVE",
"650 102 CURVE SMOOTH",
"667 102 OFFCURVE",
"683 96 OFFCURVE",
"692 78 CURVE",
"712 112 OFFCURVE",
"722 183 OFFCURVE",
"722 234 CURVE SMOOTH",
"722 336 OFFCURVE",
"685 439 OFFCURVE",
"619 439 CURVE SMOOTH",
"611 439 OFFCURVE",
"601 437 OFFCURVE",
"601 422 CURVE SMOOTH",
"601 410 OFFCURVE",
"605 398 OFFCURVE",
"617 380 CURVE",
"604 389 OFFCURVE",
"582 411 OFFCURVE",
"574 414 CURVE",
"569 420 OFFCURVE",
"568 430 OFFCURVE"
);
},
{
closed = 1;
nodes = (
"112 52 CURVE SMOOTH",
"112 39 OFFCURVE",
"122 28 OFFCURVE",
"135 28 CURVE SMOOTH",
"148 28 OFFCURVE",
"159 39 OFFCURVE",
"159 52 CURVE SMOOTH",
"159 65 OFFCURVE",
"148 75 OFFCURVE",
"135 75 CURVE SMOOTH",
"122 75 OFFCURVE",
"112 65 OFFCURVE"
);
},
{
closed = 1;
nodes = (
"30 234 CURVE SMOOTH",
"30 369 OFFCURVE",
"85 470 OFFCURVE",
"170 470 CURVE SMOOTH",
"201 470 OFFCURVE",
"217 457 OFFCURVE",
"217 435 CURVE SMOOTH",
"217 430 OFFCURVE",
"216 422 OFFCURVE",
"211 416 CURVE",
"203 413 OFFCURVE",
"182 404 OFFCURVE",
"169 395 CURVE",
"178 404 OFFCURVE",
"185 414 OFFCURVE",
"185 426 CURVE SMOOTH",
"185 435 OFFCURVE",
"175 439 OFFCURVE",
"167 439 CURVE SMOOTH",
"101 439 OFFCURVE",
"63 336 OFFCURVE",
"63 234 CURVE SMOOTH",
"63 183 OFFCURVE",
"73 112 OFFCURVE",
"93 78 CURVE",
"102 96 OFFCURVE",
"118 102 OFFCURVE",
"135 102 CURVE SMOOTH",
"167 102 OFFCURVE",
"186 77 OFFCURVE",
"186 52 CURVE SMOOTH",
"186 23 OFFCURVE",
"163 1 OFFCURVE",
"135 1 CURVE SMOOTH",
"60 1 OFFCURVE",
"30 143 OFFCURVE"
);
},
{
closed = 1;
nodes = (
"130 179 CURVE SMOOTH",
"130 268 OFFCURVE",
"196 319 OFFCURVE",
"301 319 CURVE SMOOTH",
"314 319 OFFCURVE",
"323 318 OFFCURVE",
"335 317 CURVE",
"335 321 OFFCURVE",
"336 325 OFFCURVE",
"336 328 CURVE SMOOTH",
"336 367 OFFCURVE",
"311 381 OFFCURVE",
"289 381 CURVE SMOOTH",
"262 381 OFFCURVE",
"247 368 OFFCURVE",
"241 350 CURVE SMOOTH",
"235 330 OFFCURVE",
"218 318 OFFCURVE",
"194 318 CURVE SMOOTH",
"173 318 OFFCURVE",
"153 329 OFFCURVE",
"153 358 CURVE SMOOTH",
"153 398 OFFCURVE",
"200 423 OFFCURVE",
"254 423 CURVE SMOOTH",
"325 423 OFFCURVE",
"368 391 OFFCURVE",
"368 326 CURVE SMOOTH",
"368 315 OFFCURVE",
"367 302 OFFCURVE",
"364 289 CURVE",
"347 291 OFFCURVE",
"312 293 OFFCURVE",
"311 293 CURVE SMOOTH",
"240 293 OFFCURVE",
"193 268 OFFCURVE",
"193 226 CURVE SMOOTH",
"193 155 OFFCURVE",
"300 137 OFFCURVE",
"399 137 CURVE SMOOTH",
"494 137 OFFCURVE",
"594 162 OFFCURVE",
"594 233 CURVE SMOOTH",
"594 269 OFFCURVE",
"556 295 OFFCURVE",
"484 295 CURVE SMOOTH",
"461 295 OFFCURVE",
"438 292 OFFCURVE",
"416 288 CURVE",
"414 299 OFFCURVE",
"413 310 OFFCURVE",
"413 320 CURVE SMOOTH",
"413 387 OFFCURVE",
"457 423 OFFCURVE",
"528 423 CURVE SMOOTH",
"593 423 OFFCURVE",
"627 384 OFFCURVE",
"627 346 CURVE SMOOTH",
"627 326 OFFCURVE",
"619 309 OFFCURVE",
"601 296 CURVE",
"640 273 OFFCURVE",
"660 235 OFFCURVE",
"660 182 CURVE SMOOTH",
"660 54 OFFCURVE",
"536 0 OFFCURVE",
"399 0 CURVE SMOOTH",
"254 0 OFFCURVE",
"130 45 OFFCURVE"
);
},
{
closed = 1;
nodes = (
"446 328 CURVE SMOOTH",
"446 324 OFFCURVE",
"446 321 OFFCURVE",
"447 317 CURVE",
"464 319 OFFCURVE",
"478 320 OFFCURVE",
"493 320 CURVE SMOOTH",
"525 320 OFFCURVE",
"551 317 OFFCURVE",
"575 308 CURVE",
"586 318 OFFCURVE",
"590 331 OFFCURVE",
"590 343 CURVE SMOOTH",
"590 371 OFFCURVE",
"567 393 OFFCURVE",
"521 393 CURVE SMOOTH",
"480 393 OFFCURVE",
"446 372 OFFCURVE"
);
}
);
width = 800;
}
);
unicode = 0D8F;
}
{
glyphname = sinLa;
layers = (
{
anchors = (
{
name = _cursive;
position = "{43, 0}";
}
);
layerId = "C18F3EFD-FA9C-4751-AD2F-5B966120D1A5";
paths = (
{
closed = 1;
nodes = (
"30 132 CURVE SMOOTH",
"30 316 OFFCURVE",
"165 422 OFFCURVE",
"355 422 CURVE SMOOTH",
"476 422 OFFCURVE",
"597 383 OFFCURVE",
"597 273 CURVE SMOOTH",
"597 205 OFFCURVE",
"540 167 OFFCURVE",
"474 167 CURVE SMOOTH",
"408 167 OFFCURVE",
"359 207 OFFCURVE",
"359 275 CURVE",
"259 275 LINE",
"259 301 LINE",
"506 301 LINE",
"506 275 LINE",
"387 275 LINE",
"387 274 OFFCURVE",
"387 272 OFFCURVE",
"387 271 CURVE SMOOTH",
"387 236 OFFCURVE",
"428 211 OFFCURVE",
"475 211 CURVE SMOOTH",
"529 211 OFFCURVE",
"562 239 OFFCURVE",
"562 287 CURVE SMOOTH",
"562 364 OFFCURVE",
"477 395 OFFCURVE",
"361 395 CURVE SMOOTH",
"215 395 OFFCURVE",
"104 292 OFFCURVE",
"104 157 CURVE SMOOTH",
"104 -6 OFFCURVE",
"215 -108 OFFCURVE",
"372 -108 CURVE SMOOTH",
"476 -108 OFFCURVE",
"580 -49 OFFCURVE",
"580 64 CURVE SMOOTH",
"580 70 OFFCURVE",
"578 78 OFFCURVE",
"576 82 CURVE",
"609 82 LINE",
"609 77 OFFCURVE",
"609 73 OFFCURVE",
"609 68 CURVE SMOOTH",
"609 -71 OFFCURVE",
"489 -150 OFFCURVE",
"353 -150 CURVE SMOOTH",
"176 -150 OFFCURVE",
"30 -56 OFFCURVE"
);
}
);
width = 654;
},
{
anchors = (
{
name = _cursive;
position = "{43, 0}";
}
);
layerId = "AA78C373-A874-4B43-A7A1-B39102DDD1E4";
paths = (
{
closed = 1;
nodes = (
"30 132 CURVE SMOOTH",
"30 316 OFFCURVE",
"165 422 OFFCURVE",
"355 422 CURVE SMOOTH",
"476 422 OFFCURVE",
"597 383 OFFCURVE",
"597 273 CURVE SMOOTH",
"597 205 OFFCURVE",
"540 159 OFFCURVE",
"474 159 CURVE SMOOTH",
"408 159 OFFCURVE",
"357 205 OFFCURVE",
"357 273 CURVE",
"259 273 LINE",
"259 301 LINE",
"506 301 LINE",
"506 273 LINE",
"387 273 LINE",
"387 272 OFFCURVE",
"386 270 OFFCURVE",
"386 269 CURVE SMOOTH",
"386 234 OFFCURVE",
"428 211 OFFCURVE",
"475 211 CURVE SMOOTH",
"529 211 OFFCURVE",
"560 239 OFFCURVE",
"560 287 CURVE SMOOTH",
"560 366 OFFCURVE",
"466 390 OFFCURVE",
"386 390 CURVE SMOOTH",
"263 390 OFFCURVE",
"174 309 OFFCURVE",
"174 167 CURVE SMOOTH",
"174 4 OFFCURVE",
"273 -91 OFFCURVE",
"411 -91 CURVE SMOOTH",
"476 -91 OFFCURVE",
"578 -49 OFFCURVE",
"578 64 CURVE SMOOTH",
"578 70 OFFCURVE",
"576 79 OFFCURVE",
"574 82 CURVE",
"609 82 LINE",
"609 77 OFFCURVE",
"610 72 OFFCURVE",
"610 68 CURVE SMOOTH",
"610 -71 OFFCURVE",
"488 -150 OFFCURVE",
"353 -150 CURVE SMOOTH",
"176 -150 OFFCURVE",
"30 -56 OFFCURVE"
);
}
);
width = 654;
}
);
unicode = 0DBD;
}
{
glyphname = sinLla;
layers = (
{
anchors = (
{
name = _cursive;
position = "{49, 0}";
}
);
layerId = "C18F3EFD-FA9C-4751-AD2F-5B966120D1A5";
paths = (
{
closed = 1;
nodes = (
"30 111 CURVE SMOOTH",
"30 187 OFFCURVE",
"78 290 OFFCURVE",
"175 290 CURVE SMOOTH",
"529 290 LINE",
"529 344 OFFCURVE",
"498 394 OFFCURVE",
"434 394 CURVE SMOOTH",
"389 394 OFFCURVE",
"355 357 OFFCURVE",
"355 322 CURVE",
"325 322 LINE",
"325 357 OFFCURVE",
"295 395 OFFCURVE",
"253 395 CURVE SMOOTH",
"198 395 OFFCURVE",
"153 354 OFFCURVE",
"153 270 CURVE SMOOTH",
"153 161 OFFCURVE",
"237 102 OFFCURVE",
"326 102 CURVE SMOOTH",
"406 102 OFFCURVE",
"460 126 OFFCURVE",
"485 166 CURVE",
"514 166 LINE",
"491 89 OFFCURVE",
"427 42 OFFCURVE",
"326 42 CURVE SMOOTH",
"213 42 OFFCURVE",
"123 135 OFFCURVE",
"123 268 CURVE SMOOTH",
"123 365 OFFCURVE",
"183 422 OFFCURVE",
"254 422 CURVE SMOOTH",
"289 422 OFFCURVE",
"325 405 OFFCURVE",
"341 368 CURVE",
"359 405 OFFCURVE",
"400 422 OFFCURVE",
"435 422 CURVE SMOOTH",
"520 422 OFFCURVE",
"562 354 OFFCURVE",
"562 265 CURVE",
"188 265 LINE SMOOTH",
"147 265 OFFCURVE",
"94 229 OFFCURVE",
"94 139 CURVE SMOOTH",
"94 -11 OFFCURVE",
"218 -105 OFFCURVE",
"364 -105 CURVE SMOOTH",
"474 -105 OFFCURVE",
"574 -30 OFFCURVE",
"577 72 CURVE",
"604 72 LINE",
"604 -67 OFFCURVE",
"461 -149 OFFCURVE",
"335 -149 CURVE SMOOTH",
"164 -149 OFFCURVE",
"30 -56 OFFCURVE"
);
}
);
width = 621;
},
{
anchors = (
{
name = _cursive;
position = "{49, 0}";
}
);
layerId = "AA78C373-A874-4B43-A7A1-B39102DDD1E4";
paths = (
{
closed = 1;
nodes = (
"30 111 CURVE SMOOTH",
"30 187 OFFCURVE",
"78 290 OFFCURVE",
"175 290 CURVE SMOOTH",
"528 290 LINE",
"528 341 OFFCURVE",
"498 392 OFFCURVE",
"434 392 CURVE SMOOTH",
"389 392 OFFCURVE",
"356 354 OFFCURVE",
"356 321 CURVE",
"324 321 LINE",
"324 354 OFFCURVE",
"295 393 OFFCURVE",
"253 393 CURVE SMOOTH",
"198 393 OFFCURVE",
"177 349 OFFCURVE",
"177 290 CURVE SMOOTH",
"177 188 OFFCURVE",
"245 135 OFFCURVE",
"344 135 CURVE SMOOTH",
"411 135 OFFCURVE",
"466 155 OFFCURVE",
"490 186 CURVE",
"519 186 LINE",
"497 88 OFFCURVE",
"427 42 OFFCURVE",
"326 42 CURVE SMOOTH",
"212 42 OFFCURVE",
"123 135 OFFCURVE",
"123 268 CURVE SMOOTH",
"123 365 OFFCURVE",
"183 422 OFFCURVE",
"254 422 CURVE SMOOTH",
"289 422 OFFCURVE",
"325 405 OFFCURVE",
"341 368 CURVE",
"359 405 OFFCURVE",
"400 422 OFFCURVE",
"435 422 CURVE SMOOTH",
"520 422 OFFCURVE",
"562 355 OFFCURVE",
"562 262 CURVE",
"271 262 LINE SMOOTH",
"230 262 OFFCURVE",
"151 258 OFFCURVE",
"151 168 CURVE SMOOTH",
"151 49 OFFCURVE",
"239 -66 OFFCURVE",
"393 -66 CURVE SMOOTH",
"479 -66 OFFCURVE",
"572 -29 OFFCURVE",
"575 72 CURVE",
"604 72 LINE",
"604 -67 OFFCURVE",
"461 -149 OFFCURVE",
"335 -149 CURVE SMOOTH",
"164 -149 OFFCURVE",
"30 -56 OFFCURVE"
);
}
);
width = 621;
}
);
unicode = 0DC5;
}
{
glyphname = sinMa;
layers = (
{
anchors = (
{
name = _cursive;
position = "{47, 0}";
}
);
layerId = "C18F3EFD-FA9C-4751-AD2F-5B966120D1A5";
paths = (
{
closed = 1;
nodes = (
"258 344 CURVE SMOOTH",
"258 318 OFFCURVE",
"280 296 OFFCURVE",
"306 296 CURVE SMOOTH",
"332 296 OFFCURVE",
"354 318 OFFCURVE",
"354 344 CURVE SMOOTH",
"354 370 OFFCURVE",
"332 392 OFFCURVE",
"306 392 CURVE SMOOTH",
"280 392 OFFCURVE",
"258 370 OFFCURVE"
);
},
{
closed = 1;
nodes = (
"32 244 CURVE SMOOTH",
"32 331 OFFCURVE",
"77 422 OFFCURVE",
"152 422 CURVE SMOOTH",
"200 422 OFFCURVE",
"204 388 OFFCURVE",
"204 364 CURVE SMOOTH",
"204 338 OFFCURVE",
"199 330 OFFCURVE",
"199 295 CURVE SMOOTH",
"199 241 OFFCURVE",
"239 213 OFFCURVE",
"293 213 CURVE SMOOTH",
"352 213 OFFCURVE",
"392 249 OFFCURVE",
"392 307 CURVE SMOOTH",
"392 334 OFFCURVE",
"383 350 OFFCURVE",
"378 357 CURVE",
"380 347 OFFCURVE",
"380 343 OFFCURVE",
"380 335 CURVE SMOOTH",
"380 299 OFFCURVE",
"353 265 OFFCURVE",
"306 265 CURVE SMOOTH",
"256 265 OFFCURVE",
"228 308 OFFCURVE",
"228 343 CURVE SMOOTH",
"228 388 OFFCURVE",
"264 422 OFFCURVE",
"311 422 CURVE SMOOTH",
"378 422 OFFCURVE",
"421 373 OFFCURVE",
"421 299 CURVE SMOOTH",
"421 232 OFFCURVE",
"366 182 OFFCURVE",
"295 182 CURVE SMOOTH",
"236 182 OFFCURVE",
"169 211 OFFCURVE",
"169 288 CURVE SMOOTH",
"169 326 OFFCURVE",
"176 340 OFFCURVE",
"176 370 CURVE SMOOTH",
"176 382 OFFCURVE",
"171 396 OFFCURVE",
"150 396 CURVE SMOOTH",
"103 396 OFFCURVE",
"66 338 OFFCURVE",
"66 261 CURVE SMOOTH",
"66 131 OFFCURVE",
"169 69 OFFCURVE",
"301 69 CURVE SMOOTH",
"440 69 OFFCURVE",
"537 162 OFFCURVE",
"537 300 CURVE SMOOTH",
"537 434 OFFCURVE",
"434 547 OFFCURVE",
"296 547 CURVE SMOOTH",
"217 547 OFFCURVE",
"154 519 OFFCURVE",
"107 458 CURVE",
"76 458 LINE",
"124 531 OFFCURVE",
"204 572 OFFCURVE",
"295 572 CURVE SMOOTH",
"451 572 OFFCURVE",
"571 443 OFFCURVE",
"571 285 CURVE SMOOTH",
"571 107 OFFCURVE",
"464 0 OFFCURVE",
"303 0 CURVE SMOOTH",
"140 0 OFFCURVE",
"32 92 OFFCURVE"
);
}
);
width = 616;
},
{
anchors = (
{
name = _cursive;
position = "{47.305, 0}";
}
);
layerId = "AA78C373-A874-4B43-A7A1-B39102DDD1E4";
paths = (
{
closed = 1;
nodes = (
"259 344 CURVE SMOOTH",
"259 318 OFFCURVE",
"280 297 OFFCURVE",
"306 297 CURVE SMOOTH",
"332 297 OFFCURVE",
"353 318 OFFCURVE",
"353 344 CURVE SMOOTH",
"353 370 OFFCURVE",
"332 391 OFFCURVE",
"306 391 CURVE SMOOTH",
"280 391 OFFCURVE",
"259 370 OFFCURVE"
);
},
{
closed = 1;
nodes = (
"32 244 CURVE SMOOTH",
"32 331 OFFCURVE",
"77 422 OFFCURVE",
"152 422 CURVE SMOOTH",
"200 422 OFFCURVE",
"205 391 OFFCURVE",
"205 369 CURVE SMOOTH",
"205 343 OFFCURVE",
"199 335 OFFCURVE",
"199 303 CURVE SMOOTH",
"199 255 OFFCURVE",
"239 225 OFFCURVE",
"293 225 CURVE SMOOTH",
"352 225 OFFCURVE",
"392 254 OFFCURVE",
"392 312 CURVE SMOOTH",
"392 339 OFFCURVE",
"383 350 OFFCURVE",
"378 357 CURVE",
"380 347 OFFCURVE",
"380 343 OFFCURVE",
"380 335 CURVE SMOOTH",
"380 299 OFFCURVE",
"353 265 OFFCURVE",
"306 265 CURVE SMOOTH",
"256 265 OFFCURVE",
"228 308 OFFCURVE",
"228 343 CURVE SMOOTH",
"228 388 OFFCURVE",
"264 422 OFFCURVE",
"311 422 CURVE SMOOTH",
"378 422 OFFCURVE",
"423 378 OFFCURVE",
"423 308 CURVE SMOOTH",
"423 234 OFFCURVE",
"366 193 OFFCURVE",
"295 193 CURVE SMOOTH",
"236 193 OFFCURVE",
"167 226 OFFCURVE",
"167 297 CURVE SMOOTH",
"167 329 OFFCURVE",
"174 350 OFFCURVE",
"174 367 CURVE SMOOTH",
"174 379 OFFCURVE",
"171 393 OFFCURVE",
"150 393 CURVE SMOOTH",
"109 393 OFFCURVE",
"91 342 OFFCURVE",
"91 303 CURVE SMOOTH",
"91 201 OFFCURVE",
"177 131 OFFCURVE",
"295 131 CURVE SMOOTH",
"410 131 OFFCURVE",
"503 199 OFFCURVE",
"503 325 CURVE SMOOTH",
"503 431 OFFCURVE",
"434 544 OFFCURVE",
"296 544 CURVE SMOOTH",
"217 544 OFFCURVE",
"156 515 OFFCURVE",
"110 458 CURVE",
"76 458 LINE",
"124 531 OFFCURVE",
"204 572 OFFCURVE",
"295 572 CURVE SMOOTH",
"451 572 OFFCURVE",
"571 443 OFFCURVE",
"571 285 CURVE SMOOTH",
"571 107 OFFCURVE",
"464 0 OFFCURVE",
"303 0 CURVE SMOOTH",
"140 0 OFFCURVE",
"32 92 OFFCURVE"
);
}
);
width = 620;
}
);
unicode = 0DB8;
}
{
glyphname = sinMatraAa;
layers = (
{
layerId = "C18F3EFD-FA9C-4751-AD2F-5B966120D1A5";
paths = (
{
closed = 1;
nodes = (
"10 107 CURVE SMOOTH",
"10 114 OFFCURVE",
"10 122 OFFCURVE",
"11 129 CURVE",
"37 129 LINE",
"36 124 OFFCURVE",
"36 119 OFFCURVE",
"36 114 CURVE SMOOTH",
"36 67 OFFCURVE",
"60 35 OFFCURVE",
"104 35 CURVE SMOOTH",
"162 36 OFFCURVE",
"188 89 OFFCURVE",
"188 196 CURVE SMOOTH",
"188 303 OFFCURVE",
"162 357 OFFCURVE",
"104 357 CURVE SMOOTH",
"67 357 OFFCURVE",
"36 325 OFFCURVE",
"36 278 CURVE SMOOTH",
"36 273 OFFCURVE",
"36 269 OFFCURVE",
"37 264 CURVE",
"11 264 LINE",
"10 271 OFFCURVE",
"10 278 OFFCURVE",
"10 285 CURVE SMOOTH",
"10 352 OFFCURVE",
"60 394 OFFCURVE",
"118 394 CURVE SMOOTH",
"207 394 OFFCURVE",
"252 321 OFFCURVE",
"252 196 CURVE SMOOTH",
"252 71 OFFCURVE",
"207 -1 OFFCURVE",
"118 -1 CURVE SMOOTH",
"53 -1 OFFCURVE",
"10 40 OFFCURVE"
);
}
);
width = 292;
},
{
layerId = "AA78C373-A874-4B43-A7A1-B39102DDD1E4";
paths = (
{
closed = 1;
nodes = (
"21 108 CURVE SMOOTH",
"21 115 OFFCURVE",
"21 122 OFFCURVE",
"22 129 CURVE",
"50 129 LINE",
"49 124 OFFCURVE",
"49 119 OFFCURVE",
"49 114 CURVE SMOOTH",
"49 68 OFFCURVE",
"72 64 OFFCURVE",
"83 64 CURVE SMOOTH",
"105 64 OFFCURVE",
"129 88 OFFCURVE",
"129 196 CURVE SMOOTH",
"129 304 OFFCURVE",
"105 330 OFFCURVE",
"83 330 CURVE SMOOTH",
"73 330 OFFCURVE",
"49 323 OFFCURVE",
"49 278 CURVE SMOOTH",
"49 273 OFFCURVE",
"49 268 OFFCURVE",
"50 263 CURVE",
"22 263 LINE",
"21 270 OFFCURVE",
"21 278 OFFCURVE",
"21 285 CURVE SMOOTH",
"21 352 OFFCURVE",
"72 394 OFFCURVE",
"130 394 CURVE SMOOTH",
"219 394 OFFCURVE",
"264 321 OFFCURVE",
"264 196 CURVE SMOOTH",
"264 71 OFFCURVE",
"219 -1 OFFCURVE",
"130 -1 CURVE SMOOTH",
"64 -1 OFFCURVE",
"21 41 OFFCURVE"
);
}
);
width = 304;
}
);
unicode = 0DCF;
category = Mark;
subCategory = Spacing;
}
{
glyphname = sinMatraAae;
layers = (
{
layerId = "C18F3EFD-FA9C-4751-AD2F-5B966120D1A5";
paths = (
{
closed = 1;
nodes = (
"4 308 LINE",
"4 331 LINE",
"243 331 LINE",
"243 310 LINE",
"119 218 LINE",
"266 218 LINE",
"266 196 LINE",
"221 164 OFFCURVE",
"155 94 OFFCURVE",
"155 13 CURVE SMOOTH",
"155 -72 OFFCURVE",
"212 -104 OFFCURVE",
"299 -104 CURVE",
"299 -128 LINE",
"275 -139 OFFCURVE",
"248 -145 OFFCURVE",
"224 -145 CURVE SMOOTH",
"135 -145 OFFCURVE",
"88 -89 OFFCURVE",
"88 -12 CURVE SMOOTH",
"88 76 OFFCURVE",
"166 151 OFFCURVE",
"229 194 CURVE",
"70 194 LINE",
"70 213 LINE",
"200 308 LINE"
);
}
);
width = 328;
},
{
layerId = "AA78C373-A874-4B43-A7A1-B39102DDD1E4";
paths = (
{
closed = 1;
nodes = (
"4 305 LINE",
"4 331 LINE",
"243 331 LINE",
"243 310 LINE",
"119 218 LINE",
"266 218 LINE",
"266 196 LINE",
"222 162 OFFCURVE",
"184 115 OFFCURVE",
"184 35 CURVE SMOOTH",
"184 -28 OFFCURVE",
"221 -97 OFFCURVE",
"299 -97 CURVE",
"299 -124 LINE",
"266 -138 OFFCURVE",
"231 -145 OFFCURVE",
"202 -145 CURVE SMOOTH",
"114 -145 OFFCURVE",
"54 -99 OFFCURVE",
"54 -18 CURVE SMOOTH",
"54 94 OFFCURVE",
"155 152 OFFCURVE",
"222 192 CURVE",
"70 192 LINE",
"70 216 LINE",
"193 305 LINE"
);
}
);
width = 328;
}
);
unicode = 0DD1;
category = Mark;
subCategory = Spacing;
}
{
glyphname = sinMatraAe;
layers = (
{
layerId = "C18F3EFD-FA9C-4751-AD2F-5B966120D1A5";
paths = (
{
closed = 1;
nodes = (
"3 306 LINE",
"3 331 LINE",
"243 331 LINE",
"240 315 LINE",
"174 217 OFFCURVE",
"149 126 OFFCURVE",
"149 49 CURVE SMOOTH",
"149 -53 OFFCURVE",
"201 -91 OFFCURVE",
"258 -91 CURVE SMOOTH",
"271 -91 OFFCURVE",
"282 -89 OFFCURVE",
"295 -86 CURVE",
"299 -104 LINE",
"273 -134 OFFCURVE",
"242 -144 OFFCURVE",
"202 -144 CURVE SMOOTH",
"119 -144 OFFCURVE",
"82 -71 OFFCURVE",
"82 14 CURVE SMOOTH",
"82 130 OFFCURVE",
"154 248 OFFCURVE",
"206 306 CURVE"
);
}
);
width = 326;
},
{
layerId = "AA78C373-A874-4B43-A7A1-B39102DDD1E4";
paths = (
{
closed = 1;
nodes = (
"3 304 LINE",
"3 331 LINE",
"243 331 LINE",
"240 313 LINE",
"188 233 OFFCURVE",
"174 165 OFFCURVE",
"174 88 CURVE SMOOTH",
"174 26 OFFCURVE",
"196 -48 OFFCURVE",
"252 -74 CURVE SMOOTH",
"264 -80 OFFCURVE",
"279 -83 OFFCURVE",
"295 -84 CURVE",
"299 -104 LINE",
"272 -134 OFFCURVE",
"233 -144 OFFCURVE",
"193 -144 CURVE SMOOTH",
"110 -144 OFFCURVE",
"49 -81 OFFCURVE",
"49 18 CURVE SMOOTH",
"49 151 OFFCURVE",
"145 242 OFFCURVE",
"203 304 CURVE"
);
}
);
width = 326;
}
);
unicode = 0DD0;
category = Mark;
subCategory = Spacing;
}
{
glyphname = sinMatraAi;
layers = (
{
layerId = "C18F3EFD-FA9C-4751-AD2F-5B966120D1A5";
paths = (
{
closed = 1;
nodes = (
"230 239 CURVE SMOOTH",
"230 214 OFFCURVE",
"255 193 OFFCURVE",
"284 193 CURVE SMOOTH",
"313 193 OFFCURVE",
"338 214 OFFCURVE",
"338 239 CURVE SMOOTH",
"338 264 OFFCURVE",
"313 285 OFFCURVE",
"284 285 CURVE SMOOTH",
"255 285 OFFCURVE",
"230 264 OFFCURVE"
);
},
{
closed = 1;
nodes = (
"32 207 CURVE SMOOTH",
"32 339 OFFCURVE",
"157 422 OFFCURVE",
"294 422 CURVE SMOOTH",
"439 422 OFFCURVE",
"558 332 OFFCURVE",
"570 201 CURVE",
"542 201 LINE",
"524 316 OFFCURVE",
"420 395 OFFCURVE",
"294 395 CURVE SMOOTH",
"183 395 OFFCURVE",
"74 332 OFFCURVE",
"74 232 CURVE SMOOTH",
"74 138 OFFCURVE",
"159 69 OFFCURVE",
"263 69 CURVE",
"350 69 OFFCURVE",
"444 103 OFFCURVE",
"444 185 CURVE SMOOTH",
"444 239 OFFCURVE",
"400 271 OFFCURVE",
"352 280 CURVE",
"365 266 OFFCURVE",
"370 250 OFFCURVE",
"370 234 CURVE SMOOTH",
"370 187 OFFCURVE",
"327 162 OFFCURVE",
"285 162 CURVE SMOOTH",
"240 162 OFFCURVE",
"198 193 OFFCURVE",
"198 236 CURVE SMOOTH",
"198 283 OFFCURVE",
"242 314 OFFCURVE",
"297 314 CURVE SMOOTH",
"397 314 OFFCURVE",
"479 262 OFFCURVE",
"479 164 CURVE SMOOTH",
"479 66 OFFCURVE",
"403 0 OFFCURVE",
"263 0 CURVE SMOOTH",
"131 0 OFFCURVE",
"32 82 OFFCURVE"
);
},
{
closed = 1;
nodes = (
"848 239 CURVE SMOOTH",
"848 214 OFFCURVE",
"873 193 OFFCURVE",
"902 193 CURVE SMOOTH",
"931 193 OFFCURVE",
"956 214 OFFCURVE",
"956 239 CURVE SMOOTH",
"956 264 OFFCURVE",
"931 285 OFFCURVE",
"902 285 CURVE SMOOTH",
"873 285 OFFCURVE",
"848 264 OFFCURVE"
);
},
{
closed = 1;
nodes = (
"650 207 CURVE SMOOTH",
"650 339 OFFCURVE",
"775 422 OFFCURVE",
"912 422 CURVE SMOOTH",
"1057 422 OFFCURVE",
"1176 332 OFFCURVE",
"1188 201 CURVE",
"1160 201 LINE",
"1142 316 OFFCURVE",
"1038 395 OFFCURVE",
"912 395 CURVE SMOOTH",
"801 395 OFFCURVE",
"692 332 OFFCURVE",
"692 232 CURVE SMOOTH",
"692 138 OFFCURVE",
"777 69 OFFCURVE",
"881 69 CURVE",
"968 69 OFFCURVE",
"1062 103 OFFCURVE",
"1062 185 CURVE SMOOTH",
"1062 239 OFFCURVE",
"1018 271 OFFCURVE",
"970 280 CURVE",
"983 266 OFFCURVE",
"988 250 OFFCURVE",
"988 234 CURVE SMOOTH",
"988 187 OFFCURVE",
"945 162 OFFCURVE",
"903 162 CURVE SMOOTH",
"858 162 OFFCURVE",
"816 193 OFFCURVE",
"816 236 CURVE SMOOTH",
"816 283 OFFCURVE",
"860 314 OFFCURVE",
"915 314 CURVE SMOOTH",
"1015 314 OFFCURVE",
"1097 262 OFFCURVE",
"1097 164 CURVE SMOOTH",
"1097 66 OFFCURVE",
"1021 0 OFFCURVE",
"881 0 CURVE SMOOTH",
"749 0 OFFCURVE",
"650 82 OFFCURVE"
);
}
);
width = 1236;
},
{
layerId = "AA78C373-A874-4B43-A7A1-B39102DDD1E4";
paths = (
{
closed = 1;
nodes = (
"215 270 CURVE SMOOTH",
"215 245 OFFCURVE",
"240 224 OFFCURVE",
"269 224 CURVE SMOOTH",
"298 224 OFFCURVE",
"322 245 OFFCURVE",
"322 270 CURVE SMOOTH",
"322 295 OFFCURVE",
"298 315 OFFCURVE",
"269 315 CURVE SMOOTH",
"240 315 OFFCURVE",
"215 295 OFFCURVE"
);
},
{
closed = 1;
nodes = (
"32 207 CURVE SMOOTH",
"32 339 OFFCURVE",
"157 422 OFFCURVE",
"294 422 CURVE SMOOTH",
"438 422 OFFCURVE",
"558 332 OFFCURVE",
"570 201 CURVE",
"540 201 LINE",
"522 314 OFFCURVE",
"420 392 OFFCURVE",
"294 392 CURVE SMOOTH",
"183 392 OFFCURVE",
"104 336 OFFCURVE",
"104 258 CURVE SMOOTH",
"104 193 OFFCURVE",
"160 134 OFFCURVE",
"263 134 CURVE SMOOTH",
"350 134 OFFCURVE",
"407 175 OFFCURVE",
"407 238 CURVE SMOOTH",
"407 269 OFFCURVE",
"384 304 OFFCURVE",
"336 315 CURVE",
"349 303 OFFCURVE",
"356 285 OFFCURVE",
"356 269 CURVE SMOOTH",
"356 226 OFFCURVE",
"313 195 OFFCURVE",
"269 195 CURVE SMOOTH",
"225 195 OFFCURVE",
"181 226 OFFCURVE",
"181 269 CURVE SMOOTH",
"181 315 OFFCURVE",
"225 346 OFFCURVE",
"283 346 CURVE SMOOTH",
"390 346 OFFCURVE",
"479 286 OFFCURVE",
"479 173 CURVE SMOOTH",
"479 79 OFFCURVE",
"403 0 OFFCURVE",
"263 0 CURVE SMOOTH",
"131 0 OFFCURVE",
"32 82 OFFCURVE"
);
},
{
closed = 1;
nodes = (
"803 270 CURVE SMOOTH",
"803 245 OFFCURVE",
"828 224 OFFCURVE",
"857 224 CURVE SMOOTH",
"886 224 OFFCURVE",
"910 245 OFFCURVE",
"910 270 CURVE SMOOTH",
"910 295 OFFCURVE",
"886 315 OFFCURVE",
"857 315 CURVE SMOOTH",
"828 315 OFFCURVE",
"803 295 OFFCURVE"
);
},
{
closed = 1;
nodes = (
"620 207 CURVE SMOOTH",
"620 339 OFFCURVE",
"745 422 OFFCURVE",
"882 422 CURVE SMOOTH",
"1026 422 OFFCURVE",
"1146 332 OFFCURVE",
"1158 201 CURVE",
"1128 201 LINE",
"1110 314 OFFCURVE",
"1008 392 OFFCURVE",
"882 392 CURVE SMOOTH",
"771 392 OFFCURVE",
"692 336 OFFCURVE",
"692 258 CURVE SMOOTH",
"692 193 OFFCURVE",
"748 134 OFFCURVE",
"851 134 CURVE SMOOTH",
"938 134 OFFCURVE",
"995 175 OFFCURVE",
"995 238 CURVE SMOOTH",
"995 269 OFFCURVE",
"972 304 OFFCURVE",
"924 315 CURVE",
"937 303 OFFCURVE",
"944 285 OFFCURVE",
"944 269 CURVE SMOOTH",
"944 226 OFFCURVE",
"901 195 OFFCURVE",
"857 195 CURVE SMOOTH",
"813 195 OFFCURVE",
"769 226 OFFCURVE",
"769 269 CURVE SMOOTH",
"769 315 OFFCURVE",
"813 346 OFFCURVE",
"871 346 CURVE SMOOTH",
"978 346 OFFCURVE",
"1067 286 OFFCURVE",
"1067 173 CURVE SMOOTH",
"1067 79 OFFCURVE",
"991 0 OFFCURVE",
"851 0 CURVE SMOOTH",
"719 0 OFFCURVE",
"620 82 OFFCURVE"
);
}
);
width = 1176;
}
);
unicode = 0DDB;
category = Mark;
subCategory = Spacing;
}
{
glyphname = sinMatraI;
layers = (
{
layerId = "C18F3EFD-FA9C-4751-AD2F-5B966120D1A5";
paths = (
{
closed = 1;
nodes = (
"-532 506 CURVE SMOOTH",
"-532 611 OFFCURVE",
"-422 655 OFFCURVE",
"-306 655 CURVE SMOOTH",
"-190 655 OFFCURVE",
"-79 611 OFFCURVE",
"-79 506 CURVE SMOOTH",
"-79 433 OFFCURVE",
"-144 399 OFFCURVE",
"-219 396 CURVE",
"-219 416 LINE",
"-166 419 OFFCURVE",
"-112 443 OFFCURVE",
"-112 497 CURVE SMOOTH",
"-112 566 OFFCURVE",
"-219 584 OFFCURVE",
"-306 584 CURVE SMOOTH",
"-393 584 OFFCURVE",
"-499 566 OFFCURVE",
"-499 497 CURVE SMOOTH",
"-499 443 OFFCURVE",
"-446 419 OFFCURVE",
"-393 416 CURVE",
"-393 396 LINE",
"-468 399 OFFCURVE",
"-532 433 OFFCURVE"
);
}
);
width = 1;
},
{
layerId = "AA78C373-A874-4B43-A7A1-B39102DDD1E4";
paths = (
{
closed = 1;
nodes = (
"-532 506 CURVE SMOOTH",
"-532 612 OFFCURVE",
"-423 655 OFFCURVE",
"-306 655 CURVE SMOOTH",
"-189 655 OFFCURVE",
"-79 612 OFFCURVE",
"-79 506 CURVE SMOOTH",
"-79 433 OFFCURVE",
"-144 399 OFFCURVE",
"-219 396 CURVE",
"-219 418 LINE",
"-167 421 OFFCURVE",
"-145 437 OFFCURVE",
"-145 468 CURVE SMOOTH",
"-145 509 OFFCURVE",
"-222 523 OFFCURVE",
"-306 523 CURVE SMOOTH",
"-393 523 OFFCURVE",
"-471 510 OFFCURVE",
"-471 468 CURVE SMOOTH",
"-471 440 OFFCURVE",
"-445 421 OFFCURVE",
"-393 418 CURVE",
"-393 396 LINE",
"-468 399 OFFCURVE",
"-532 433 OFFCURVE"
);
}
);
width = 1;
}
);
unicode = 0DD2;
category = Mark;
}
{
glyphname = sinMatraIi;
layers = (
{
layerId = "C18F3EFD-FA9C-4751-AD2F-5B966120D1A5";
paths = (
{
closed = 1;
nodes = (
"-244 502 CURVE SMOOTH",
"-244 472 OFFCURVE",
"-215 447 OFFCURVE",
"-180 447 CURVE SMOOTH",
"-145 447 OFFCURVE",
"-115 472 OFFCURVE",
"-115 502 CURVE SMOOTH",
"-115 532 OFFCURVE",
"-145 557 OFFCURVE",
"-180 557 CURVE SMOOTH",
"-215 557 OFFCURVE",
"-244 532 OFFCURVE"
);
},
{
closed = 1;
nodes = (
"-573 505 CURVE SMOOTH",
"-573 609 OFFCURVE",
"-452 655 OFFCURVE",
"-328 655 CURVE SMOOTH",
"-214 655 OFFCURVE",
"-81 613 OFFCURVE",
"-81 512 CURVE SMOOTH",
"-81 458 OFFCURVE",
"-125 419 OFFCURVE",
"-180 419 CURVE SMOOTH",
"-237 419 OFFCURVE",
"-275 459 OFFCURVE",
"-275 503 CURVE SMOOTH",
"-275 547 OFFCURVE",
"-245 568 OFFCURVE",
"-226 577 CURVE",
"-237 580 OFFCURVE",
"-274 586 OFFCURVE",
"-327 586 CURVE SMOOTH",
"-419 586 OFFCURVE",
"-537 564 OFFCURVE",
"-537 487 CURVE SMOOTH",
"-537 449 OFFCURVE",
"-516 425 OFFCURVE",
"-479 416 CURVE",
"-485 396 LINE",
"-537 401 OFFCURVE",
"-573 445 OFFCURVE"
);
}
);
width = 1;
},
{
layerId = "AA78C373-A874-4B43-A7A1-B39102DDD1E4";
paths = (
{
closed = 1;
nodes = (
"-243 502 CURVE SMOOTH",
"-243 472 OFFCURVE",
"-214 448 OFFCURVE",
"-180 448 CURVE SMOOTH",
"-146 448 OFFCURVE",
"-117 472 OFFCURVE",
"-117 502 CURVE SMOOTH",
"-117 532 OFFCURVE",
"-146 556 OFFCURVE",
"-180 556 CURVE SMOOTH",
"-214 556 OFFCURVE",
"-243 532 OFFCURVE"
);
},
{
closed = 1;
nodes = (
"-573 505 CURVE SMOOTH",
"-573 610 OFFCURVE",
"-452 655 OFFCURVE",
"-328 655 CURVE SMOOTH",
"-214 655 OFFCURVE",
"-81 613 OFFCURVE",
"-81 512 CURVE SMOOTH",
"-81 458 OFFCURVE",
"-125 419 OFFCURVE",
"-180 419 CURVE SMOOTH",
"-237 419 OFFCURVE",
"-275 459 OFFCURVE",
"-275 503 CURVE SMOOTH",
"-275 513 OFFCURVE",
"-273 536 OFFCURVE",
"-260 549 CURVE",
"-269 550 OFFCURVE",
"-308 552 OFFCURVE",
"-340 552 CURVE SMOOTH",
"-432 552 OFFCURVE",
"-525 530 OFFCURVE",
"-525 471 CURVE SMOOTH",
"-525 449 OFFCURVE",
"-514 427 OFFCURVE",
"-479 418 CURVE",
"-485 396 LINE",
"-537 401 OFFCURVE",
"-573 445 OFFCURVE"
);
}
);
width = 1;
}
);
unicode = 0DD3;
category = Mark;
}
{
glyphname = sinMatraLl;
layers = (
{
layerId = "C18F3EFD-FA9C-4751-AD2F-5B966120D1A5";
paths = (
{
closed = 1;
nodes = (
"147 183 OFFCURVE",
"130 151 OFFCURVE",
"130 117 CURVE SMOOTH",
"130 53 OFFCURVE",
"167 -2 OFFCURVE",
"239 -2 CURVE SMOOTH",
"342 -2 OFFCURVE",
"384 99 OFFCURVE",
"384 215 CURVE SMOOTH",
"384 309 OFFCURVE",
"354 422 OFFCURVE",
"253 422 CURVE SMOOTH",
"189 422 OFFCURVE",
"161 389 OFFCURVE",
"161 341 CURVE SMOOTH",
"161 336 OFFCURVE",
"161 334 OFFCURVE",
"162 329 CURVE",
"175 315 OFFCURVE",
"182 300 OFFCURVE",
"182 283 CURVE SMOOTH",
"182 255 OFFCURVE",
"164 232 OFFCURVE",
"131 232 CURVE SMOOTH",
"86 232 OFFCURVE",
"61 269 OFFCURVE",
"61 314 CURVE SMOOTH",
"61 366 OFFCURVE",
"82 400 OFFCURVE",
"103 418 CURVE",
"68 418 LINE",
"47 395 OFFCURVE",
"32 361 OFFCURVE",
"32 313 CURVE SMOOTH",
"32 254 OFFCURVE",
"70 207 OFFCURVE",
"132 207 CURVE SMOOTH",
"181 207 OFFCURVE",
"224 232 OFFCURVE",
"224 281 CURVE SMOOTH",
"224 304 OFFCURVE",
"211 322 OFFCURVE",
"188 335 CURVE",
"188 337 OFFCURVE",
"188 340 OFFCURVE",
"188 342 CURVE SMOOTH",
"188 380 OFFCURVE",
"209 397 OFFCURVE",
"242 397 CURVE SMOOTH",
"289 397 OFFCURVE",
"315 341 OFFCURVE",
"315 232 CURVE SMOOTH",
"315 97 OFFCURVE",
"293 25 OFFCURVE",
"235 25 CURVE SMOOTH",
"182 25 OFFCURVE",
"154 71 OFFCURVE",
"154 120 CURVE SMOOTH",
"154 145 OFFCURVE",
"168 159 OFFCURVE",
"185 159 CURVE SMOOTH",
"200 159 OFFCURVE",
"209 151 OFFCURVE",
"209 135 CURVE SMOOTH",
"209 102 OFFCURVE",
"173 103 OFFCURVE",
"150 103 CURVE",
"151 78 LINE",
"181 78 OFFCURVE",
"236 83 OFFCURVE",
"236 135 CURVE SMOOTH",
"236 165 OFFCURVE",
"216 183 OFFCURVE",
"186 183 CURVE"
);
}
);
width = 430;
},
{
layerId = "AA78C373-A874-4B43-A7A1-B39102DDD1E4";
paths = (
{
closed = 1;
nodes = (
"125 177 OFFCURVE",
"110 141 OFFCURVE",
"110 112 CURVE SMOOTH",
"110 53 OFFCURVE",
"148 -2 OFFCURVE",
"228 -2 CURVE SMOOTH",
"340 -2 OFFCURVE",
"384 99 OFFCURVE",
"384 215 CURVE SMOOTH",
"384 308 OFFCURVE",
"346 422 OFFCURVE",
"229 422 CURVE SMOOTH",
"170 422 OFFCURVE",
"132 389 OFFCURVE",
"132 341 CURVE SMOOTH",
"132 336 OFFCURVE",
"132 334 OFFCURVE",
"133 329 CURVE",
"146 315 OFFCURVE",
"152 300 OFFCURVE",
"152 283 CURVE SMOOTH",
"152 255 OFFCURVE",
"137 241 OFFCURVE",
"114 241 CURVE SMOOTH",
"84 241 OFFCURVE",
"62 269 OFFCURVE",
"62 314 CURVE SMOOTH",
"62 365 OFFCURVE",
"83 400 OFFCURVE",
"104 418 CURVE",
"68 418 LINE",
"47 395 OFFCURVE",
"32 361 OFFCURVE",
"32 313 CURVE SMOOTH",
"32 255 OFFCURVE",
"65 207 OFFCURVE",
"119 207 CURVE SMOOTH",
"168 207 OFFCURVE",
"196 232 OFFCURVE",
"196 281 CURVE SMOOTH",
"196 304 OFFCURVE",
"183 325 OFFCURVE",
"160 337 CURVE",
"160 339 OFFCURVE",
"160 342 OFFCURVE",
"160 344 CURVE SMOOTH",
"160 373 OFFCURVE",
"180 380 OFFCURVE",
"194 380 CURVE SMOOTH",
"222 380 OFFCURVE",
"246 335 OFFCURVE",
"246 232 CURVE SMOOTH",
"246 109 OFFCURVE",
"228 62 OFFCURVE",
"188 62 CURVE SMOOTH",
"167 62 OFFCURVE",
"138 74 OFFCURVE",
"138 118 CURVE SMOOTH",
"138 132 OFFCURVE",
"145 151 OFFCURVE",
"164 151 CURVE SMOOTH",
"177 151 OFFCURVE",
"182 143 OFFCURVE",
"182 134 CURVE",
"182 117 OFFCURVE",
"167 108 OFFCURVE",
"137 108 CURVE",
"137 81 LINE",
"185 81 OFFCURVE",
"210 102 OFFCURVE",
"210 135 CURVE SMOOTH",
"210 163 OFFCURVE",
"190 177 OFFCURVE",
"165 177 CURVE SMOOTH"
);
}
);
width = 430;
}
);
unicode = 0DF3;
category = Mark;
subCategory = Spacing;
}
{
glyphname = sinMatraLs;
layers = (
{
layerId = "C18F3EFD-FA9C-4751-AD2F-5B966120D1A5";
paths = (
{
closed = 1;
nodes = (
"32 313 CURVE SMOOTH",
"32 361 OFFCURVE",
"47 395 OFFCURVE",
"68 418 CURVE",
"103 418 LINE",
"82 400 OFFCURVE",
"61 366 OFFCURVE",
"61 314 CURVE SMOOTH",
"61 269 OFFCURVE",
"86 232 OFFCURVE",
"131 232 CURVE SMOOTH",
"164 232 OFFCURVE",
"182 255 OFFCURVE",
"182 283 CURVE SMOOTH",
"182 300 OFFCURVE",
"175 315 OFFCURVE",
"162 329 CURVE",
"161 334 OFFCURVE",
"161 336 OFFCURVE",
"161 341 CURVE SMOOTH",
"161 389 OFFCURVE",
"189 422 OFFCURVE",
"253 422 CURVE SMOOTH",
"354 422 OFFCURVE",
"384 309 OFFCURVE",
"384 215 CURVE SMOOTH",
"384 99 OFFCURVE",
"342 -2 OFFCURVE",
"239 -2 CURVE SMOOTH",
"167 -2 OFFCURVE",
"131 53 OFFCURVE",
"131 117 CURVE SMOOTH",
"131 129 OFFCURVE",
"132 140 OFFCURVE",
"135 153 CURVE",
"160 153 LINE",
"158 142 OFFCURVE",
"157 133 OFFCURVE",
"157 122 CURVE SMOOTH",
"157 69 OFFCURVE",
"183 25 OFFCURVE",
"235 25 CURVE SMOOTH",
"293 25 OFFCURVE",
"315 97 OFFCURVE",
"315 232 CURVE SMOOTH",
"315 341 OFFCURVE",
"289 397 OFFCURVE",
"242 397 CURVE SMOOTH",
"209 397 OFFCURVE",
"188 380 OFFCURVE",
"188 342 CURVE SMOOTH",
"188 340 OFFCURVE",
"188 337 OFFCURVE",
"188 335 CURVE",
"211 322 OFFCURVE",
"224 304 OFFCURVE",
"224 281 CURVE SMOOTH",
"224 232 OFFCURVE",
"181 207 OFFCURVE",
"132 207 CURVE SMOOTH",
"70 207 OFFCURVE",
"32 254 OFFCURVE"
);
}
);
width = 430;
},
{
layerId = "AA78C373-A874-4B43-A7A1-B39102DDD1E4";
paths = (
{
closed = 1;
nodes = (
"32 313 CURVE SMOOTH",
"32 361 OFFCURVE",
"47 395 OFFCURVE",
"68 418 CURVE",
"104 418 LINE",
"83 400 OFFCURVE",
"62 365 OFFCURVE",
"62 314 CURVE SMOOTH",
"62 269 OFFCURVE",
"84 241 OFFCURVE",
"114 241 CURVE SMOOTH",
"137 241 OFFCURVE",
"152 255 OFFCURVE",
"152 283 CURVE SMOOTH",
"152 300 OFFCURVE",
"146 315 OFFCURVE",
"133 329 CURVE",
"132 334 OFFCURVE",
"132 336 OFFCURVE",
"132 341 CURVE SMOOTH",
"132 389 OFFCURVE",
"170 422 OFFCURVE",
"229 422 CURVE SMOOTH",
"346 422 OFFCURVE",
"384 308 OFFCURVE",
"384 215 CURVE SMOOTH",
"384 99 OFFCURVE",
"340 -2 OFFCURVE",
"228 -2 CURVE SMOOTH",
"148 -2 OFFCURVE",
"114 53 OFFCURVE",
"114 117 CURVE SMOOTH",
"114 129 OFFCURVE",
"115 141 OFFCURVE",
"118 153 CURVE",
"145 153 LINE",
"143 143 OFFCURVE",
"142 132 OFFCURVE",
"142 122 CURVE SMOOTH",
"142 74 OFFCURVE",
"167 62 OFFCURVE",
"188 62 CURVE SMOOTH",
"228 62 OFFCURVE",
"246 109 OFFCURVE",
"246 232 CURVE SMOOTH",
"246 335 OFFCURVE",
"222 380 OFFCURVE",
"194 380 CURVE SMOOTH",
"180 380 OFFCURVE",
"160 373 OFFCURVE",
"160 344 CURVE SMOOTH",
"160 342 OFFCURVE",
"160 339 OFFCURVE",
"160 337 CURVE",
"183 325 OFFCURVE",
"196 304 OFFCURVE",
"196 281 CURVE SMOOTH",
"196 232 OFFCURVE",
"168 207 OFFCURVE",
"119 207 CURVE SMOOTH",
"65 207 OFFCURVE",
"32 255 OFFCURVE"
);
}
);
width = 430;
}
);
unicode = 0DDF;
category = Mark;
subCategory = Spacing;
}
{
glyphname = sinMatraR;
layers = (
{
layerId = "C18F3EFD-FA9C-4751-AD2F-5B966120D1A5";
paths = (
{
closed = 1;
nodes = (
"32 243 CURVE SMOOTH",
"32 321 OFFCURVE",
"68 384 OFFCURVE",
"140 384 CURVE SMOOTH",
"225 384 OFFCURVE",
"258 291 OFFCURVE",
"258 198 CURVE SMOOTH",
"258 140 OFFCURVE",
"241 50 OFFCURVE",
"241 22 CURVE SMOOTH",
"241 15 OFFCURVE",
"241 9 OFFCURVE",
"242 3 CURVE",
"213 3 LINE",
"210 12 OFFCURVE",
"205 17 OFFCURVE",
"198 17 CURVE SMOOTH",
"186 17 OFFCURVE",
"161 -1 OFFCURVE",
"128 -1 CURVE SMOOTH",
"70 -1 OFFCURVE",
"32 48 OFFCURVE",
"32 104 CURVE SMOOTH",
"32 150 OFFCURVE",
"54 181 OFFCURVE",
"97 200 CURVE SMOOTH",
"122 211 OFFCURVE",
"162 217 OFFCURVE",
"198 217 CURVE",
"198 305 OFFCURVE",
"172 350 OFFCURVE",
"130 350 CURVE SMOOTH",
"79 350 OFFCURVE",
"57 301 OFFCURVE",
"57 240 CURVE SMOOTH",
"57 238 OFFCURVE",
"57 238 OFFCURVE",
"57 236 CURVE",
"32 236 LINE",
"32 239 OFFCURVE",
"32 240 OFFCURVE"
);
},
{
closed = 1;
nodes = (
"62 104 CURVE SMOOTH",
"62 63 OFFCURVE",
"90 27 OFFCURVE",
"130 27 CURVE SMOOTH",
"155 27 OFFCURVE",
"181 42 OFFCURVE",
"191 42 CURVE SMOOTH",
"194 42 OFFCURVE",
"197 41 OFFCURVE",
"200 39 CURVE",
"198 52 OFFCURVE",
"197 76 OFFCURVE",
"197 113 CURVE SMOOTH",
"197 143 OFFCURVE",
"198 164 OFFCURVE",
"198 182 CURVE SMOOTH",
"198 185 OFFCURVE",
"198 188 OFFCURVE",
"198 190 CURVE",
"183 190 OFFCURVE",
"148 190 OFFCURVE",
"120 181 CURVE SMOOTH",
"85 170 OFFCURVE",
"62 147 OFFCURVE"
);
}
);
width = 305;
},
{
layerId = "AA78C373-A874-4B43-A7A1-B39102DDD1E4";
paths = (
{
closed = 1;
nodes = (
"32 243 CURVE SMOOTH",
"32 321 OFFCURVE",
"66 384 OFFCURVE",
"144 384 CURVE SMOOTH",
"229 384 OFFCURVE",
"264 306 OFFCURVE",
"264 198 CURVE SMOOTH",
"264 140 OFFCURVE",
"248 51 OFFCURVE",
"248 22 CURVE SMOOTH",
"248 15 OFFCURVE",
"248 9 OFFCURVE",
"249 3 CURVE",
"176 3 LINE",
"173 12 OFFCURVE",
"168 17 OFFCURVE",
"161 17 CURVE SMOOTH",
"149 17 OFFCURVE",
"141 -1 OFFCURVE",
"113 -1 CURVE SMOOTH",
"55 -1 OFFCURVE",
"32 65 OFFCURVE",
"32 104 CURVE SMOOTH",
"32 150 OFFCURVE",
"54 184 OFFCURVE",
"97 202 CURVE SMOOTH",
"119 211 OFFCURVE",
"143 215 OFFCURVE",
"150 215 CURVE",
"150 303 OFFCURVE",
"141 332 OFFCURVE",
"113 332 CURVE SMOOTH",
"80 332 OFFCURVE",
"58 301 OFFCURVE",
"58 240 CURVE SMOOTH",
"58 238 OFFCURVE",
"58 238 OFFCURVE",
"58 236 CURVE",
"32 236 LINE",
"32 239 OFFCURVE",
"32 240 OFFCURVE"
);
},
{
closed = 1;
nodes = (
"63 104 CURVE SMOOTH",
"63 74 OFFCURVE",
"76 29 OFFCURVE",
"115 29 CURVE SMOOTH",
"135 29 OFFCURVE",
"141 35 OFFCURVE",
"149 39 CURVE SMOOTH",
"151 40 OFFCURVE",
"154 41 OFFCURVE",
"157 41 CURVE",
"149 46 OFFCURVE",
"149 74 OFFCURVE",
"149 111 CURVE SMOOTH",
"149 142 OFFCURVE",
"150 161 OFFCURVE",
"150 179 CURVE SMOOTH",
"150 182 OFFCURVE",
"150 186 OFFCURVE",
"150 188 CURVE",
"147 188 OFFCURVE",
"128 183 OFFCURVE",
"120 181 CURVE SMOOTH",
"85 170 OFFCURVE",
"63 147 OFFCURVE"
);
}
);
width = 305;
}
);
unicode = 0DD8;
category = Mark;
subCategory = Spacing;
}
{
glyphname = sinMatraU;
layers = (
{
layerId = "C18F3EFD-FA9C-4751-AD2F-5B966120D1A5";
paths = (
{
closed = 1;
nodes = (
"-580 -146 CURVE SMOOTH",
"-580 -88 OFFCURVE",
"-537 -50 OFFCURVE",
"-483 -50 CURVE SMOOTH",
"-440 -50 OFFCURVE",
"-409 -66 OFFCURVE",
"-390 -107 CURVE",
"-419 -119 LINE",
"-428 -97 OFFCURVE",
"-447 -79 OFFCURVE",
"-479 -79 CURVE SMOOTH",
"-514 -79 OFFCURVE",
"-546 -101 OFFCURVE",
"-546 -140 CURVE SMOOTH",
"-546 -178 OFFCURVE",
"-518 -194 OFFCURVE",
"-468 -194 CURVE SMOOTH",
"-87 -194 LINE",
"-87 125 LINE",
"-55 214 LINE",
"-55 -229 LINE",
"-471 -229 LINE SMOOTH",
"-536 -229 OFFCURVE",
"-580 -199 OFFCURVE"
);
}
);
width = 1;
},
{
layerId = "AA78C373-A874-4B43-A7A1-B39102DDD1E4";
paths = (
{
closed = 1;
nodes = (
"-581 -139 CURVE SMOOTH",
"-581 -88 OFFCURVE",
"-535 -49 OFFCURVE",
"-481 -49 CURVE SMOOTH",
"-440 -49 OFFCURVE",
"-404 -72 OFFCURVE",
"-390 -107 CURVE",
"-422 -119 LINE",
"-429 -102 OFFCURVE",
"-449 -80 OFFCURVE",
"-481 -80 CURVE SMOOTH",
"-517 -80 OFFCURVE",
"-546 -107 OFFCURVE",
"-546 -139 CURVE SMOOTH",
"-546 -167 OFFCURVE",
"-525 -188 OFFCURVE",
"-457 -188 CURVE SMOOTH",
"-89 -188 LINE",
"-89 125 LINE",
"-55 214 LINE",
"-55 -229 LINE",
"-478 -229 LINE SMOOTH",
"-556 -229 OFFCURVE",
"-581 -182 OFFCURVE"
);
}
);
width = 0;
}
);
unicode = 0DD4;
category = Mark;
}
